<mxfile host="app.diagrams.net" modified="2022-12-29T09:40:32.497Z" agent="5.0 (X11; Linux x86_64) AppleWebKit/537.36 (KHTML, like Gecko) Chrome/108.0.0.0 Safari/537.36" etag="yT4bODxYulYHX_mUyMxl" version="20.7.4" type="github">
  <diagram id="hdS_zrCQjjvmw232QyaX" name="Page-1">
    <mxGraphModel dx="2074" dy="1130" grid="1" gridSize="10" guides="1" tooltips="1" connect="1" arrows="1" fold="1" page="1" pageScale="1" pageWidth="827" pageHeight="1169" math="0" shadow="0">
      <root>
        <mxCell id="0" />
        <mxCell id="1" parent="0" />
        <mxCell id="U1_2OJh4UtTGv1gTS8dt-41" value="Chef" style="html=1;overflow=block;blockSpacing=1;swimlane;childLayout=stackLayout;horizontal=1;horizontalStack=0;resizeParent=1;resizeParentMax=0;resizeLast=0;collapsible=0;fontStyle=0;marginBottom=0;swimlaneFillColor=#ffffff;startSize=25;whiteSpace=wrap;fontSize=13;fontColor=#333333;align=center;spacing=0;strokeColor=#333333;strokeOpacity=100;fillOpacity=100;rounded=1;absoluteArcSize=1;arcSize=12;fillColor=#ffffff;strokeWidth=0.8;" parent="1" vertex="1">
          <mxGeometry x="680" y="820" width="270" height="96.25" as="geometry" />
        </mxCell>
        <mxCell id="U1_2OJh4UtTGv1gTS8dt-42" value="+ specialité: string" style="part=1;html=1;resizeHeight=0;strokeColor=none;fillColor=none;verticalAlign=middle;spacingLeft=4;spacingRight=4;overflow=hidden;rotatable=0;points=[[0,0.5],[1,0.5]];portConstraint=eastwest;swimlaneFillColor=#ffffff;strokeOpacity=100;fillOpacity=100;whiteSpace=wrap;fontSize=13;fontColor=#333333;align=center;" parent="U1_2OJh4UtTGv1gTS8dt-41" vertex="1">
          <mxGeometry y="25" width="270" height="46" as="geometry" />
        </mxCell>
        <mxCell id="U1_2OJh4UtTGv1gTS8dt-43" value="" style="line;strokeWidth=1;fillColor=none;align=left;verticalAlign=middle;spacingTop=-1;spacingLeft=3;spacingRight=3;rotatable=0;labelPosition=right;points=[];portConstraint=eastwest;" parent="U1_2OJh4UtTGv1gTS8dt-41" vertex="1">
          <mxGeometry y="71" width="270" height="8" as="geometry" />
        </mxCell>
        <mxCell id="U1_2OJh4UtTGv1gTS8dt-44" value="" style="part=1;html=1;resizeHeight=0;strokeColor=none;fillColor=none;verticalAlign=middle;spacingLeft=4;spacingRight=4;overflow=hidden;rotatable=0;points=[[0,0.5],[1,0.5]];portConstraint=eastwest;swimlaneFillColor=#ffffff;strokeOpacity=100;fillOpacity=100;whiteSpace=wrap;fontSize=13;align=center;" parent="U1_2OJh4UtTGv1gTS8dt-41" vertex="1">
          <mxGeometry y="79" width="270" height="17.25" as="geometry" />
        </mxCell>
        <UserObject label="" lucidchartObjectId="hbmcKppnz3ou" id="U1_2OJh4UtTGv1gTS8dt-45">
          <mxCell style="html=1;jettySize=18;whiteSpace=wrap;fontSize=13;strokeColor=#333333;strokeOpacity=100;strokeWidth=0.8;rounded=1;arcSize=24;edgeStyle=orthogonalEdgeStyle;startArrow=none;endArrow=none;" parent="1" source="U1_2OJh4UtTGv1gTS8dt-42" target="RWhxmAeCFr4lGcvdIDr7-95" edge="1">
            <mxGeometry width="100" height="100" relative="1" as="geometry">
              <Array as="points">
                <mxPoint x="1310" y="868" />
                <mxPoint x="1310" y="870" />
              </Array>
              <mxPoint x="1330" y="910" as="targetPoint" />
              <mxPoint x="1010" y="820" as="sourcePoint" />
            </mxGeometry>
          </mxCell>
        </UserObject>
        <mxCell id="U1_2OJh4UtTGv1gTS8dt-46" value="Prépare" style="text;html=1;resizable=0;labelBackgroundColor=default;align=center;verticalAlign=middle;fontColor=#333333;fontSize=13;" parent="U1_2OJh4UtTGv1gTS8dt-45" vertex="1">
          <mxGeometry relative="1" as="geometry">
            <mxPoint y="-9" as="offset" />
          </mxGeometry>
        </mxCell>
        <mxCell id="U1_2OJh4UtTGv1gTS8dt-48" value="1..*" style="text;html=1;resizable=0;labelBackgroundColor=default;align=center;verticalAlign=middle;fontSize=13;" parent="U1_2OJh4UtTGv1gTS8dt-45" vertex="1">
          <mxGeometry x="0.6830807634235698" relative="1" as="geometry">
            <mxPoint x="20" y="-18" as="offset" />
          </mxGeometry>
        </mxCell>
        <mxCell id="RWhxmAeCFr4lGcvdIDr7-161" value="1" style="edgeLabel;html=1;align=center;verticalAlign=middle;resizable=0;points=[];" parent="U1_2OJh4UtTGv1gTS8dt-45" vertex="1" connectable="0">
          <mxGeometry x="-0.0861" y="3" relative="1" as="geometry">
            <mxPoint x="-100" y="14" as="offset" />
          </mxGeometry>
        </mxCell>
        <mxCell id="1KbfCKK-a7wuh9zhNjNE-63" parent="1" />
        <mxCell id="1KbfCKK-a7wuh9zhNjNE-68" value="Client" style="html=1;overflow=block;blockSpacing=1;swimlane;childLayout=stackLayout;horizontal=1;horizontalStack=0;resizeParent=1;resizeParentMax=0;resizeLast=0;collapsible=0;fontStyle=0;marginBottom=0;swimlaneFillColor=#ffffff;startSize=25;whiteSpace=wrap;fontSize=13;fontColor=#333333;align=center;spacing=0;strokeColor=#333333;strokeOpacity=100;fillOpacity=100;rounded=1;absoluteArcSize=1;arcSize=12;fillColor=#ffffff;strokeWidth=0.8;" parent="1KbfCKK-a7wuh9zhNjNE-63" vertex="1">
          <mxGeometry x="680" y="270" width="270" height="72.25" as="geometry" />
        </mxCell>
        <mxCell id="1KbfCKK-a7wuh9zhNjNE-69" value="-bankInformations: string" style="part=1;html=1;resizeHeight=0;strokeColor=none;fillColor=none;verticalAlign=middle;spacingLeft=4;spacingRight=4;overflow=hidden;rotatable=0;points=[[0,0.5],[1,0.5]];portConstraint=eastwest;swimlaneFillColor=#ffffff;strokeOpacity=100;fillOpacity=100;whiteSpace=wrap;fontSize=13;align=center;" parent="1KbfCKK-a7wuh9zhNjNE-68" vertex="1">
          <mxGeometry y="25" width="270" height="25" as="geometry" />
        </mxCell>
        <mxCell id="1KbfCKK-a7wuh9zhNjNE-70" value="" style="line;strokeWidth=1;fillColor=none;align=left;verticalAlign=middle;spacingTop=-1;spacingLeft=3;spacingRight=3;rotatable=0;labelPosition=right;points=[];portConstraint=eastwest;" parent="1KbfCKK-a7wuh9zhNjNE-68" vertex="1">
          <mxGeometry y="50" width="270" height="8" as="geometry" />
        </mxCell>
        <mxCell id="1KbfCKK-a7wuh9zhNjNE-71" value="" style="part=1;html=1;resizeHeight=0;strokeColor=none;fillColor=none;verticalAlign=middle;spacingLeft=4;spacingRight=4;overflow=hidden;rotatable=0;points=[[0,0.5],[1,0.5]];portConstraint=eastwest;swimlaneFillColor=#ffffff;strokeOpacity=100;fillOpacity=100;whiteSpace=wrap;fontSize=13;align=center;" parent="1KbfCKK-a7wuh9zhNjNE-68" vertex="1">
          <mxGeometry y="58" width="270" height="14.25" as="geometry" />
        </mxCell>
        <mxCell id="1KbfCKK-a7wuh9zhNjNE-64" value="" style="group;dropTarget=0;pointerEvents=0;" parent="1KbfCKK-a7wuh9zhNjNE-63" vertex="1">
          <mxGeometry x="1055" y="40" width="640" height="44" as="geometry" />
        </mxCell>
        <UserObject label="%filename%" placeholders="1" lucidchartObjectId="kWBYl.rsL5rs" id="1KbfCKK-a7wuh9zhNjNE-65">
          <mxCell style="points=[[0.062,0.967,0],[0.946,0.967,0]];html=1;overflow=block;blockSpacing=1;whiteSpace=wrap;fontSize=19.7;fontColor=#a9afb8;fontStyle=1;align=center;spacingLeft=7;spacingRight=7;spacingTop=2;spacing=3;strokeOpacity=0;fillOpacity=0;rounded=1;absoluteArcSize=1;arcSize=12;fillColor=#ffffff;strokeWidth=1.5;" parent="1KbfCKK-a7wuh9zhNjNE-64" vertex="1">
            <mxGeometry width="640" height="31" as="geometry" />
          </mxCell>
        </UserObject>
        <UserObject label="%creatorName%  |  %date{mmmm d, yyyy}%" placeholders="1" lucidchartObjectId="kWBYolvidEkw" id="1KbfCKK-a7wuh9zhNjNE-66">
          <mxCell style="html=1;overflow=block;blockSpacing=1;whiteSpace=wrap;fontSize=11.5;fontColor=#a9afb8;align=center;spacingLeft=7;spacingRight=7;spacingTop=2;spacing=3;strokeOpacity=0;fillOpacity=0;rounded=1;absoluteArcSize=1;arcSize=12;fillColor=#ffffff;strokeWidth=1.5;" parent="1KbfCKK-a7wuh9zhNjNE-64" vertex="1">
            <mxGeometry y="30" width="640" height="14" as="geometry" />
          </mxCell>
        </UserObject>
        <mxCell id="RWhxmAeCFr4lGcvdIDr7-3" parent="1" />
        <mxCell id="RWhxmAeCFr4lGcvdIDr7-46" parent="RWhxmAeCFr4lGcvdIDr7-3" />
        <mxCell id="RWhxmAeCFr4lGcvdIDr7-74" value="" style="group;dropTarget=0;pointerEvents=0;" parent="RWhxmAeCFr4lGcvdIDr7-46" vertex="1">
          <mxGeometry x="1055" y="40" width="640" height="44" as="geometry" />
        </mxCell>
        <UserObject label="%filename%" placeholders="1" lucidchartObjectId="kWBYl.rsL5rs" id="RWhxmAeCFr4lGcvdIDr7-75">
          <mxCell style="points=[[0.062,0.967,0],[0.946,0.967,0]];html=1;overflow=block;blockSpacing=1;whiteSpace=wrap;fontSize=19.7;fontColor=#a9afb8;fontStyle=1;align=center;spacingLeft=7;spacingRight=7;spacingTop=2;spacing=3;strokeOpacity=0;fillOpacity=0;rounded=1;absoluteArcSize=1;arcSize=12;fillColor=#ffffff;strokeWidth=1.5;" parent="RWhxmAeCFr4lGcvdIDr7-74" vertex="1">
            <mxGeometry width="640" height="31" as="geometry" />
          </mxCell>
        </UserObject>
        <UserObject label="%creatorName%  |  %date{mmmm d, yyyy}%" placeholders="1" lucidchartObjectId="kWBYolvidEkw" id="RWhxmAeCFr4lGcvdIDr7-76">
          <mxCell style="html=1;overflow=block;blockSpacing=1;whiteSpace=wrap;fontSize=11.5;fontColor=#a9afb8;align=center;spacingLeft=7;spacingRight=7;spacingTop=2;spacing=3;strokeOpacity=0;fillOpacity=0;rounded=1;absoluteArcSize=1;arcSize=12;fillColor=#ffffff;strokeWidth=1.5;" parent="RWhxmAeCFr4lGcvdIDr7-74" vertex="1">
            <mxGeometry y="30" width="640" height="14" as="geometry" />
          </mxCell>
        </UserObject>
        <mxCell id="RWhxmAeCFr4lGcvdIDr7-82" parent="1" />
        <mxCell id="RWhxmAeCFr4lGcvdIDr7-91" value="Livreur" style="html=1;overflow=block;blockSpacing=1;swimlane;childLayout=stackLayout;horizontal=1;horizontalStack=0;resizeParent=1;resizeParentMax=0;resizeLast=0;collapsible=0;fontStyle=0;marginBottom=0;swimlaneFillColor=#ffffff;startSize=25;whiteSpace=wrap;fontSize=13;fontColor=#333333;align=center;spacing=0;strokeColor=#333333;strokeOpacity=100;fillOpacity=100;rounded=1;absoluteArcSize=1;arcSize=12;fillColor=#ffffff;strokeWidth=0.8;" parent="RWhxmAeCFr4lGcvdIDr7-82" vertex="1">
          <mxGeometry x="680" y="524" width="270" height="133.25" as="geometry" />
        </mxCell>
        <mxCell id="RWhxmAeCFr4lGcvdIDr7-92" value="&lt;div style=&quot;display: flex; justify-content: center; text-align: center; align-items: baseline; font-size: 0; line-height: 1.25;margin-top: -2px;&quot;&gt;&lt;span&gt;&lt;span style=&quot;font-size:13px;color:#333333;&quot;&gt;+statut :string&lt;br&gt;&lt;/span&gt;&lt;/span&gt;&lt;/div&gt;&lt;div style=&quot;display: flex; justify-content: center; text-align: center; align-items: baseline; font-size: 0; line-height: 1.25;margin-top: -2px;&quot;&gt;&lt;span&gt;&lt;span style=&quot;font-size:13px;color:#333333;&quot;&gt;+lattitude: float&lt;br&gt;&lt;/span&gt;&lt;/span&gt;&lt;/div&gt;&lt;div style=&quot;display: flex; justify-content: center; text-align: center; align-items: baseline; font-size: 0; line-height: 1.25;margin-top: -2px;&quot;&gt;&lt;span&gt;&lt;span style=&quot;font-size:13px;color:#333333;&quot;&gt;+longitude:float&lt;/span&gt;&lt;/span&gt;&lt;/div&gt;" style="part=1;html=1;resizeHeight=0;strokeColor=none;fillColor=none;verticalAlign=middle;spacingLeft=4;spacingRight=4;overflow=hidden;rotatable=0;points=[[0,0.5],[1,0.5]];portConstraint=eastwest;swimlaneFillColor=#ffffff;strokeOpacity=100;fillOpacity=100;whiteSpace=wrap;fontSize=13;fontColor=#333333;align=center;" parent="RWhxmAeCFr4lGcvdIDr7-91" vertex="1">
          <mxGeometry y="25" width="270" height="65" as="geometry" />
        </mxCell>
        <mxCell id="RWhxmAeCFr4lGcvdIDr7-93" value="" style="line;strokeWidth=1;fillColor=none;align=left;verticalAlign=middle;spacingTop=-1;spacingLeft=3;spacingRight=3;rotatable=0;labelPosition=right;points=[];portConstraint=eastwest;" parent="RWhxmAeCFr4lGcvdIDr7-91" vertex="1">
          <mxGeometry y="90" width="270" height="8" as="geometry" />
        </mxCell>
        <mxCell id="RWhxmAeCFr4lGcvdIDr7-94" value="+positionLivreur():string" style="part=1;resizeHeight=0;strokeColor=none;fillColor=none;align=left;verticalAlign=middle;spacingLeft=4;spacingRight=4;rotatable=0;points=[[0,0.5],[1,0.5]];portConstraint=eastwest;swimlaneFillColor=#ffffff;strokeOpacity=100;fillOpacity=100;whiteSpace=wrap;overflow=block;blockSpacing=1;html=1;fontSize=13;" parent="RWhxmAeCFr4lGcvdIDr7-91" vertex="1">
          <mxGeometry y="98" width="270" height="35.25" as="geometry" />
        </mxCell>
        <mxCell id="RWhxmAeCFr4lGcvdIDr7-95" value="plat du jour" style="html=1;overflow=block;blockSpacing=1;swimlane;childLayout=stackLayout;horizontal=1;horizontalStack=0;resizeParent=1;resizeParentMax=0;resizeLast=0;collapsible=0;marginBottom=0;swimlaneFillColor=#ffffff;startSize=25;whiteSpace=wrap;fontSize=13;fontColor=#333333;fontStyle=2;align=center;spacing=0;strokeColor=#333333;strokeOpacity=100;fillOpacity=100;rounded=1;absoluteArcSize=1;arcSize=12;fillColor=#ffffff;strokeWidth=0.8;" parent="RWhxmAeCFr4lGcvdIDr7-82" vertex="1">
          <mxGeometry x="1190" y="800" width="270" height="137.25" as="geometry" />
        </mxCell>
        <mxCell id="RWhxmAeCFr4lGcvdIDr7-96" value="&lt;div style=&quot;display: flex; justify-content: center; text-align: center; align-items: baseline; font-size: 0; line-height: 1.25;margin-top: -2px;&quot;&gt;&lt;span&gt;&lt;span style=&quot;font-size:13px;color:#333333;&quot;&gt;+ nom : string&#xa;&lt;/span&gt;&lt;/span&gt;&lt;/div&gt;&lt;div style=&quot;display: flex; justify-content: center; text-align: center; align-items: baseline; font-size: 0; line-height: 1.25;margin-top: -2px;&quot;&gt;&lt;span&gt;&lt;span style=&quot;font-size:13px;color:#333333;&quot;&gt;+chef :string&#xa;&lt;/span&gt;&lt;/span&gt;&lt;/div&gt;&lt;div style=&quot;display: flex; justify-content: center; text-align: center; align-items: baseline; font-size: 0; line-height: 1.25;margin-top: -2px;&quot;&gt;&lt;span&gt;&lt;span style=&quot;font-size:13px;color:#333333;&quot;&gt;+ type : string&#xa;&lt;/span&gt;&lt;/span&gt;&lt;/div&gt;&lt;div style=&quot;display: flex; justify-content: center; text-align: center; align-items: baseline; font-size: 0; line-height: 1.25;margin-top: -2px;&quot;&gt;&lt;span&gt;&lt;span style=&quot;font-size:13px;color:#333333;&quot;&gt;+jour :date&#xa;&lt;/span&gt;&lt;/span&gt;&lt;/div&gt;&lt;div style=&quot;display: flex; justify-content: center; text-align: center; align-items: baseline; font-size: 0; line-height: 1.25;margin-top: -2px;&quot;&gt;&lt;span&gt;&lt;span style=&quot;font-size:13px;color:#333333;&quot;&gt;+prix :int&lt;/span&gt;&lt;/span&gt;&lt;/div&gt;" style="part=1;html=1;resizeHeight=0;strokeColor=none;fillColor=none;verticalAlign=middle;spacingLeft=4;spacingRight=4;overflow=hidden;rotatable=0;points=[[0,0.5],[1,0.5]];portConstraint=eastwest;swimlaneFillColor=#ffffff;strokeOpacity=100;fillOpacity=100;whiteSpace=wrap;fontSize=13;fontColor=#333333;align=center;" parent="RWhxmAeCFr4lGcvdIDr7-95" vertex="1">
          <mxGeometry y="25" width="270" height="87" as="geometry" />
        </mxCell>
        <mxCell id="RWhxmAeCFr4lGcvdIDr7-97" value="" style="line;strokeWidth=1;fillColor=none;align=left;verticalAlign=middle;spacingTop=-1;spacingLeft=3;spacingRight=3;rotatable=0;labelPosition=right;points=[];portConstraint=eastwest;" parent="RWhxmAeCFr4lGcvdIDr7-95" vertex="1">
          <mxGeometry y="112" width="270" height="8" as="geometry" />
        </mxCell>
        <mxCell id="RWhxmAeCFr4lGcvdIDr7-98" value="" style="part=1;resizeHeight=0;strokeColor=none;fillColor=none;align=left;verticalAlign=middle;spacingLeft=4;spacingRight=4;rotatable=0;points=[[0,0.5],[1,0.5]];portConstraint=eastwest;swimlaneFillColor=#ffffff;strokeOpacity=100;fillOpacity=100;whiteSpace=wrap;overflow=block;blockSpacing=1;html=1;fontSize=13;" parent="RWhxmAeCFr4lGcvdIDr7-95" vertex="1">
          <mxGeometry y="120" width="270" height="17.25" as="geometry" />
        </mxCell>
        <mxCell id="RWhxmAeCFr4lGcvdIDr7-99" value="Commande" style="html=1;overflow=block;blockSpacing=1;swimlane;childLayout=stackLayout;horizontal=1;horizontalStack=0;resizeParent=1;resizeParentMax=0;resizeLast=0;collapsible=0;fontStyle=0;marginBottom=0;swimlaneFillColor=#ffffff;startSize=25;whiteSpace=wrap;fontSize=13;fontColor=#333333;align=center;spacing=0;strokeColor=#333333;strokeOpacity=100;fillOpacity=100;rounded=1;absoluteArcSize=1;arcSize=12;fillColor=#ffffff;strokeWidth=0.8;" parent="RWhxmAeCFr4lGcvdIDr7-82" vertex="1">
          <mxGeometry x="1150" y="508" width="375" height="165.25" as="geometry" />
        </mxCell>
        <mxCell id="RWhxmAeCFr4lGcvdIDr7-100" value="&lt;div style=&quot;display: flex; justify-content: center; text-align: center; align-items: baseline; font-size: 0; line-height: 1.25;margin-top: -2px;&quot;&gt;&lt;span&gt;&lt;span style=&quot;font-size:13px;color:#333333;&quot;&gt;+dateCommande : date&lt;br&gt;&lt;/span&gt;&lt;/span&gt;&lt;/div&gt;&lt;div style=&quot;display: flex; justify-content: center; text-align: center; align-items: baseline; font-size: 0; line-height: 1.25;margin-top: -2px;&quot;&gt;&lt;span&gt;&lt;span style=&quot;font-size:13px;color:#333333;&quot;&gt;+livreur: string&lt;br&gt;&lt;/span&gt;&lt;/span&gt;&lt;/div&gt;&lt;div style=&quot;display: flex; justify-content: center; text-align: center; align-items: baseline; font-size: 0; line-height: 1.25;margin-top: -2px;&quot;&gt;&lt;span&gt;&lt;span style=&quot;font-size:13px;color:#333333;&quot;&gt;+status :string&amp;nbsp;&lt;br&gt;&lt;/span&gt;&lt;/span&gt;&lt;/div&gt;&lt;div style=&quot;display: flex; justify-content: center; text-align: center; align-items: baseline; font-size: 0; line-height: 1.25;margin-top: -2px;&quot;&gt;&lt;span&gt;&lt;span style=&quot;font-size:13px;color:#333333;&quot;&gt;+heureArrivé: int&lt;/span&gt;&lt;/span&gt;&lt;/div&gt;" style="part=1;html=1;resizeHeight=0;strokeColor=none;fillColor=none;verticalAlign=middle;spacingLeft=4;spacingRight=4;overflow=hidden;rotatable=0;points=[[0,0.5],[1,0.5]];portConstraint=eastwest;swimlaneFillColor=#ffffff;strokeOpacity=100;fillOpacity=100;whiteSpace=wrap;fontSize=13;fontColor=#333333;align=center;" parent="RWhxmAeCFr4lGcvdIDr7-99" vertex="1">
          <mxGeometry y="25" width="375" height="79" as="geometry" />
        </mxCell>
        <mxCell id="RWhxmAeCFr4lGcvdIDr7-101" value="" style="line;strokeWidth=1;fillColor=none;align=left;verticalAlign=middle;spacingTop=-1;spacingLeft=3;spacingRight=3;rotatable=0;labelPosition=right;points=[];portConstraint=eastwest;" parent="RWhxmAeCFr4lGcvdIDr7-99" vertex="1">
          <mxGeometry y="104" width="375" height="8" as="geometry" />
        </mxCell>
        <mxCell id="RWhxmAeCFr4lGcvdIDr7-102" value="&lt;div style=&quot;display: flex; justify-content: center; text-align: center; align-items: baseline; font-size: 0; line-height: 1.25;margin-top: -2px;&quot;&gt;&lt;span&gt;&lt;span style=&quot;font-size:13px;color:#333333;&quot;&gt;+ choixLivreur(positionAdresse,positionLivreur):string&#xa;&lt;/span&gt;&lt;/span&gt;&lt;/div&gt;&lt;div style=&quot;display: flex; justify-content: center; text-align: center; align-items: baseline; font-size: 0; line-height: 1.25;margin-top: -2px;&quot;&gt;&lt;span&gt;&lt;span style=&quot;font-size:13px;color:#333333;&quot;&gt;+ETA(positionAdresse,positionLivreur):date&lt;/span&gt;&lt;/span&gt;&lt;/div&gt;" style="part=1;resizeHeight=0;strokeColor=none;fillColor=none;align=left;verticalAlign=middle;spacingLeft=4;spacingRight=4;rotatable=0;points=[[0,0.5],[1,0.5]];portConstraint=eastwest;swimlaneFillColor=#ffffff;strokeOpacity=100;fillOpacity=100;whiteSpace=wrap;overflow=block;blockSpacing=1;html=1;fontSize=13;" parent="RWhxmAeCFr4lGcvdIDr7-99" vertex="1">
          <mxGeometry y="112" width="375" height="53.25" as="geometry" />
        </mxCell>
        <UserObject label="" lucidchartObjectId="a3lcvIBLx3UH" id="RWhxmAeCFr4lGcvdIDr7-103">
          <mxCell style="html=1;jettySize=18;whiteSpace=wrap;fontSize=13;strokeColor=#333333;strokeOpacity=100;strokeWidth=0.8;rounded=1;arcSize=24;edgeStyle=orthogonalEdgeStyle;startArrow=none;endArrow=none;" parent="RWhxmAeCFr4lGcvdIDr7-82" source="RWhxmAeCFr4lGcvdIDr7-91" target="RWhxmAeCFr4lGcvdIDr7-99" edge="1">
            <mxGeometry width="100" height="100" relative="1" as="geometry">
              <Array as="points" />
            </mxGeometry>
          </mxCell>
        </UserObject>
        <mxCell id="RWhxmAeCFr4lGcvdIDr7-104" value="livre" style="text;html=1;resizable=0;labelBackgroundColor=default;align=center;verticalAlign=middle;fontColor=#333333;fontSize=13;" parent="RWhxmAeCFr4lGcvdIDr7-103" vertex="1">
          <mxGeometry relative="1" as="geometry">
            <mxPoint x="13" y="-8" as="offset" />
          </mxGeometry>
        </mxCell>
        <mxCell id="RWhxmAeCFr4lGcvdIDr7-105" value="1" style="text;html=1;resizable=0;labelBackgroundColor=default;align=center;verticalAlign=middle;fontSize=13;" parent="RWhxmAeCFr4lGcvdIDr7-103" vertex="1">
          <mxGeometry x="-0.9151700829390368" relative="1" as="geometry">
            <mxPoint x="2" y="13" as="offset" />
          </mxGeometry>
        </mxCell>
        <mxCell id="RWhxmAeCFr4lGcvdIDr7-106" value="1..*" style="text;html=1;resizable=0;labelBackgroundColor=default;align=center;verticalAlign=middle;fontSize=13;" parent="RWhxmAeCFr4lGcvdIDr7-103" vertex="1">
          <mxGeometry x="0.9281067332789912" relative="1" as="geometry">
            <mxPoint x="-13" y="13" as="offset" />
          </mxGeometry>
        </mxCell>
        <UserObject label="" lucidchartObjectId="R4lc5TQhlQKx" id="RWhxmAeCFr4lGcvdIDr7-107">
          <mxCell style="html=1;jettySize=18;whiteSpace=wrap;fontSize=13;strokeColor=#333333;strokeOpacity=100;strokeWidth=0.8;rounded=1;arcSize=24;edgeStyle=orthogonalEdgeStyle;startArrow=none;endArrow=none;entryX=0.556;entryY=0.015;entryDx=0;entryDy=0;entryPerimeter=0;" parent="RWhxmAeCFr4lGcvdIDr7-82" source="RWhxmAeCFr4lGcvdIDr7-99" target="RWhxmAeCFr4lGcvdIDr7-95" edge="1">
            <mxGeometry x="0.2637" y="-10" width="100" height="100" relative="1" as="geometry">
              <Array as="points" />
              <mxPoint x="1670" y="740" as="targetPoint" />
              <mxPoint as="offset" />
            </mxGeometry>
          </mxCell>
        </UserObject>
        <mxCell id="RWhxmAeCFr4lGcvdIDr7-108" value="contient" style="text;html=1;resizable=0;labelBackgroundColor=default;align=center;verticalAlign=middle;fontColor=#333333;fontSize=13;" parent="RWhxmAeCFr4lGcvdIDr7-107" vertex="1">
          <mxGeometry relative="1" as="geometry">
            <mxPoint y="3" as="offset" />
          </mxGeometry>
        </mxCell>
        <mxCell id="RWhxmAeCFr4lGcvdIDr7-110" value="1..*" style="text;html=1;resizable=0;labelBackgroundColor=default;align=center;verticalAlign=middle;fontSize=13;" parent="RWhxmAeCFr4lGcvdIDr7-107" vertex="1">
          <mxGeometry x="0.72704963356145" relative="1" as="geometry">
            <mxPoint x="21" y="-3" as="offset" />
          </mxGeometry>
        </mxCell>
        <mxCell id="RWhxmAeCFr4lGcvdIDr7-204" style="edgeStyle=orthogonalEdgeStyle;rounded=0;orthogonalLoop=1;jettySize=auto;html=1;exitX=0;exitY=0;exitDx=0;exitDy=0;" parent="RWhxmAeCFr4lGcvdIDr7-107" source="RWhxmAeCFr4lGcvdIDr7-108" target="RWhxmAeCFr4lGcvdIDr7-162" edge="1">
          <mxGeometry relative="1" as="geometry" />
        </mxCell>
        <mxCell id="RWhxmAeCFr4lGcvdIDr7-125" parent="RWhxmAeCFr4lGcvdIDr7-82" />
        <mxCell id="RWhxmAeCFr4lGcvdIDr7-153" value="" style="group;dropTarget=0;pointerEvents=0;" parent="RWhxmAeCFr4lGcvdIDr7-125" vertex="1">
          <mxGeometry x="1055" y="40" width="640" height="44" as="geometry" />
        </mxCell>
        <UserObject label="%filename%" placeholders="1" lucidchartObjectId="kWBYl.rsL5rs" id="RWhxmAeCFr4lGcvdIDr7-154">
          <mxCell style="points=[[0.062,0.967,0],[0.946,0.967,0]];html=1;overflow=block;blockSpacing=1;whiteSpace=wrap;fontSize=19.7;fontColor=#a9afb8;fontStyle=1;align=center;spacingLeft=7;spacingRight=7;spacingTop=2;spacing=3;strokeOpacity=0;fillOpacity=0;rounded=1;absoluteArcSize=1;arcSize=12;fillColor=#ffffff;strokeWidth=1.5;" parent="RWhxmAeCFr4lGcvdIDr7-153" vertex="1">
            <mxGeometry width="640" height="31" as="geometry" />
          </mxCell>
        </UserObject>
        <UserObject label="%creatorName%  |  %date{mmmm d, yyyy}%" placeholders="1" lucidchartObjectId="kWBYolvidEkw" id="RWhxmAeCFr4lGcvdIDr7-155">
          <mxCell style="html=1;overflow=block;blockSpacing=1;whiteSpace=wrap;fontSize=11.5;fontColor=#a9afb8;align=center;spacingLeft=7;spacingRight=7;spacingTop=2;spacing=3;strokeOpacity=0;fillOpacity=0;rounded=1;absoluteArcSize=1;arcSize=12;fillColor=#ffffff;strokeWidth=1.5;" parent="RWhxmAeCFr4lGcvdIDr7-153" vertex="1">
            <mxGeometry y="30" width="640" height="14" as="geometry" />
          </mxCell>
        </UserObject>
        <UserObject label="" lucidchartObjectId="TWlcJLq8VH~c" id="RWhxmAeCFr4lGcvdIDr7-87">
          <mxCell style="html=1;jettySize=18;whiteSpace=wrap;fontSize=13;strokeColor=#333333;strokeOpacity=100;strokeWidth=0.8;rounded=1;arcSize=24;edgeStyle=orthogonalEdgeStyle;startArrow=diamond;startFill=1;startSize=16;endArrow=none;" parent="1" source="RWhxmAeCFr4lGcvdIDr7-206" target="1KbfCKK-a7wuh9zhNjNE-68" edge="1">
            <mxGeometry width="100" height="100" relative="1" as="geometry">
              <Array as="points" />
              <mxPoint x="960" y="292" as="targetPoint" />
              <mxPoint x="1140" y="360" as="sourcePoint" />
            </mxGeometry>
          </mxCell>
        </UserObject>
        <mxCell id="RWhxmAeCFr4lGcvdIDr7-88" value="possède" style="text;html=1;resizable=0;labelBackgroundColor=default;align=center;verticalAlign=middle;fontColor=#333333;fontSize=13;" parent="RWhxmAeCFr4lGcvdIDr7-87" vertex="1">
          <mxGeometry x="0.11853797826988632" relative="1" as="geometry">
            <mxPoint x="3" y="-12" as="offset" />
          </mxGeometry>
        </mxCell>
        <mxCell id="RWhxmAeCFr4lGcvdIDr7-89" value="1..*" style="text;html=1;resizable=0;labelBackgroundColor=default;align=center;verticalAlign=middle;fontSize=13;" parent="RWhxmAeCFr4lGcvdIDr7-87" vertex="1">
          <mxGeometry x="-1" relative="1" as="geometry">
            <mxPoint x="-22" y="17" as="offset" />
          </mxGeometry>
        </mxCell>
        <mxCell id="RWhxmAeCFr4lGcvdIDr7-90" value="1" style="text;html=1;resizable=0;labelBackgroundColor=default;align=center;verticalAlign=middle;fontSize=13;" parent="RWhxmAeCFr4lGcvdIDr7-87" vertex="1">
          <mxGeometry x="1" relative="1" as="geometry">
            <mxPoint x="10" y="18" as="offset" />
          </mxGeometry>
        </mxCell>
        <mxCell id="RWhxmAeCFr4lGcvdIDr7-162" parent="1" />
        <mxCell id="RWhxmAeCFr4lGcvdIDr7-192" parent="RWhxmAeCFr4lGcvdIDr7-162" />
        <mxCell id="RWhxmAeCFr4lGcvdIDr7-197" value="" style="group;dropTarget=0;pointerEvents=0;" parent="RWhxmAeCFr4lGcvdIDr7-192" vertex="1">
          <mxGeometry x="1055" y="40" width="640" height="44" as="geometry" />
        </mxCell>
        <UserObject label="%filename%" placeholders="1" lucidchartObjectId="kWBYl.rsL5rs" id="RWhxmAeCFr4lGcvdIDr7-198">
          <mxCell style="points=[[0.062,0.967,0],[0.946,0.967,0]];html=1;overflow=block;blockSpacing=1;whiteSpace=wrap;fontSize=19.7;fontColor=#a9afb8;fontStyle=1;align=center;spacingLeft=7;spacingRight=7;spacingTop=2;spacing=3;strokeOpacity=0;fillOpacity=0;rounded=1;absoluteArcSize=1;arcSize=12;fillColor=#ffffff;strokeWidth=1.5;" parent="RWhxmAeCFr4lGcvdIDr7-197" vertex="1">
            <mxGeometry width="640" height="31" as="geometry" />
          </mxCell>
        </UserObject>
        <UserObject label="%creatorName%  |  %date{mmmm d, yyyy}%" placeholders="1" lucidchartObjectId="kWBYolvidEkw" id="RWhxmAeCFr4lGcvdIDr7-199">
          <mxCell style="html=1;overflow=block;blockSpacing=1;whiteSpace=wrap;fontSize=11.5;fontColor=#a9afb8;align=center;spacingLeft=7;spacingRight=7;spacingTop=2;spacing=3;strokeOpacity=0;fillOpacity=0;rounded=1;absoluteArcSize=1;arcSize=12;fillColor=#ffffff;strokeWidth=1.5;" parent="RWhxmAeCFr4lGcvdIDr7-197" vertex="1">
            <mxGeometry y="30" width="640" height="14" as="geometry" />
          </mxCell>
        </UserObject>
        <mxCell id="RWhxmAeCFr4lGcvdIDr7-205" parent="1" />
        <mxCell id="RWhxmAeCFr4lGcvdIDr7-206" value="Adresse" style="html=1;overflow=block;blockSpacing=1;swimlane;childLayout=stackLayout;horizontal=1;horizontalStack=0;resizeParent=1;resizeParentMax=0;resizeLast=0;collapsible=0;fontStyle=0;marginBottom=0;swimlaneFillColor=#ffffff;startSize=25;whiteSpace=wrap;fontSize=13;fontColor=#333333;align=center;spacing=0;strokeColor=#333333;strokeOpacity=100;fillOpacity=100;rounded=1;absoluteArcSize=1;arcSize=12;fillColor=#ffffff;strokeWidth=0.8;" parent="RWhxmAeCFr4lGcvdIDr7-205" vertex="1">
          <mxGeometry x="1202.5" y="211.63" width="270" height="189" as="geometry" />
        </mxCell>
        <mxCell id="RWhxmAeCFr4lGcvdIDr7-207" value="&lt;div style=&quot;display: flex; justify-content: center; text-align: center; align-items: baseline; font-size: 0; line-height: 1.25;margin-top: -2px;&quot;&gt;&lt;span&gt;&lt;span style=&quot;font-size:13px;color:#333333;&quot;&gt;numero: int&#xa;&lt;/span&gt;&lt;/span&gt;&lt;/div&gt;&lt;div style=&quot;display: flex; justify-content: center; text-align: center; align-items: baseline; font-size: 0; line-height: 1.25;margin-top: -2px;&quot;&gt;&lt;span&gt;&lt;span style=&quot;font-size:13px;color:#333333;&quot;&gt;modificateur:varchar(4)&#xa;&lt;/span&gt;&lt;/span&gt;&lt;/div&gt;&lt;div style=&quot;display: flex; justify-content: center; text-align: center; align-items: baseline; font-size: 0; line-height: 1.25;margin-top: -2px;&quot;&gt;&lt;span&gt;&lt;span style=&quot;font-size:13px;color:#333333;&quot;&gt;rue:string&#xa;&lt;/span&gt;&lt;/span&gt;&lt;/div&gt;&lt;div style=&quot;display: flex; justify-content: center; text-align: center; align-items: baseline; font-size: 0; line-height: 1.25;margin-top: -2px;&quot;&gt;&lt;span&gt;&lt;span style=&quot;font-size:13px;color:#333333;&quot;&gt;ville: string&#xa;&lt;/span&gt;&lt;/span&gt;&lt;/div&gt;&lt;div style=&quot;display: flex; justify-content: center; text-align: center; align-items: baseline; font-size: 0; line-height: 1.25;margin-top: -2px;&quot;&gt;&lt;span&gt;&lt;span style=&quot;font-size:13px;color:#333333;&quot;&gt;code postal: varchar(5)&#xa;&lt;/span&gt;&lt;/span&gt;&lt;/div&gt;&lt;div style=&quot;display: flex; justify-content: center; text-align: center; align-items: baseline; font-size: 0; line-height: 1.25;margin-top: -2px;&quot;&gt;&lt;span&gt;&lt;span style=&quot;font-size:13px;color:#333333;&quot;&gt;longitude: float&#xa;&lt;/span&gt;&lt;/span&gt;&lt;/div&gt;&lt;div style=&quot;display: flex; justify-content: center; text-align: center; align-items: baseline; font-size: 0; line-height: 1.25;margin-top: -2px;&quot;&gt;&lt;span&gt;&lt;span style=&quot;font-size:13px;color:#333333;&quot;&gt;lattitude:float&#xa;&lt;/span&gt;&lt;/span&gt;&lt;/div&gt;&lt;div style=&quot;display: flex; justify-content: center; text-align: center; align-items: baseline; font-size: 0; line-height: 1.25;margin-top: -2px;&quot;&gt;&lt;span&gt;&lt;span style=&quot;font-size:13px;color:#333333;&quot;&gt;&#xa;&lt;/span&gt;&lt;/span&gt;&lt;/div&gt;&lt;div style=&quot;display: flex; justify-content: center; text-align: center; align-items: baseline; font-size: 0; line-height: 1.25;margin-top: -2px;&quot;&gt;&lt;span&gt;&lt;/span&gt;&lt;/div&gt;" style="part=1;html=1;resizeHeight=0;strokeColor=none;fillColor=none;verticalAlign=middle;spacingLeft=4;spacingRight=4;overflow=hidden;rotatable=0;points=[[0,0.5],[1,0.5]];portConstraint=eastwest;swimlaneFillColor=#ffffff;strokeOpacity=100;fillOpacity=100;whiteSpace=wrap;fontSize=13;fontColor=#333333;align=center;" parent="RWhxmAeCFr4lGcvdIDr7-206" vertex="1">
          <mxGeometry y="25" width="270" height="115" as="geometry" />
        </mxCell>
        <mxCell id="RWhxmAeCFr4lGcvdIDr7-208" value="" style="line;strokeWidth=1;fillColor=none;align=left;verticalAlign=middle;spacingTop=-1;spacingLeft=3;spacingRight=3;rotatable=0;labelPosition=right;points=[];portConstraint=eastwest;" parent="RWhxmAeCFr4lGcvdIDr7-206" vertex="1">
          <mxGeometry y="140" width="270" height="8" as="geometry" />
        </mxCell>
        <mxCell id="RWhxmAeCFr4lGcvdIDr7-209" value="+ positionAdresse():string" style="part=1;resizeHeight=0;strokeColor=none;fillColor=none;align=left;verticalAlign=middle;spacingLeft=4;spacingRight=4;rotatable=0;points=[[0,0.5],[1,0.5]];portConstraint=eastwest;swimlaneFillColor=#ffffff;strokeOpacity=100;fillOpacity=100;whiteSpace=wrap;overflow=block;blockSpacing=1;html=1;fontSize=13;" parent="RWhxmAeCFr4lGcvdIDr7-206" vertex="1">
          <mxGeometry y="148" width="270" height="41" as="geometry" />
        </mxCell>
        <mxCell id="RWhxmAeCFr4lGcvdIDr7-234" parent="RWhxmAeCFr4lGcvdIDr7-205" />
        <mxCell id="RWhxmAeCFr4lGcvdIDr7-239" value="" style="group;dropTarget=0;pointerEvents=0;" parent="RWhxmAeCFr4lGcvdIDr7-234" vertex="1">
          <mxGeometry x="1055" y="40" width="640" height="44" as="geometry" />
        </mxCell>
        <UserObject label="%filename%" placeholders="1" lucidchartObjectId="kWBYl.rsL5rs" id="RWhxmAeCFr4lGcvdIDr7-240">
          <mxCell style="points=[[0.062,0.967,0],[0.946,0.967,0]];html=1;overflow=block;blockSpacing=1;whiteSpace=wrap;fontSize=19.7;fontColor=#a9afb8;fontStyle=1;align=center;spacingLeft=7;spacingRight=7;spacingTop=2;spacing=3;strokeOpacity=0;fillOpacity=0;rounded=1;absoluteArcSize=1;arcSize=12;fillColor=#ffffff;strokeWidth=1.5;" parent="RWhxmAeCFr4lGcvdIDr7-239" vertex="1">
            <mxGeometry width="640" height="31" as="geometry" />
          </mxCell>
        </UserObject>
        <UserObject label="%creatorName%  |  %date{mmmm d, yyyy}%" placeholders="1" lucidchartObjectId="kWBYolvidEkw" id="RWhxmAeCFr4lGcvdIDr7-241">
          <mxCell style="html=1;overflow=block;blockSpacing=1;whiteSpace=wrap;fontSize=11.5;fontColor=#a9afb8;align=center;spacingLeft=7;spacingRight=7;spacingTop=2;spacing=3;strokeOpacity=0;fillOpacity=0;rounded=1;absoluteArcSize=1;arcSize=12;fillColor=#ffffff;strokeWidth=1.5;" parent="RWhxmAeCFr4lGcvdIDr7-239" vertex="1">
            <mxGeometry y="30" width="640" height="14" as="geometry" />
          </mxCell>
        </UserObject>
        <UserObject label="" lucidchartObjectId="J2lc4CfqBbUZ" id="RWhxmAeCFr4lGcvdIDr7-200">
          <mxCell style="html=1;jettySize=18;whiteSpace=wrap;fontSize=13;strokeColor=#333333;strokeOpacity=100;strokeWidth=0.8;rounded=1;arcSize=24;edgeStyle=orthogonalEdgeStyle;startArrow=none;endArrow=none;" parent="1" source="RWhxmAeCFr4lGcvdIDr7-206" target="RWhxmAeCFr4lGcvdIDr7-99" edge="1">
            <mxGeometry x="-1" y="-85" width="100" height="100" relative="1" as="geometry">
              <Array as="points" />
              <mxPoint x="1040" y="180" as="sourcePoint" />
              <mxPoint x="-85" y="85" as="offset" />
              <mxPoint x="1337.5" y="488" as="targetPoint" />
            </mxGeometry>
          </mxCell>
        </UserObject>
        <mxCell id="RWhxmAeCFr4lGcvdIDr7-201" value="livré à" style="text;html=1;resizable=0;labelBackgroundColor=default;align=center;verticalAlign=middle;fontColor=#333333;fontSize=13;" parent="RWhxmAeCFr4lGcvdIDr7-200" vertex="1">
          <mxGeometry x="-0.12219373984894766" relative="1" as="geometry" />
        </mxCell>
        <mxCell id="G3wEhJ9jmSjg3kxrGfmC-4" parent="1" />
        <mxCell id="G3wEhJ9jmSjg3kxrGfmC-5" value="Chef" style="html=1;overflow=block;blockSpacing=1;swimlane;childLayout=stackLayout;horizontal=1;horizontalStack=0;resizeParent=1;resizeParentMax=0;resizeLast=0;collapsible=0;fontStyle=0;marginBottom=0;swimlaneFillColor=#ffffff;startSize=25;whiteSpace=wrap;fontSize=13;fontColor=#333333;align=center;spacing=0;strokeColor=#333333;strokeOpacity=100;fillOpacity=100;rounded=1;absoluteArcSize=1;arcSize=12;fillColor=#ffffff;strokeWidth=0.8;" parent="G3wEhJ9jmSjg3kxrGfmC-4" vertex="1">
          <mxGeometry x="680" y="820" width="270" height="96.25" as="geometry" />
        </mxCell>
        <mxCell id="G3wEhJ9jmSjg3kxrGfmC-6" value="+ specialité: string" style="part=1;html=1;resizeHeight=0;strokeColor=none;fillColor=none;verticalAlign=middle;spacingLeft=4;spacingRight=4;overflow=hidden;rotatable=0;points=[[0,0.5],[1,0.5]];portConstraint=eastwest;swimlaneFillColor=#ffffff;strokeOpacity=100;fillOpacity=100;whiteSpace=wrap;fontSize=13;fontColor=#333333;align=center;" parent="G3wEhJ9jmSjg3kxrGfmC-5" vertex="1">
          <mxGeometry y="25" width="270" height="46" as="geometry" />
        </mxCell>
        <mxCell id="G3wEhJ9jmSjg3kxrGfmC-7" value="" style="line;strokeWidth=1;fillColor=none;align=left;verticalAlign=middle;spacingTop=-1;spacingLeft=3;spacingRight=3;rotatable=0;labelPosition=right;points=[];portConstraint=eastwest;" parent="G3wEhJ9jmSjg3kxrGfmC-5" vertex="1">
          <mxGeometry y="71" width="270" height="8" as="geometry" />
        </mxCell>
        <mxCell id="G3wEhJ9jmSjg3kxrGfmC-8" value="" style="part=1;html=1;resizeHeight=0;strokeColor=none;fillColor=none;verticalAlign=middle;spacingLeft=4;spacingRight=4;overflow=hidden;rotatable=0;points=[[0,0.5],[1,0.5]];portConstraint=eastwest;swimlaneFillColor=#ffffff;strokeOpacity=100;fillOpacity=100;whiteSpace=wrap;fontSize=13;align=center;" parent="G3wEhJ9jmSjg3kxrGfmC-5" vertex="1">
          <mxGeometry y="79" width="270" height="17.25" as="geometry" />
        </mxCell>
        <UserObject label="" lucidchartObjectId="hbmcKppnz3ou" id="G3wEhJ9jmSjg3kxrGfmC-9">
          <mxCell style="html=1;jettySize=18;whiteSpace=wrap;fontSize=13;strokeColor=#333333;strokeOpacity=100;strokeWidth=0.8;rounded=1;arcSize=24;edgeStyle=orthogonalEdgeStyle;startArrow=none;endArrow=none;" parent="G3wEhJ9jmSjg3kxrGfmC-4" source="G3wEhJ9jmSjg3kxrGfmC-6" target="G3wEhJ9jmSjg3kxrGfmC-33" edge="1">
            <mxGeometry width="100" height="100" relative="1" as="geometry">
              <Array as="points">
                <mxPoint x="1310" y="868" />
                <mxPoint x="1310" y="870" />
              </Array>
              <mxPoint x="1330" y="910" as="targetPoint" />
              <mxPoint x="1010" y="820" as="sourcePoint" />
            </mxGeometry>
          </mxCell>
        </UserObject>
        <mxCell id="G3wEhJ9jmSjg3kxrGfmC-10" value="Prépare" style="text;html=1;resizable=0;labelBackgroundColor=default;align=center;verticalAlign=middle;fontColor=#333333;fontSize=13;" parent="G3wEhJ9jmSjg3kxrGfmC-9" vertex="1">
          <mxGeometry relative="1" as="geometry">
            <mxPoint y="-9" as="offset" />
          </mxGeometry>
        </mxCell>
        <mxCell id="G3wEhJ9jmSjg3kxrGfmC-11" value="1..*" style="text;html=1;resizable=0;labelBackgroundColor=default;align=center;verticalAlign=middle;fontSize=13;" parent="G3wEhJ9jmSjg3kxrGfmC-9" vertex="1">
          <mxGeometry x="0.6830807634235698" relative="1" as="geometry">
            <mxPoint x="20" y="-18" as="offset" />
          </mxGeometry>
        </mxCell>
        <mxCell id="G3wEhJ9jmSjg3kxrGfmC-12" value="1" style="edgeLabel;html=1;align=center;verticalAlign=middle;resizable=0;points=[];" parent="G3wEhJ9jmSjg3kxrGfmC-9" vertex="1" connectable="0">
          <mxGeometry x="-0.0861" y="3" relative="1" as="geometry">
            <mxPoint x="-100" y="14" as="offset" />
          </mxGeometry>
        </mxCell>
        <UserObject label="" lucidchartObjectId="EmTddqZ1q9em" id="G3wEhJ9jmSjg3kxrGfmC-13">
          <mxCell style="html=1;jettySize=18;whiteSpace=wrap;fontSize=13;strokeColor=#333333;strokeOpacity=100;strokeWidth=0.8;rounded=1;arcSize=24;edgeStyle=orthogonalEdgeStyle;startArrow=block;startFill=0;startSize=12;endArrow=none;entryX=-0.001;entryY=0.5;entryPerimeter=0;" parent="G3wEhJ9jmSjg3kxrGfmC-4" source="G3wEhJ9jmSjg3kxrGfmC-71" target="G3wEhJ9jmSjg3kxrGfmC-5" edge="1">
            <mxGeometry width="100" height="100" relative="1" as="geometry">
              <Array as="points" />
              <mxPoint x="410.27" y="498.875" as="sourcePoint" />
            </mxGeometry>
          </mxCell>
        </UserObject>
        <mxCell id="G3wEhJ9jmSjg3kxrGfmC-14" parent="G3wEhJ9jmSjg3kxrGfmC-4" />
        <mxCell id="G3wEhJ9jmSjg3kxrGfmC-15" value="Client" style="html=1;overflow=block;blockSpacing=1;swimlane;childLayout=stackLayout;horizontal=1;horizontalStack=0;resizeParent=1;resizeParentMax=0;resizeLast=0;collapsible=0;fontStyle=0;marginBottom=0;swimlaneFillColor=#ffffff;startSize=25;whiteSpace=wrap;fontSize=13;fontColor=#333333;align=center;spacing=0;strokeColor=#333333;strokeOpacity=100;fillOpacity=100;rounded=1;absoluteArcSize=1;arcSize=12;fillColor=#ffffff;strokeWidth=0.8;" parent="G3wEhJ9jmSjg3kxrGfmC-14" vertex="1">
          <mxGeometry x="680" y="270" width="270" height="72.25" as="geometry" />
        </mxCell>
        <mxCell id="G3wEhJ9jmSjg3kxrGfmC-16" value="-bankInformations: string" style="part=1;html=1;resizeHeight=0;strokeColor=none;fillColor=none;verticalAlign=middle;spacingLeft=4;spacingRight=4;overflow=hidden;rotatable=0;points=[[0,0.5],[1,0.5]];portConstraint=eastwest;swimlaneFillColor=#ffffff;strokeOpacity=100;fillOpacity=100;whiteSpace=wrap;fontSize=13;align=center;" parent="G3wEhJ9jmSjg3kxrGfmC-15" vertex="1">
          <mxGeometry y="25" width="270" height="25" as="geometry" />
        </mxCell>
        <mxCell id="G3wEhJ9jmSjg3kxrGfmC-17" value="" style="line;strokeWidth=1;fillColor=none;align=left;verticalAlign=middle;spacingTop=-1;spacingLeft=3;spacingRight=3;rotatable=0;labelPosition=right;points=[];portConstraint=eastwest;" parent="G3wEhJ9jmSjg3kxrGfmC-15" vertex="1">
          <mxGeometry y="50" width="270" height="8" as="geometry" />
        </mxCell>
        <mxCell id="G3wEhJ9jmSjg3kxrGfmC-18" value="" style="part=1;html=1;resizeHeight=0;strokeColor=none;fillColor=none;verticalAlign=middle;spacingLeft=4;spacingRight=4;overflow=hidden;rotatable=0;points=[[0,0.5],[1,0.5]];portConstraint=eastwest;swimlaneFillColor=#ffffff;strokeOpacity=100;fillOpacity=100;whiteSpace=wrap;fontSize=13;align=center;" parent="G3wEhJ9jmSjg3kxrGfmC-15" vertex="1">
          <mxGeometry y="58" width="270" height="14.25" as="geometry" />
        </mxCell>
        <mxCell id="G3wEhJ9jmSjg3kxrGfmC-20" value="" style="group;dropTarget=0;pointerEvents=0;" parent="G3wEhJ9jmSjg3kxrGfmC-14" vertex="1">
          <mxGeometry x="1055" y="40" width="640" height="44" as="geometry" />
        </mxCell>
        <UserObject label="%filename%" placeholders="1" lucidchartObjectId="kWBYl.rsL5rs" id="G3wEhJ9jmSjg3kxrGfmC-21">
          <mxCell style="points=[[0.062,0.967,0],[0.946,0.967,0]];html=1;overflow=block;blockSpacing=1;whiteSpace=wrap;fontSize=19.7;fontColor=#a9afb8;fontStyle=1;align=center;spacingLeft=7;spacingRight=7;spacingTop=2;spacing=3;strokeOpacity=0;fillOpacity=0;rounded=1;absoluteArcSize=1;arcSize=12;fillColor=#ffffff;strokeWidth=1.5;" parent="G3wEhJ9jmSjg3kxrGfmC-20" vertex="1">
            <mxGeometry width="640" height="31" as="geometry" />
          </mxCell>
        </UserObject>
        <UserObject label="%creatorName%  |  %date{mmmm d, yyyy}%" placeholders="1" lucidchartObjectId="kWBYolvidEkw" id="G3wEhJ9jmSjg3kxrGfmC-22">
          <mxCell style="html=1;overflow=block;blockSpacing=1;whiteSpace=wrap;fontSize=11.5;fontColor=#a9afb8;align=center;spacingLeft=7;spacingRight=7;spacingTop=2;spacing=3;strokeOpacity=0;fillOpacity=0;rounded=1;absoluteArcSize=1;arcSize=12;fillColor=#ffffff;strokeWidth=1.5;" parent="G3wEhJ9jmSjg3kxrGfmC-20" vertex="1">
            <mxGeometry y="30" width="640" height="14" as="geometry" />
          </mxCell>
        </UserObject>
        <mxCell id="G3wEhJ9jmSjg3kxrGfmC-23" parent="G3wEhJ9jmSjg3kxrGfmC-4" />
        <mxCell id="G3wEhJ9jmSjg3kxrGfmC-24" parent="G3wEhJ9jmSjg3kxrGfmC-23" />
        <mxCell id="G3wEhJ9jmSjg3kxrGfmC-25" value="" style="group;dropTarget=0;pointerEvents=0;" parent="G3wEhJ9jmSjg3kxrGfmC-24" vertex="1">
          <mxGeometry x="1055" y="40" width="640" height="44" as="geometry" />
        </mxCell>
        <UserObject label="%filename%" placeholders="1" lucidchartObjectId="kWBYl.rsL5rs" id="G3wEhJ9jmSjg3kxrGfmC-26">
          <mxCell style="points=[[0.062,0.967,0],[0.946,0.967,0]];html=1;overflow=block;blockSpacing=1;whiteSpace=wrap;fontSize=19.7;fontColor=#a9afb8;fontStyle=1;align=center;spacingLeft=7;spacingRight=7;spacingTop=2;spacing=3;strokeOpacity=0;fillOpacity=0;rounded=1;absoluteArcSize=1;arcSize=12;fillColor=#ffffff;strokeWidth=1.5;" parent="G3wEhJ9jmSjg3kxrGfmC-25" vertex="1">
            <mxGeometry width="640" height="31" as="geometry" />
          </mxCell>
        </UserObject>
        <UserObject label="%creatorName%  |  %date{mmmm d, yyyy}%" placeholders="1" lucidchartObjectId="kWBYolvidEkw" id="G3wEhJ9jmSjg3kxrGfmC-27">
          <mxCell style="html=1;overflow=block;blockSpacing=1;whiteSpace=wrap;fontSize=11.5;fontColor=#a9afb8;align=center;spacingLeft=7;spacingRight=7;spacingTop=2;spacing=3;strokeOpacity=0;fillOpacity=0;rounded=1;absoluteArcSize=1;arcSize=12;fillColor=#ffffff;strokeWidth=1.5;" parent="G3wEhJ9jmSjg3kxrGfmC-25" vertex="1">
            <mxGeometry y="30" width="640" height="14" as="geometry" />
          </mxCell>
        </UserObject>
        <mxCell id="G3wEhJ9jmSjg3kxrGfmC-28" parent="G3wEhJ9jmSjg3kxrGfmC-4" />
        <mxCell id="G3wEhJ9jmSjg3kxrGfmC-29" value="Livreur" style="html=1;overflow=block;blockSpacing=1;swimlane;childLayout=stackLayout;horizontal=1;horizontalStack=0;resizeParent=1;resizeParentMax=0;resizeLast=0;collapsible=0;fontStyle=0;marginBottom=0;swimlaneFillColor=#ffffff;startSize=25;whiteSpace=wrap;fontSize=13;fontColor=#333333;align=center;spacing=0;strokeColor=#333333;strokeOpacity=100;fillOpacity=100;rounded=1;absoluteArcSize=1;arcSize=12;fillColor=#ffffff;strokeWidth=0.8;" parent="G3wEhJ9jmSjg3kxrGfmC-28" vertex="1">
          <mxGeometry x="680" y="524" width="270" height="133.25" as="geometry" />
        </mxCell>
        <mxCell id="G3wEhJ9jmSjg3kxrGfmC-30" value="&lt;div style=&quot;display: flex; justify-content: center; text-align: center; align-items: baseline; font-size: 0; line-height: 1.25;margin-top: -2px;&quot;&gt;&lt;span&gt;&lt;span style=&quot;font-size:13px;color:#333333;&quot;&gt;+statut :string&lt;br&gt;&lt;/span&gt;&lt;/span&gt;&lt;/div&gt;&lt;div style=&quot;display: flex; justify-content: center; text-align: center; align-items: baseline; font-size: 0; line-height: 1.25;margin-top: -2px;&quot;&gt;&lt;span&gt;&lt;span style=&quot;font-size:13px;color:#333333;&quot;&gt;+lattitude: float&lt;br&gt;&lt;/span&gt;&lt;/span&gt;&lt;/div&gt;&lt;div style=&quot;display: flex; justify-content: center; text-align: center; align-items: baseline; font-size: 0; line-height: 1.25;margin-top: -2px;&quot;&gt;&lt;span&gt;&lt;span style=&quot;font-size:13px;color:#333333;&quot;&gt;+longitude:float&lt;/span&gt;&lt;/span&gt;&lt;/div&gt;" style="part=1;html=1;resizeHeight=0;strokeColor=none;fillColor=none;verticalAlign=middle;spacingLeft=4;spacingRight=4;overflow=hidden;rotatable=0;points=[[0,0.5],[1,0.5]];portConstraint=eastwest;swimlaneFillColor=#ffffff;strokeOpacity=100;fillOpacity=100;whiteSpace=wrap;fontSize=13;fontColor=#333333;align=center;" parent="G3wEhJ9jmSjg3kxrGfmC-29" vertex="1">
          <mxGeometry y="25" width="270" height="65" as="geometry" />
        </mxCell>
        <mxCell id="G3wEhJ9jmSjg3kxrGfmC-31" value="" style="line;strokeWidth=1;fillColor=none;align=left;verticalAlign=middle;spacingTop=-1;spacingLeft=3;spacingRight=3;rotatable=0;labelPosition=right;points=[];portConstraint=eastwest;" parent="G3wEhJ9jmSjg3kxrGfmC-29" vertex="1">
          <mxGeometry y="90" width="270" height="8" as="geometry" />
        </mxCell>
        <mxCell id="G3wEhJ9jmSjg3kxrGfmC-32" value="+positionLivreur():string" style="part=1;resizeHeight=0;strokeColor=none;fillColor=none;align=left;verticalAlign=middle;spacingLeft=4;spacingRight=4;rotatable=0;points=[[0,0.5],[1,0.5]];portConstraint=eastwest;swimlaneFillColor=#ffffff;strokeOpacity=100;fillOpacity=100;whiteSpace=wrap;overflow=block;blockSpacing=1;html=1;fontSize=13;" parent="G3wEhJ9jmSjg3kxrGfmC-29" vertex="1">
          <mxGeometry y="98" width="270" height="35.25" as="geometry" />
        </mxCell>
        <mxCell id="G3wEhJ9jmSjg3kxrGfmC-33" value="plat du jour" style="html=1;overflow=block;blockSpacing=1;swimlane;childLayout=stackLayout;horizontal=1;horizontalStack=0;resizeParent=1;resizeParentMax=0;resizeLast=0;collapsible=0;marginBottom=0;swimlaneFillColor=#ffffff;startSize=25;whiteSpace=wrap;fontSize=13;fontColor=#333333;fontStyle=2;align=center;spacing=0;strokeColor=#333333;strokeOpacity=100;fillOpacity=100;rounded=1;absoluteArcSize=1;arcSize=12;fillColor=#ffffff;strokeWidth=0.8;" parent="G3wEhJ9jmSjg3kxrGfmC-28" vertex="1">
          <mxGeometry x="1190" y="800" width="270" height="137.25" as="geometry" />
        </mxCell>
        <mxCell id="G3wEhJ9jmSjg3kxrGfmC-34" value="&lt;div style=&quot;display: flex; justify-content: center; text-align: center; align-items: baseline; font-size: 0; line-height: 1.25;margin-top: -2px;&quot;&gt;&lt;span&gt;&lt;span style=&quot;font-size:13px;color:#333333;&quot;&gt;+ nom : string&#xa;&lt;/span&gt;&lt;/span&gt;&lt;/div&gt;&lt;div style=&quot;display: flex; justify-content: center; text-align: center; align-items: baseline; font-size: 0; line-height: 1.25;margin-top: -2px;&quot;&gt;&lt;span&gt;&lt;span style=&quot;font-size:13px;color:#333333;&quot;&gt;+chef :string&#xa;&lt;/span&gt;&lt;/span&gt;&lt;/div&gt;&lt;div style=&quot;display: flex; justify-content: center; text-align: center; align-items: baseline; font-size: 0; line-height: 1.25;margin-top: -2px;&quot;&gt;&lt;span&gt;&lt;span style=&quot;font-size:13px;color:#333333;&quot;&gt;+ type : string&#xa;&lt;/span&gt;&lt;/span&gt;&lt;/div&gt;&lt;div style=&quot;display: flex; justify-content: center; text-align: center; align-items: baseline; font-size: 0; line-height: 1.25;margin-top: -2px;&quot;&gt;&lt;span&gt;&lt;span style=&quot;font-size:13px;color:#333333;&quot;&gt;+jour :date&#xa;&lt;/span&gt;&lt;/span&gt;&lt;/div&gt;&lt;div style=&quot;display: flex; justify-content: center; text-align: center; align-items: baseline; font-size: 0; line-height: 1.25;margin-top: -2px;&quot;&gt;&lt;span&gt;&lt;span style=&quot;font-size:13px;color:#333333;&quot;&gt;+prix :int&lt;/span&gt;&lt;/span&gt;&lt;/div&gt;" style="part=1;html=1;resizeHeight=0;strokeColor=none;fillColor=none;verticalAlign=middle;spacingLeft=4;spacingRight=4;overflow=hidden;rotatable=0;points=[[0,0.5],[1,0.5]];portConstraint=eastwest;swimlaneFillColor=#ffffff;strokeOpacity=100;fillOpacity=100;whiteSpace=wrap;fontSize=13;fontColor=#333333;align=center;" parent="G3wEhJ9jmSjg3kxrGfmC-33" vertex="1">
          <mxGeometry y="25" width="270" height="87" as="geometry" />
        </mxCell>
        <mxCell id="G3wEhJ9jmSjg3kxrGfmC-35" value="" style="line;strokeWidth=1;fillColor=none;align=left;verticalAlign=middle;spacingTop=-1;spacingLeft=3;spacingRight=3;rotatable=0;labelPosition=right;points=[];portConstraint=eastwest;" parent="G3wEhJ9jmSjg3kxrGfmC-33" vertex="1">
          <mxGeometry y="112" width="270" height="8" as="geometry" />
        </mxCell>
        <mxCell id="G3wEhJ9jmSjg3kxrGfmC-36" value="" style="part=1;resizeHeight=0;strokeColor=none;fillColor=none;align=left;verticalAlign=middle;spacingLeft=4;spacingRight=4;rotatable=0;points=[[0,0.5],[1,0.5]];portConstraint=eastwest;swimlaneFillColor=#ffffff;strokeOpacity=100;fillOpacity=100;whiteSpace=wrap;overflow=block;blockSpacing=1;html=1;fontSize=13;" parent="G3wEhJ9jmSjg3kxrGfmC-33" vertex="1">
          <mxGeometry y="120" width="270" height="17.25" as="geometry" />
        </mxCell>
        <mxCell id="G3wEhJ9jmSjg3kxrGfmC-37" value="Commande" style="html=1;overflow=block;blockSpacing=1;swimlane;childLayout=stackLayout;horizontal=1;horizontalStack=0;resizeParent=1;resizeParentMax=0;resizeLast=0;collapsible=0;fontStyle=0;marginBottom=0;swimlaneFillColor=#ffffff;startSize=25;whiteSpace=wrap;fontSize=13;fontColor=#333333;align=center;spacing=0;strokeColor=#333333;strokeOpacity=100;fillOpacity=100;rounded=1;absoluteArcSize=1;arcSize=12;fillColor=#ffffff;strokeWidth=0.8;" parent="G3wEhJ9jmSjg3kxrGfmC-28" vertex="1">
          <mxGeometry x="1150" y="508" width="375" height="165.25" as="geometry" />
        </mxCell>
        <mxCell id="G3wEhJ9jmSjg3kxrGfmC-38" value="&lt;div style=&quot;display: flex; justify-content: center; text-align: center; align-items: baseline; font-size: 0; line-height: 1.25;margin-top: -2px;&quot;&gt;&lt;span&gt;&lt;span style=&quot;font-size:13px;color:#333333;&quot;&gt;+dateCommande : date&lt;br&gt;&lt;/span&gt;&lt;/span&gt;&lt;/div&gt;&lt;div style=&quot;display: flex; justify-content: center; text-align: center; align-items: baseline; font-size: 0; line-height: 1.25;margin-top: -2px;&quot;&gt;&lt;span&gt;&lt;span style=&quot;font-size:13px;color:#333333;&quot;&gt;+livreur: string&lt;br&gt;&lt;/span&gt;&lt;/span&gt;&lt;/div&gt;&lt;div style=&quot;display: flex; justify-content: center; text-align: center; align-items: baseline; font-size: 0; line-height: 1.25;margin-top: -2px;&quot;&gt;&lt;span&gt;&lt;span style=&quot;font-size:13px;color:#333333;&quot;&gt;+status :string&amp;nbsp;&lt;br&gt;&lt;/span&gt;&lt;/span&gt;&lt;/div&gt;&lt;div style=&quot;display: flex; justify-content: center; text-align: center; align-items: baseline; font-size: 0; line-height: 1.25;margin-top: -2px;&quot;&gt;&lt;span&gt;&lt;span style=&quot;font-size:13px;color:#333333;&quot;&gt;+heureArrivé: int&lt;/span&gt;&lt;/span&gt;&lt;/div&gt;" style="part=1;html=1;resizeHeight=0;strokeColor=none;fillColor=none;verticalAlign=middle;spacingLeft=4;spacingRight=4;overflow=hidden;rotatable=0;points=[[0,0.5],[1,0.5]];portConstraint=eastwest;swimlaneFillColor=#ffffff;strokeOpacity=100;fillOpacity=100;whiteSpace=wrap;fontSize=13;fontColor=#333333;align=center;" parent="G3wEhJ9jmSjg3kxrGfmC-37" vertex="1">
          <mxGeometry y="25" width="375" height="79" as="geometry" />
        </mxCell>
        <mxCell id="G3wEhJ9jmSjg3kxrGfmC-39" value="" style="line;strokeWidth=1;fillColor=none;align=left;verticalAlign=middle;spacingTop=-1;spacingLeft=3;spacingRight=3;rotatable=0;labelPosition=right;points=[];portConstraint=eastwest;" parent="G3wEhJ9jmSjg3kxrGfmC-37" vertex="1">
          <mxGeometry y="104" width="375" height="8" as="geometry" />
        </mxCell>
        <mxCell id="G3wEhJ9jmSjg3kxrGfmC-40" value="&lt;div style=&quot;display: flex; justify-content: center; text-align: center; align-items: baseline; font-size: 0; line-height: 1.25;margin-top: -2px;&quot;&gt;&lt;span&gt;&lt;span style=&quot;font-size:13px;color:#333333;&quot;&gt;+ choixLivreur(positionAdresse,positionLivreur):string&#xa;&lt;/span&gt;&lt;/span&gt;&lt;/div&gt;&lt;div style=&quot;display: flex; justify-content: center; text-align: center; align-items: baseline; font-size: 0; line-height: 1.25;margin-top: -2px;&quot;&gt;&lt;span&gt;&lt;span style=&quot;font-size:13px;color:#333333;&quot;&gt;+ETA(positionAdresse,positionLivreur):date&lt;/span&gt;&lt;/span&gt;&lt;/div&gt;" style="part=1;resizeHeight=0;strokeColor=none;fillColor=none;align=left;verticalAlign=middle;spacingLeft=4;spacingRight=4;rotatable=0;points=[[0,0.5],[1,0.5]];portConstraint=eastwest;swimlaneFillColor=#ffffff;strokeOpacity=100;fillOpacity=100;whiteSpace=wrap;overflow=block;blockSpacing=1;html=1;fontSize=13;" parent="G3wEhJ9jmSjg3kxrGfmC-37" vertex="1">
          <mxGeometry y="112" width="375" height="53.25" as="geometry" />
        </mxCell>
        <UserObject label="" lucidchartObjectId="a3lcvIBLx3UH" id="G3wEhJ9jmSjg3kxrGfmC-41">
          <mxCell style="html=1;jettySize=18;whiteSpace=wrap;fontSize=13;strokeColor=#333333;strokeOpacity=100;strokeWidth=0.8;rounded=1;arcSize=24;edgeStyle=orthogonalEdgeStyle;startArrow=none;endArrow=none;" parent="G3wEhJ9jmSjg3kxrGfmC-28" source="G3wEhJ9jmSjg3kxrGfmC-29" target="G3wEhJ9jmSjg3kxrGfmC-37" edge="1">
            <mxGeometry width="100" height="100" relative="1" as="geometry">
              <Array as="points" />
            </mxGeometry>
          </mxCell>
        </UserObject>
        <mxCell id="G3wEhJ9jmSjg3kxrGfmC-42" value="livre" style="text;html=1;resizable=0;labelBackgroundColor=default;align=center;verticalAlign=middle;fontColor=#333333;fontSize=13;" parent="G3wEhJ9jmSjg3kxrGfmC-41" vertex="1">
          <mxGeometry relative="1" as="geometry">
            <mxPoint x="13" y="-8" as="offset" />
          </mxGeometry>
        </mxCell>
        <mxCell id="G3wEhJ9jmSjg3kxrGfmC-43" value="1" style="text;html=1;resizable=0;labelBackgroundColor=default;align=center;verticalAlign=middle;fontSize=13;" parent="G3wEhJ9jmSjg3kxrGfmC-41" vertex="1">
          <mxGeometry x="-0.9151700829390368" relative="1" as="geometry">
            <mxPoint x="2" y="13" as="offset" />
          </mxGeometry>
        </mxCell>
        <mxCell id="G3wEhJ9jmSjg3kxrGfmC-44" value="1..*" style="text;html=1;resizable=0;labelBackgroundColor=default;align=center;verticalAlign=middle;fontSize=13;" parent="G3wEhJ9jmSjg3kxrGfmC-41" vertex="1">
          <mxGeometry x="0.9281067332789912" relative="1" as="geometry">
            <mxPoint x="-13" y="13" as="offset" />
          </mxGeometry>
        </mxCell>
        <UserObject label="" lucidchartObjectId="R4lc5TQhlQKx" id="G3wEhJ9jmSjg3kxrGfmC-45">
          <mxCell style="html=1;jettySize=18;whiteSpace=wrap;fontSize=13;strokeColor=#333333;strokeOpacity=100;strokeWidth=0.8;rounded=1;arcSize=24;edgeStyle=orthogonalEdgeStyle;startArrow=none;endArrow=none;entryX=0.556;entryY=0.015;entryDx=0;entryDy=0;entryPerimeter=0;" parent="G3wEhJ9jmSjg3kxrGfmC-28" source="G3wEhJ9jmSjg3kxrGfmC-37" target="G3wEhJ9jmSjg3kxrGfmC-33" edge="1">
            <mxGeometry x="0.2637" y="-10" width="100" height="100" relative="1" as="geometry">
              <Array as="points" />
              <mxPoint x="1670" y="740" as="targetPoint" />
              <mxPoint as="offset" />
            </mxGeometry>
          </mxCell>
        </UserObject>
        <mxCell id="G3wEhJ9jmSjg3kxrGfmC-46" value="contient" style="text;html=1;resizable=0;labelBackgroundColor=default;align=center;verticalAlign=middle;fontColor=#333333;fontSize=13;" parent="G3wEhJ9jmSjg3kxrGfmC-45" vertex="1">
          <mxGeometry relative="1" as="geometry">
            <mxPoint y="3" as="offset" />
          </mxGeometry>
        </mxCell>
        <mxCell id="G3wEhJ9jmSjg3kxrGfmC-48" value="1..*" style="text;html=1;resizable=0;labelBackgroundColor=default;align=center;verticalAlign=middle;fontSize=13;" parent="G3wEhJ9jmSjg3kxrGfmC-45" vertex="1">
          <mxGeometry x="0.72704963356145" relative="1" as="geometry">
            <mxPoint x="21" y="-3" as="offset" />
          </mxGeometry>
        </mxCell>
        <mxCell id="G3wEhJ9jmSjg3kxrGfmC-51" parent="G3wEhJ9jmSjg3kxrGfmC-28" />
        <mxCell id="G3wEhJ9jmSjg3kxrGfmC-52" value="" style="group;dropTarget=0;pointerEvents=0;" parent="G3wEhJ9jmSjg3kxrGfmC-51" vertex="1">
          <mxGeometry x="1055" y="40" width="640" height="44" as="geometry" />
        </mxCell>
        <UserObject label="%filename%" placeholders="1" lucidchartObjectId="kWBYl.rsL5rs" id="G3wEhJ9jmSjg3kxrGfmC-53">
          <mxCell style="points=[[0.062,0.967,0],[0.946,0.967,0]];html=1;overflow=block;blockSpacing=1;whiteSpace=wrap;fontSize=19.7;fontColor=#a9afb8;fontStyle=1;align=center;spacingLeft=7;spacingRight=7;spacingTop=2;spacing=3;strokeOpacity=0;fillOpacity=0;rounded=1;absoluteArcSize=1;arcSize=12;fillColor=#ffffff;strokeWidth=1.5;" parent="G3wEhJ9jmSjg3kxrGfmC-52" vertex="1">
            <mxGeometry width="640" height="31" as="geometry" />
          </mxCell>
        </UserObject>
        <UserObject label="%creatorName%  |  %date{mmmm d, yyyy}%" placeholders="1" lucidchartObjectId="kWBYolvidEkw" id="G3wEhJ9jmSjg3kxrGfmC-54">
          <mxCell style="html=1;overflow=block;blockSpacing=1;whiteSpace=wrap;fontSize=11.5;fontColor=#a9afb8;align=center;spacingLeft=7;spacingRight=7;spacingTop=2;spacing=3;strokeOpacity=0;fillOpacity=0;rounded=1;absoluteArcSize=1;arcSize=12;fillColor=#ffffff;strokeWidth=1.5;" parent="G3wEhJ9jmSjg3kxrGfmC-52" vertex="1">
            <mxGeometry y="30" width="640" height="14" as="geometry" />
          </mxCell>
        </UserObject>
        <UserObject label="" lucidchartObjectId="TWlcJLq8VH~c" id="G3wEhJ9jmSjg3kxrGfmC-55">
          <mxCell style="html=1;jettySize=18;whiteSpace=wrap;fontSize=13;strokeColor=#333333;strokeOpacity=100;strokeWidth=0.8;rounded=1;arcSize=24;edgeStyle=orthogonalEdgeStyle;startArrow=diamond;startFill=1;startSize=16;endArrow=none;" parent="G3wEhJ9jmSjg3kxrGfmC-4" source="G3wEhJ9jmSjg3kxrGfmC-65" target="G3wEhJ9jmSjg3kxrGfmC-15" edge="1">
            <mxGeometry width="100" height="100" relative="1" as="geometry">
              <Array as="points" />
              <mxPoint x="960" y="292" as="targetPoint" />
              <mxPoint x="1140" y="360" as="sourcePoint" />
            </mxGeometry>
          </mxCell>
        </UserObject>
        <mxCell id="G3wEhJ9jmSjg3kxrGfmC-56" value="possède" style="text;html=1;resizable=0;labelBackgroundColor=default;align=center;verticalAlign=middle;fontColor=#333333;fontSize=13;" parent="G3wEhJ9jmSjg3kxrGfmC-55" vertex="1">
          <mxGeometry x="0.11853797826988632" relative="1" as="geometry">
            <mxPoint x="3" y="-12" as="offset" />
          </mxGeometry>
        </mxCell>
        <mxCell id="G3wEhJ9jmSjg3kxrGfmC-57" value="1..*" style="text;html=1;resizable=0;labelBackgroundColor=default;align=center;verticalAlign=middle;fontSize=13;" parent="G3wEhJ9jmSjg3kxrGfmC-55" vertex="1">
          <mxGeometry x="-1" relative="1" as="geometry">
            <mxPoint x="-22" y="17" as="offset" />
          </mxGeometry>
        </mxCell>
        <mxCell id="G3wEhJ9jmSjg3kxrGfmC-58" value="1" style="text;html=1;resizable=0;labelBackgroundColor=default;align=center;verticalAlign=middle;fontSize=13;" parent="G3wEhJ9jmSjg3kxrGfmC-55" vertex="1">
          <mxGeometry x="1" relative="1" as="geometry">
            <mxPoint x="10" y="18" as="offset" />
          </mxGeometry>
        </mxCell>
        <mxCell id="G3wEhJ9jmSjg3kxrGfmC-59" parent="G3wEhJ9jmSjg3kxrGfmC-4" />
        <mxCell id="G3wEhJ9jmSjg3kxrGfmC-60" parent="G3wEhJ9jmSjg3kxrGfmC-59" />
        <mxCell id="G3wEhJ9jmSjg3kxrGfmC-61" value="" style="group;dropTarget=0;pointerEvents=0;" parent="G3wEhJ9jmSjg3kxrGfmC-60" vertex="1">
          <mxGeometry x="1055" y="40" width="640" height="44" as="geometry" />
        </mxCell>
        <UserObject label="%filename%" placeholders="1" lucidchartObjectId="kWBYl.rsL5rs" id="G3wEhJ9jmSjg3kxrGfmC-62">
          <mxCell style="points=[[0.062,0.967,0],[0.946,0.967,0]];html=1;overflow=block;blockSpacing=1;whiteSpace=wrap;fontSize=19.7;fontColor=#a9afb8;fontStyle=1;align=center;spacingLeft=7;spacingRight=7;spacingTop=2;spacing=3;strokeOpacity=0;fillOpacity=0;rounded=1;absoluteArcSize=1;arcSize=12;fillColor=#ffffff;strokeWidth=1.5;" parent="G3wEhJ9jmSjg3kxrGfmC-61" vertex="1">
            <mxGeometry width="640" height="31" as="geometry" />
          </mxCell>
        </UserObject>
        <UserObject label="%creatorName%  |  %date{mmmm d, yyyy}%" placeholders="1" lucidchartObjectId="kWBYolvidEkw" id="G3wEhJ9jmSjg3kxrGfmC-63">
          <mxCell style="html=1;overflow=block;blockSpacing=1;whiteSpace=wrap;fontSize=11.5;fontColor=#a9afb8;align=center;spacingLeft=7;spacingRight=7;spacingTop=2;spacing=3;strokeOpacity=0;fillOpacity=0;rounded=1;absoluteArcSize=1;arcSize=12;fillColor=#ffffff;strokeWidth=1.5;" parent="G3wEhJ9jmSjg3kxrGfmC-61" vertex="1">
            <mxGeometry y="30" width="640" height="14" as="geometry" />
          </mxCell>
        </UserObject>
        <mxCell id="G3wEhJ9jmSjg3kxrGfmC-64" parent="G3wEhJ9jmSjg3kxrGfmC-4" />
        <mxCell id="G3wEhJ9jmSjg3kxrGfmC-65" value="Adresse" style="html=1;overflow=block;blockSpacing=1;swimlane;childLayout=stackLayout;horizontal=1;horizontalStack=0;resizeParent=1;resizeParentMax=0;resizeLast=0;collapsible=0;fontStyle=0;marginBottom=0;swimlaneFillColor=#ffffff;startSize=25;whiteSpace=wrap;fontSize=13;fontColor=#333333;align=center;spacing=0;strokeColor=#333333;strokeOpacity=100;fillOpacity=100;rounded=1;absoluteArcSize=1;arcSize=12;fillColor=#ffffff;strokeWidth=0.8;" parent="G3wEhJ9jmSjg3kxrGfmC-64" vertex="1">
          <mxGeometry x="1202.5" y="211.63" width="270" height="189" as="geometry" />
        </mxCell>
        <mxCell id="G3wEhJ9jmSjg3kxrGfmC-66" value="&lt;div style=&quot;display: flex; justify-content: center; text-align: center; align-items: baseline; font-size: 0; line-height: 1.25;margin-top: -2px;&quot;&gt;&lt;span&gt;&lt;span style=&quot;font-size:13px;color:#333333;&quot;&gt;numero: int&#xa;&lt;/span&gt;&lt;/span&gt;&lt;/div&gt;&lt;div style=&quot;display: flex; justify-content: center; text-align: center; align-items: baseline; font-size: 0; line-height: 1.25;margin-top: -2px;&quot;&gt;&lt;span&gt;&lt;span style=&quot;font-size:13px;color:#333333;&quot;&gt;modificateur:varchar(4)&#xa;&lt;/span&gt;&lt;/span&gt;&lt;/div&gt;&lt;div style=&quot;display: flex; justify-content: center; text-align: center; align-items: baseline; font-size: 0; line-height: 1.25;margin-top: -2px;&quot;&gt;&lt;span&gt;&lt;span style=&quot;font-size:13px;color:#333333;&quot;&gt;rue:string&#xa;&lt;/span&gt;&lt;/span&gt;&lt;/div&gt;&lt;div style=&quot;display: flex; justify-content: center; text-align: center; align-items: baseline; font-size: 0; line-height: 1.25;margin-top: -2px;&quot;&gt;&lt;span&gt;&lt;span style=&quot;font-size:13px;color:#333333;&quot;&gt;ville: string&#xa;&lt;/span&gt;&lt;/span&gt;&lt;/div&gt;&lt;div style=&quot;display: flex; justify-content: center; text-align: center; align-items: baseline; font-size: 0; line-height: 1.25;margin-top: -2px;&quot;&gt;&lt;span&gt;&lt;span style=&quot;font-size:13px;color:#333333;&quot;&gt;code postal: varchar(5)&#xa;&lt;/span&gt;&lt;/span&gt;&lt;/div&gt;&lt;div style=&quot;display: flex; justify-content: center; text-align: center; align-items: baseline; font-size: 0; line-height: 1.25;margin-top: -2px;&quot;&gt;&lt;span&gt;&lt;span style=&quot;font-size:13px;color:#333333;&quot;&gt;longitude: float&#xa;&lt;/span&gt;&lt;/span&gt;&lt;/div&gt;&lt;div style=&quot;display: flex; justify-content: center; text-align: center; align-items: baseline; font-size: 0; line-height: 1.25;margin-top: -2px;&quot;&gt;&lt;span&gt;&lt;span style=&quot;font-size:13px;color:#333333;&quot;&gt;lattitude:float&#xa;&lt;/span&gt;&lt;/span&gt;&lt;/div&gt;&lt;div style=&quot;display: flex; justify-content: center; text-align: center; align-items: baseline; font-size: 0; line-height: 1.25;margin-top: -2px;&quot;&gt;&lt;span&gt;&lt;span style=&quot;font-size:13px;color:#333333;&quot;&gt;&#xa;&lt;/span&gt;&lt;/span&gt;&lt;/div&gt;&lt;div style=&quot;display: flex; justify-content: center; text-align: center; align-items: baseline; font-size: 0; line-height: 1.25;margin-top: -2px;&quot;&gt;&lt;span&gt;&lt;/span&gt;&lt;/div&gt;" style="part=1;html=1;resizeHeight=0;strokeColor=none;fillColor=none;verticalAlign=middle;spacingLeft=4;spacingRight=4;overflow=hidden;rotatable=0;points=[[0,0.5],[1,0.5]];portConstraint=eastwest;swimlaneFillColor=#ffffff;strokeOpacity=100;fillOpacity=100;whiteSpace=wrap;fontSize=13;fontColor=#333333;align=center;" parent="G3wEhJ9jmSjg3kxrGfmC-65" vertex="1">
          <mxGeometry y="25" width="270" height="115" as="geometry" />
        </mxCell>
        <mxCell id="G3wEhJ9jmSjg3kxrGfmC-67" value="" style="line;strokeWidth=1;fillColor=none;align=left;verticalAlign=middle;spacingTop=-1;spacingLeft=3;spacingRight=3;rotatable=0;labelPosition=right;points=[];portConstraint=eastwest;" parent="G3wEhJ9jmSjg3kxrGfmC-65" vertex="1">
          <mxGeometry y="140" width="270" height="8" as="geometry" />
        </mxCell>
        <mxCell id="G3wEhJ9jmSjg3kxrGfmC-68" value="+ positionAdresse():string" style="part=1;resizeHeight=0;strokeColor=none;fillColor=none;align=left;verticalAlign=middle;spacingLeft=4;spacingRight=4;rotatable=0;points=[[0,0.5],[1,0.5]];portConstraint=eastwest;swimlaneFillColor=#ffffff;strokeOpacity=100;fillOpacity=100;whiteSpace=wrap;overflow=block;blockSpacing=1;html=1;fontSize=13;" parent="G3wEhJ9jmSjg3kxrGfmC-65" vertex="1">
          <mxGeometry y="148" width="270" height="41" as="geometry" />
        </mxCell>
        <mxCell id="G3wEhJ9jmSjg3kxrGfmC-69" parent="G3wEhJ9jmSjg3kxrGfmC-64" />
        <mxCell id="G3wEhJ9jmSjg3kxrGfmC-70" value="User" style="html=1;overflow=block;blockSpacing=1;swimlane;childLayout=stackLayout;horizontal=1;horizontalStack=0;resizeParent=1;resizeParentMax=0;resizeLast=0;collapsible=0;fontStyle=0;marginBottom=0;swimlaneFillColor=#ffffff;startSize=25;whiteSpace=wrap;fontSize=13;fontColor=#333333;align=center;spacing=0;strokeColor=#333333;strokeOpacity=100;fillOpacity=100;rounded=1;absoluteArcSize=1;arcSize=12;fillColor=#ffffff;strokeWidth=0.8;" parent="G3wEhJ9jmSjg3kxrGfmC-69" vertex="1">
          <mxGeometry x="310" y="370" width="270" height="133.25" as="geometry" />
        </mxCell>
        <mxCell id="G3wEhJ9jmSjg3kxrGfmC-71" value="&lt;div style=&quot;display: flex; justify-content: center; text-align: center; align-items: baseline; font-size: 0; line-height: 1.25;margin-top: -2px;&quot;&gt;&lt;span&gt;&lt;span style=&quot;font-size:13px;color:#333333;&quot;&gt;-password:string&lt;br&gt;&lt;/span&gt;&lt;/span&gt;&lt;/div&gt;&lt;div style=&quot;display: flex; justify-content: center; text-align: center; align-items: baseline; font-size: 0; line-height: 1.25;margin-top: -2px;&quot;&gt;&lt;span&gt;&lt;span style=&quot;font-size:13px;color:#333333;&quot;&gt;-username:string&lt;br&gt;&lt;/span&gt;&lt;/span&gt;&lt;/div&gt;&lt;div style=&quot;display: flex; justify-content: center; text-align: center; align-items: baseline; font-size: 0; line-height: 1.25;margin-top: -2px;&quot;&gt;&lt;span&gt;&lt;span style=&quot;font-size:13px;color:#333333;&quot;&gt;+name&lt;br&gt;&lt;/span&gt;&lt;/span&gt;&lt;/div&gt;&lt;div style=&quot;display: flex; justify-content: center; text-align: center; align-items: baseline; font-size: 0; line-height: 1.25;margin-top: -2px;&quot;&gt;&lt;span&gt;&lt;br&gt;&lt;/span&gt;&lt;/div&gt;" style="part=1;html=1;resizeHeight=0;strokeColor=none;fillColor=none;verticalAlign=middle;spacingLeft=4;spacingRight=4;overflow=hidden;rotatable=0;points=[[0,0.5],[1,0.5]];portConstraint=eastwest;swimlaneFillColor=#ffffff;strokeOpacity=100;fillOpacity=100;whiteSpace=wrap;fontSize=13;fontColor=#333333;align=center;" parent="G3wEhJ9jmSjg3kxrGfmC-70" vertex="1">
          <mxGeometry y="25" width="270" height="79" as="geometry" />
        </mxCell>
        <mxCell id="G3wEhJ9jmSjg3kxrGfmC-72" value="" style="line;strokeWidth=1;fillColor=none;align=left;verticalAlign=middle;spacingTop=-1;spacingLeft=3;spacingRight=3;rotatable=0;labelPosition=right;points=[];portConstraint=eastwest;" parent="G3wEhJ9jmSjg3kxrGfmC-70" vertex="1">
          <mxGeometry y="104" width="270" height="8" as="geometry" />
        </mxCell>
        <mxCell id="G3wEhJ9jmSjg3kxrGfmC-73" value="" style="part=1;resizeHeight=0;strokeColor=none;fillColor=none;align=left;verticalAlign=middle;spacingLeft=4;spacingRight=4;rotatable=0;points=[[0,0.5],[1,0.5]];portConstraint=eastwest;swimlaneFillColor=#ffffff;strokeOpacity=100;fillOpacity=100;whiteSpace=wrap;overflow=block;blockSpacing=1;html=1;fontSize=13;" parent="G3wEhJ9jmSjg3kxrGfmC-70" vertex="1">
          <mxGeometry y="112" width="270" height="21.25" as="geometry" />
        </mxCell>
        <mxCell id="G3wEhJ9jmSjg3kxrGfmC-74" value="" style="group;dropTarget=0;pointerEvents=0;" parent="G3wEhJ9jmSjg3kxrGfmC-69" vertex="1">
          <mxGeometry x="1055" y="40" width="640" height="44" as="geometry" />
        </mxCell>
        <UserObject label="%filename%" placeholders="1" lucidchartObjectId="kWBYl.rsL5rs" id="G3wEhJ9jmSjg3kxrGfmC-75">
          <mxCell style="points=[[0.062,0.967,0],[0.946,0.967,0]];html=1;overflow=block;blockSpacing=1;whiteSpace=wrap;fontSize=19.7;fontColor=#a9afb8;fontStyle=1;align=center;spacingLeft=7;spacingRight=7;spacingTop=2;spacing=3;strokeOpacity=0;fillOpacity=0;rounded=1;absoluteArcSize=1;arcSize=12;fillColor=#ffffff;strokeWidth=1.5;" parent="G3wEhJ9jmSjg3kxrGfmC-74" vertex="1">
            <mxGeometry width="640" height="31" as="geometry" />
          </mxCell>
        </UserObject>
        <UserObject label="%creatorName%  |  %date{mmmm d, yyyy}%" placeholders="1" lucidchartObjectId="kWBYolvidEkw" id="G3wEhJ9jmSjg3kxrGfmC-76">
          <mxCell style="html=1;overflow=block;blockSpacing=1;whiteSpace=wrap;fontSize=11.5;fontColor=#a9afb8;align=center;spacingLeft=7;spacingRight=7;spacingTop=2;spacing=3;strokeOpacity=0;fillOpacity=0;rounded=1;absoluteArcSize=1;arcSize=12;fillColor=#ffffff;strokeWidth=1.5;" parent="G3wEhJ9jmSjg3kxrGfmC-74" vertex="1">
            <mxGeometry y="30" width="640" height="14" as="geometry" />
          </mxCell>
        </UserObject>
        <UserObject label="" lucidchartObjectId="J2lc4CfqBbUZ" id="G3wEhJ9jmSjg3kxrGfmC-77">
          <mxCell style="html=1;jettySize=18;whiteSpace=wrap;fontSize=13;strokeColor=#333333;strokeOpacity=100;strokeWidth=0.8;rounded=1;arcSize=24;edgeStyle=orthogonalEdgeStyle;startArrow=none;endArrow=none;" parent="G3wEhJ9jmSjg3kxrGfmC-4" source="G3wEhJ9jmSjg3kxrGfmC-65" target="G3wEhJ9jmSjg3kxrGfmC-37" edge="1">
            <mxGeometry x="-1" y="-85" width="100" height="100" relative="1" as="geometry">
              <Array as="points" />
              <mxPoint x="1040" y="180" as="sourcePoint" />
              <mxPoint x="-85" y="85" as="offset" />
              <mxPoint x="1337.5" y="488" as="targetPoint" />
            </mxGeometry>
          </mxCell>
        </UserObject>
        <mxCell id="G3wEhJ9jmSjg3kxrGfmC-78" value="livré à" style="text;html=1;resizable=0;labelBackgroundColor=default;align=center;verticalAlign=middle;fontColor=#333333;fontSize=13;" parent="G3wEhJ9jmSjg3kxrGfmC-77" vertex="1">
          <mxGeometry x="-0.12219373984894766" relative="1" as="geometry" />
        </mxCell>
        <mxCell id="G3wEhJ9jmSjg3kxrGfmC-49" style="edgeStyle=orthogonalEdgeStyle;rounded=0;orthogonalLoop=1;jettySize=auto;html=1;exitX=0;exitY=0;exitDx=0;exitDy=0;" parent="G3wEhJ9jmSjg3kxrGfmC-4" source="G3wEhJ9jmSjg3kxrGfmC-46" target="G3wEhJ9jmSjg3kxrGfmC-59" edge="1">
          <mxGeometry relative="1" as="geometry" />
        </mxCell>
        <UserObject label="" lucidchartObjectId="AlTd7m5eC5IK" id="G3wEhJ9jmSjg3kxrGfmC-50">
          <mxCell style="html=1;jettySize=18;whiteSpace=wrap;fontSize=13;strokeColor=#333333;strokeOpacity=100;strokeWidth=0.8;rounded=1;arcSize=24;edgeStyle=orthogonalEdgeStyle;startArrow=none;endArrow=none;entryX=-0.001;entryY=0.5;entryPerimeter=0;" parent="G3wEhJ9jmSjg3kxrGfmC-4" source="G3wEhJ9jmSjg3kxrGfmC-71" target="G3wEhJ9jmSjg3kxrGfmC-29" edge="1">
            <mxGeometry width="100" height="100" relative="1" as="geometry">
              <Array as="points" />
              <mxPoint x="410.27" y="498.875" as="sourcePoint" />
            </mxGeometry>
          </mxCell>
        </UserObject>
        <mxCell id="G3wEhJ9jmSjg3kxrGfmC-82" parent="1" />
        <mxCell id="G3wEhJ9jmSjg3kxrGfmC-83" value="Chef" style="html=1;overflow=block;blockSpacing=1;swimlane;childLayout=stackLayout;horizontal=1;horizontalStack=0;resizeParent=1;resizeParentMax=0;resizeLast=0;collapsible=0;fontStyle=0;marginBottom=0;swimlaneFillColor=#ffffff;startSize=25;whiteSpace=wrap;fontSize=13;fontColor=#333333;align=center;spacing=0;strokeColor=#333333;strokeOpacity=100;fillOpacity=100;rounded=1;absoluteArcSize=1;arcSize=12;fillColor=#ffffff;strokeWidth=0.8;" parent="G3wEhJ9jmSjg3kxrGfmC-82" vertex="1">
          <mxGeometry x="680" y="820" width="270" height="96.25" as="geometry" />
        </mxCell>
        <mxCell id="G3wEhJ9jmSjg3kxrGfmC-84" value="+ specialité: string" style="part=1;html=1;resizeHeight=0;strokeColor=none;fillColor=none;verticalAlign=middle;spacingLeft=4;spacingRight=4;overflow=hidden;rotatable=0;points=[[0,0.5],[1,0.5]];portConstraint=eastwest;swimlaneFillColor=#ffffff;strokeOpacity=100;fillOpacity=100;whiteSpace=wrap;fontSize=13;fontColor=#333333;align=center;" parent="G3wEhJ9jmSjg3kxrGfmC-83" vertex="1">
          <mxGeometry y="25" width="270" height="46" as="geometry" />
        </mxCell>
        <mxCell id="G3wEhJ9jmSjg3kxrGfmC-85" value="" style="line;strokeWidth=1;fillColor=none;align=left;verticalAlign=middle;spacingTop=-1;spacingLeft=3;spacingRight=3;rotatable=0;labelPosition=right;points=[];portConstraint=eastwest;" parent="G3wEhJ9jmSjg3kxrGfmC-83" vertex="1">
          <mxGeometry y="71" width="270" height="8" as="geometry" />
        </mxCell>
        <mxCell id="G3wEhJ9jmSjg3kxrGfmC-86" value="" style="part=1;html=1;resizeHeight=0;strokeColor=none;fillColor=none;verticalAlign=middle;spacingLeft=4;spacingRight=4;overflow=hidden;rotatable=0;points=[[0,0.5],[1,0.5]];portConstraint=eastwest;swimlaneFillColor=#ffffff;strokeOpacity=100;fillOpacity=100;whiteSpace=wrap;fontSize=13;align=center;" parent="G3wEhJ9jmSjg3kxrGfmC-83" vertex="1">
          <mxGeometry y="79" width="270" height="17.25" as="geometry" />
        </mxCell>
        <UserObject label="" lucidchartObjectId="hbmcKppnz3ou" id="G3wEhJ9jmSjg3kxrGfmC-87">
          <mxCell style="html=1;jettySize=18;whiteSpace=wrap;fontSize=13;strokeColor=#333333;strokeOpacity=100;strokeWidth=0.8;rounded=1;arcSize=24;edgeStyle=orthogonalEdgeStyle;startArrow=none;endArrow=none;" parent="G3wEhJ9jmSjg3kxrGfmC-82" source="G3wEhJ9jmSjg3kxrGfmC-84" target="G3wEhJ9jmSjg3kxrGfmC-111" edge="1">
            <mxGeometry width="100" height="100" relative="1" as="geometry">
              <Array as="points">
                <mxPoint x="1310" y="868" />
                <mxPoint x="1310" y="870" />
              </Array>
              <mxPoint x="1330" y="910" as="targetPoint" />
              <mxPoint x="1010" y="820" as="sourcePoint" />
            </mxGeometry>
          </mxCell>
        </UserObject>
        <mxCell id="G3wEhJ9jmSjg3kxrGfmC-88" value="Prépare" style="text;html=1;resizable=0;labelBackgroundColor=default;align=center;verticalAlign=middle;fontColor=#333333;fontSize=13;" parent="G3wEhJ9jmSjg3kxrGfmC-87" vertex="1">
          <mxGeometry relative="1" as="geometry">
            <mxPoint y="-9" as="offset" />
          </mxGeometry>
        </mxCell>
        <mxCell id="G3wEhJ9jmSjg3kxrGfmC-89" value="1..*" style="text;html=1;resizable=0;labelBackgroundColor=default;align=center;verticalAlign=middle;fontSize=13;" parent="G3wEhJ9jmSjg3kxrGfmC-87" vertex="1">
          <mxGeometry x="0.6830807634235698" relative="1" as="geometry">
            <mxPoint x="20" y="-18" as="offset" />
          </mxGeometry>
        </mxCell>
        <mxCell id="G3wEhJ9jmSjg3kxrGfmC-90" value="1" style="edgeLabel;html=1;align=center;verticalAlign=middle;resizable=0;points=[];" parent="G3wEhJ9jmSjg3kxrGfmC-87" vertex="1" connectable="0">
          <mxGeometry x="-0.0861" y="3" relative="1" as="geometry">
            <mxPoint x="-100" y="14" as="offset" />
          </mxGeometry>
        </mxCell>
        <mxCell id="G3wEhJ9jmSjg3kxrGfmC-92" parent="G3wEhJ9jmSjg3kxrGfmC-82" />
        <mxCell id="G3wEhJ9jmSjg3kxrGfmC-93" value="Client" style="html=1;overflow=block;blockSpacing=1;swimlane;childLayout=stackLayout;horizontal=1;horizontalStack=0;resizeParent=1;resizeParentMax=0;resizeLast=0;collapsible=0;fontStyle=0;marginBottom=0;swimlaneFillColor=#ffffff;startSize=25;whiteSpace=wrap;fontSize=13;fontColor=#333333;align=center;spacing=0;strokeColor=#333333;strokeOpacity=100;fillOpacity=100;rounded=1;absoluteArcSize=1;arcSize=12;fillColor=#ffffff;strokeWidth=0.8;" parent="G3wEhJ9jmSjg3kxrGfmC-92" vertex="1">
          <mxGeometry x="680" y="270" width="270" height="72.25" as="geometry" />
        </mxCell>
        <mxCell id="G3wEhJ9jmSjg3kxrGfmC-94" value="-bankInformations: string" style="part=1;html=1;resizeHeight=0;strokeColor=none;fillColor=none;verticalAlign=middle;spacingLeft=4;spacingRight=4;overflow=hidden;rotatable=0;points=[[0,0.5],[1,0.5]];portConstraint=eastwest;swimlaneFillColor=#ffffff;strokeOpacity=100;fillOpacity=100;whiteSpace=wrap;fontSize=13;align=center;" parent="G3wEhJ9jmSjg3kxrGfmC-93" vertex="1">
          <mxGeometry y="25" width="270" height="25" as="geometry" />
        </mxCell>
        <mxCell id="G3wEhJ9jmSjg3kxrGfmC-95" value="" style="line;strokeWidth=1;fillColor=none;align=left;verticalAlign=middle;spacingTop=-1;spacingLeft=3;spacingRight=3;rotatable=0;labelPosition=right;points=[];portConstraint=eastwest;" parent="G3wEhJ9jmSjg3kxrGfmC-93" vertex="1">
          <mxGeometry y="50" width="270" height="8" as="geometry" />
        </mxCell>
        <mxCell id="G3wEhJ9jmSjg3kxrGfmC-96" value="" style="part=1;html=1;resizeHeight=0;strokeColor=none;fillColor=none;verticalAlign=middle;spacingLeft=4;spacingRight=4;overflow=hidden;rotatable=0;points=[[0,0.5],[1,0.5]];portConstraint=eastwest;swimlaneFillColor=#ffffff;strokeOpacity=100;fillOpacity=100;whiteSpace=wrap;fontSize=13;align=center;" parent="G3wEhJ9jmSjg3kxrGfmC-93" vertex="1">
          <mxGeometry y="58" width="270" height="14.25" as="geometry" />
        </mxCell>
        <mxCell id="G3wEhJ9jmSjg3kxrGfmC-98" value="" style="group;dropTarget=0;pointerEvents=0;" parent="G3wEhJ9jmSjg3kxrGfmC-92" vertex="1">
          <mxGeometry x="1055" y="40" width="640" height="44" as="geometry" />
        </mxCell>
        <UserObject label="%filename%" placeholders="1" lucidchartObjectId="kWBYl.rsL5rs" id="G3wEhJ9jmSjg3kxrGfmC-99">
          <mxCell style="points=[[0.062,0.967,0],[0.946,0.967,0]];html=1;overflow=block;blockSpacing=1;whiteSpace=wrap;fontSize=19.7;fontColor=#a9afb8;fontStyle=1;align=center;spacingLeft=7;spacingRight=7;spacingTop=2;spacing=3;strokeOpacity=0;fillOpacity=0;rounded=1;absoluteArcSize=1;arcSize=12;fillColor=#ffffff;strokeWidth=1.5;" parent="G3wEhJ9jmSjg3kxrGfmC-98" vertex="1">
            <mxGeometry width="640" height="31" as="geometry" />
          </mxCell>
        </UserObject>
        <UserObject label="%creatorName%  |  %date{mmmm d, yyyy}%" placeholders="1" lucidchartObjectId="kWBYolvidEkw" id="G3wEhJ9jmSjg3kxrGfmC-100">
          <mxCell style="html=1;overflow=block;blockSpacing=1;whiteSpace=wrap;fontSize=11.5;fontColor=#a9afb8;align=center;spacingLeft=7;spacingRight=7;spacingTop=2;spacing=3;strokeOpacity=0;fillOpacity=0;rounded=1;absoluteArcSize=1;arcSize=12;fillColor=#ffffff;strokeWidth=1.5;" parent="G3wEhJ9jmSjg3kxrGfmC-98" vertex="1">
            <mxGeometry y="30" width="640" height="14" as="geometry" />
          </mxCell>
        </UserObject>
        <mxCell id="G3wEhJ9jmSjg3kxrGfmC-101" parent="G3wEhJ9jmSjg3kxrGfmC-82" />
        <mxCell id="G3wEhJ9jmSjg3kxrGfmC-102" parent="G3wEhJ9jmSjg3kxrGfmC-101" />
        <mxCell id="G3wEhJ9jmSjg3kxrGfmC-103" value="" style="group;dropTarget=0;pointerEvents=0;" parent="G3wEhJ9jmSjg3kxrGfmC-102" vertex="1">
          <mxGeometry x="1055" y="40" width="640" height="44" as="geometry" />
        </mxCell>
        <UserObject label="%filename%" placeholders="1" lucidchartObjectId="kWBYl.rsL5rs" id="G3wEhJ9jmSjg3kxrGfmC-104">
          <mxCell style="points=[[0.062,0.967,0],[0.946,0.967,0]];html=1;overflow=block;blockSpacing=1;whiteSpace=wrap;fontSize=19.7;fontColor=#a9afb8;fontStyle=1;align=center;spacingLeft=7;spacingRight=7;spacingTop=2;spacing=3;strokeOpacity=0;fillOpacity=0;rounded=1;absoluteArcSize=1;arcSize=12;fillColor=#ffffff;strokeWidth=1.5;" parent="G3wEhJ9jmSjg3kxrGfmC-103" vertex="1">
            <mxGeometry width="640" height="31" as="geometry" />
          </mxCell>
        </UserObject>
        <UserObject label="%creatorName%  |  %date{mmmm d, yyyy}%" placeholders="1" lucidchartObjectId="kWBYolvidEkw" id="G3wEhJ9jmSjg3kxrGfmC-105">
          <mxCell style="html=1;overflow=block;blockSpacing=1;whiteSpace=wrap;fontSize=11.5;fontColor=#a9afb8;align=center;spacingLeft=7;spacingRight=7;spacingTop=2;spacing=3;strokeOpacity=0;fillOpacity=0;rounded=1;absoluteArcSize=1;arcSize=12;fillColor=#ffffff;strokeWidth=1.5;" parent="G3wEhJ9jmSjg3kxrGfmC-103" vertex="1">
            <mxGeometry y="30" width="640" height="14" as="geometry" />
          </mxCell>
        </UserObject>
        <mxCell id="G3wEhJ9jmSjg3kxrGfmC-106" parent="G3wEhJ9jmSjg3kxrGfmC-82" />
        <mxCell id="G3wEhJ9jmSjg3kxrGfmC-107" value="Livreur" style="html=1;overflow=block;blockSpacing=1;swimlane;childLayout=stackLayout;horizontal=1;horizontalStack=0;resizeParent=1;resizeParentMax=0;resizeLast=0;collapsible=0;fontStyle=0;marginBottom=0;swimlaneFillColor=#ffffff;startSize=25;whiteSpace=wrap;fontSize=13;fontColor=#333333;align=center;spacing=0;strokeColor=#333333;strokeOpacity=100;fillOpacity=100;rounded=1;absoluteArcSize=1;arcSize=12;fillColor=#ffffff;strokeWidth=0.8;" parent="G3wEhJ9jmSjg3kxrGfmC-106" vertex="1">
          <mxGeometry x="680" y="524" width="270" height="133.25" as="geometry" />
        </mxCell>
        <mxCell id="G3wEhJ9jmSjg3kxrGfmC-108" value="&lt;div style=&quot;display: flex; justify-content: center; text-align: center; align-items: baseline; font-size: 0; line-height: 1.25;margin-top: -2px;&quot;&gt;&lt;span&gt;&lt;span style=&quot;font-size:13px;color:#333333;&quot;&gt;+statut :string&lt;br&gt;&lt;/span&gt;&lt;/span&gt;&lt;/div&gt;&lt;div style=&quot;display: flex; justify-content: center; text-align: center; align-items: baseline; line-height: 1.25; margin-top: -2px;&quot;&gt;+latitude: float&lt;br&gt;&lt;/div&gt;&lt;div style=&quot;display: flex; justify-content: center; text-align: center; align-items: baseline; font-size: 0; line-height: 1.25;margin-top: -2px;&quot;&gt;&lt;span&gt;&lt;span style=&quot;font-size:13px;color:#333333;&quot;&gt;+longitude: float&lt;/span&gt;&lt;/span&gt;&lt;/div&gt;" style="part=1;html=1;resizeHeight=0;strokeColor=none;fillColor=none;verticalAlign=middle;spacingLeft=4;spacingRight=4;overflow=hidden;rotatable=0;points=[[0,0.5],[1,0.5]];portConstraint=eastwest;swimlaneFillColor=#ffffff;strokeOpacity=100;fillOpacity=100;whiteSpace=wrap;fontSize=13;fontColor=#333333;align=center;" parent="G3wEhJ9jmSjg3kxrGfmC-107" vertex="1">
          <mxGeometry y="25" width="270" height="65" as="geometry" />
        </mxCell>
        <mxCell id="G3wEhJ9jmSjg3kxrGfmC-109" value="" style="line;strokeWidth=1;fillColor=none;align=left;verticalAlign=middle;spacingTop=-1;spacingLeft=3;spacingRight=3;rotatable=0;labelPosition=right;points=[];portConstraint=eastwest;" parent="G3wEhJ9jmSjg3kxrGfmC-107" vertex="1">
          <mxGeometry y="90" width="270" height="8" as="geometry" />
        </mxCell>
        <mxCell id="G3wEhJ9jmSjg3kxrGfmC-110" value="+positionLivreur():string" style="part=1;resizeHeight=0;strokeColor=none;fillColor=none;align=left;verticalAlign=middle;spacingLeft=4;spacingRight=4;rotatable=0;points=[[0,0.5],[1,0.5]];portConstraint=eastwest;swimlaneFillColor=#ffffff;strokeOpacity=100;fillOpacity=100;whiteSpace=wrap;overflow=block;blockSpacing=1;html=1;fontSize=13;" parent="G3wEhJ9jmSjg3kxrGfmC-107" vertex="1">
          <mxGeometry y="98" width="270" height="35.25" as="geometry" />
        </mxCell>
        <mxCell id="G3wEhJ9jmSjg3kxrGfmC-111" value="plat du jour" style="html=1;overflow=block;blockSpacing=1;swimlane;childLayout=stackLayout;horizontal=1;horizontalStack=0;resizeParent=1;resizeParentMax=0;resizeLast=0;collapsible=0;marginBottom=0;swimlaneFillColor=#ffffff;startSize=25;whiteSpace=wrap;fontSize=13;fontColor=#333333;fontStyle=2;align=center;spacing=0;strokeColor=#333333;strokeOpacity=100;fillOpacity=100;rounded=1;absoluteArcSize=1;arcSize=12;fillColor=#ffffff;strokeWidth=0.8;" parent="G3wEhJ9jmSjg3kxrGfmC-106" vertex="1">
          <mxGeometry x="1190" y="800" width="270" height="137.25" as="geometry" />
        </mxCell>
        <mxCell id="G3wEhJ9jmSjg3kxrGfmC-112" value="&lt;div style=&quot;display: flex; justify-content: center; text-align: center; align-items: baseline; font-size: 0; line-height: 1.25;margin-top: -2px;&quot;&gt;&lt;span&gt;&lt;span style=&quot;font-size:13px;color:#333333;&quot;&gt;+ nom : string&#xa;&lt;/span&gt;&lt;/span&gt;&lt;/div&gt;&lt;div style=&quot;display: flex; justify-content: center; text-align: center; align-items: baseline; font-size: 0; line-height: 1.25;margin-top: -2px;&quot;&gt;&lt;span&gt;&lt;span style=&quot;font-size:13px;color:#333333;&quot;&gt;+chef :string&#xa;&lt;/span&gt;&lt;/span&gt;&lt;/div&gt;&lt;div style=&quot;display: flex; justify-content: center; text-align: center; align-items: baseline; font-size: 0; line-height: 1.25;margin-top: -2px;&quot;&gt;&lt;span&gt;&lt;span style=&quot;font-size:13px;color:#333333;&quot;&gt;+ type : string&#xa;&lt;/span&gt;&lt;/span&gt;&lt;/div&gt;&lt;div style=&quot;display: flex; justify-content: center; text-align: center; align-items: baseline; font-size: 0; line-height: 1.25;margin-top: -2px;&quot;&gt;&lt;span&gt;&lt;span style=&quot;font-size:13px;color:#333333;&quot;&gt;+jour :date&#xa;&lt;/span&gt;&lt;/span&gt;&lt;/div&gt;&lt;div style=&quot;display: flex; justify-content: center; text-align: center; align-items: baseline; font-size: 0; line-height: 1.25;margin-top: -2px;&quot;&gt;&lt;span&gt;&lt;span style=&quot;font-size:13px;color:#333333;&quot;&gt;+prix :int&lt;/span&gt;&lt;/span&gt;&lt;/div&gt;" style="part=1;html=1;resizeHeight=0;strokeColor=none;fillColor=none;verticalAlign=middle;spacingLeft=4;spacingRight=4;overflow=hidden;rotatable=0;points=[[0,0.5],[1,0.5]];portConstraint=eastwest;swimlaneFillColor=#ffffff;strokeOpacity=100;fillOpacity=100;whiteSpace=wrap;fontSize=13;fontColor=#333333;align=center;" parent="G3wEhJ9jmSjg3kxrGfmC-111" vertex="1">
          <mxGeometry y="25" width="270" height="87" as="geometry" />
        </mxCell>
        <mxCell id="G3wEhJ9jmSjg3kxrGfmC-113" value="" style="line;strokeWidth=1;fillColor=none;align=left;verticalAlign=middle;spacingTop=-1;spacingLeft=3;spacingRight=3;rotatable=0;labelPosition=right;points=[];portConstraint=eastwest;" parent="G3wEhJ9jmSjg3kxrGfmC-111" vertex="1">
          <mxGeometry y="112" width="270" height="8" as="geometry" />
        </mxCell>
        <mxCell id="G3wEhJ9jmSjg3kxrGfmC-114" value="" style="part=1;resizeHeight=0;strokeColor=none;fillColor=none;align=left;verticalAlign=middle;spacingLeft=4;spacingRight=4;rotatable=0;points=[[0,0.5],[1,0.5]];portConstraint=eastwest;swimlaneFillColor=#ffffff;strokeOpacity=100;fillOpacity=100;whiteSpace=wrap;overflow=block;blockSpacing=1;html=1;fontSize=13;" parent="G3wEhJ9jmSjg3kxrGfmC-111" vertex="1">
          <mxGeometry y="120" width="270" height="17.25" as="geometry" />
        </mxCell>
        <mxCell id="G3wEhJ9jmSjg3kxrGfmC-115" value="Commande" style="html=1;overflow=block;blockSpacing=1;swimlane;childLayout=stackLayout;horizontal=1;horizontalStack=0;resizeParent=1;resizeParentMax=0;resizeLast=0;collapsible=0;fontStyle=0;marginBottom=0;swimlaneFillColor=#ffffff;startSize=25;whiteSpace=wrap;fontSize=13;fontColor=#333333;align=center;spacing=0;strokeColor=#333333;strokeOpacity=100;fillOpacity=100;rounded=1;absoluteArcSize=1;arcSize=12;fillColor=#ffffff;strokeWidth=0.8;" parent="G3wEhJ9jmSjg3kxrGfmC-106" vertex="1">
          <mxGeometry x="1150" y="508" width="375" height="165.25" as="geometry" />
        </mxCell>
        <mxCell id="G3wEhJ9jmSjg3kxrGfmC-116" value="&lt;div style=&quot;display: flex; justify-content: center; text-align: center; align-items: baseline; font-size: 0; line-height: 1.25;margin-top: -2px;&quot;&gt;&lt;span&gt;&lt;span style=&quot;font-size:13px;color:#333333;&quot;&gt;+dateCommande : date&lt;br&gt;&lt;/span&gt;&lt;/span&gt;&lt;/div&gt;&lt;div style=&quot;display: flex; justify-content: center; text-align: center; align-items: baseline; font-size: 0; line-height: 1.25;margin-top: -2px;&quot;&gt;&lt;span&gt;&lt;span style=&quot;font-size:13px;color:#333333;&quot;&gt;+livreur: string&lt;br&gt;&lt;/span&gt;&lt;/span&gt;&lt;/div&gt;&lt;div style=&quot;display: flex; justify-content: center; text-align: center; align-items: baseline; font-size: 0; line-height: 1.25;margin-top: -2px;&quot;&gt;&lt;span&gt;&lt;span style=&quot;font-size:13px;color:#333333;&quot;&gt;+status :string&amp;nbsp;&lt;br&gt;&lt;/span&gt;&lt;/span&gt;&lt;/div&gt;&lt;div style=&quot;display: flex; justify-content: center; text-align: center; align-items: baseline; font-size: 0; line-height: 1.25;margin-top: -2px;&quot;&gt;&lt;span&gt;&lt;span style=&quot;font-size:13px;color:#333333;&quot;&gt;+heureArrivé: int&lt;/span&gt;&lt;/span&gt;&lt;/div&gt;" style="part=1;html=1;resizeHeight=0;strokeColor=none;fillColor=none;verticalAlign=middle;spacingLeft=4;spacingRight=4;overflow=hidden;rotatable=0;points=[[0,0.5],[1,0.5]];portConstraint=eastwest;swimlaneFillColor=#ffffff;strokeOpacity=100;fillOpacity=100;whiteSpace=wrap;fontSize=13;fontColor=#333333;align=center;" parent="G3wEhJ9jmSjg3kxrGfmC-115" vertex="1">
          <mxGeometry y="25" width="375" height="79" as="geometry" />
        </mxCell>
        <mxCell id="G3wEhJ9jmSjg3kxrGfmC-117" value="" style="line;strokeWidth=1;fillColor=none;align=left;verticalAlign=middle;spacingTop=-1;spacingLeft=3;spacingRight=3;rotatable=0;labelPosition=right;points=[];portConstraint=eastwest;" parent="G3wEhJ9jmSjg3kxrGfmC-115" vertex="1">
          <mxGeometry y="104" width="375" height="8" as="geometry" />
        </mxCell>
        <mxCell id="G3wEhJ9jmSjg3kxrGfmC-118" value="&lt;div style=&quot;display: flex; justify-content: center; text-align: center; align-items: baseline; font-size: 0; line-height: 1.25;margin-top: -2px;&quot;&gt;&lt;span&gt;&lt;span style=&quot;font-size:13px;color:#333333;&quot;&gt;+ choixLivreur(positionAdresse,positionLivreur):string&#xa;&lt;/span&gt;&lt;/span&gt;&lt;/div&gt;&lt;div style=&quot;display: flex; justify-content: center; text-align: center; align-items: baseline; font-size: 0; line-height: 1.25;margin-top: -2px;&quot;&gt;&lt;span&gt;&lt;span style=&quot;font-size:13px;color:#333333;&quot;&gt;+ETA(positionAdresse,positionLivreur):date&lt;/span&gt;&lt;/span&gt;&lt;/div&gt;" style="part=1;resizeHeight=0;strokeColor=none;fillColor=none;align=left;verticalAlign=middle;spacingLeft=4;spacingRight=4;rotatable=0;points=[[0,0.5],[1,0.5]];portConstraint=eastwest;swimlaneFillColor=#ffffff;strokeOpacity=100;fillOpacity=100;whiteSpace=wrap;overflow=block;blockSpacing=1;html=1;fontSize=13;" parent="G3wEhJ9jmSjg3kxrGfmC-115" vertex="1">
          <mxGeometry y="112" width="375" height="53.25" as="geometry" />
        </mxCell>
        <UserObject label="" lucidchartObjectId="a3lcvIBLx3UH" id="G3wEhJ9jmSjg3kxrGfmC-119">
          <mxCell style="html=1;jettySize=18;whiteSpace=wrap;fontSize=13;strokeColor=#333333;strokeOpacity=100;strokeWidth=0.8;rounded=1;arcSize=24;edgeStyle=orthogonalEdgeStyle;startArrow=none;endArrow=none;" parent="G3wEhJ9jmSjg3kxrGfmC-106" source="G3wEhJ9jmSjg3kxrGfmC-107" target="G3wEhJ9jmSjg3kxrGfmC-115" edge="1">
            <mxGeometry width="100" height="100" relative="1" as="geometry">
              <Array as="points" />
            </mxGeometry>
          </mxCell>
        </UserObject>
        <mxCell id="G3wEhJ9jmSjg3kxrGfmC-120" value="livre" style="text;html=1;resizable=0;labelBackgroundColor=default;align=center;verticalAlign=middle;fontColor=#333333;fontSize=13;" parent="G3wEhJ9jmSjg3kxrGfmC-119" vertex="1">
          <mxGeometry relative="1" as="geometry">
            <mxPoint x="13" y="-8" as="offset" />
          </mxGeometry>
        </mxCell>
        <mxCell id="G3wEhJ9jmSjg3kxrGfmC-121" value="1" style="text;html=1;resizable=0;labelBackgroundColor=default;align=center;verticalAlign=middle;fontSize=13;" parent="G3wEhJ9jmSjg3kxrGfmC-119" vertex="1">
          <mxGeometry x="-0.9151700829390368" relative="1" as="geometry">
            <mxPoint x="2" y="13" as="offset" />
          </mxGeometry>
        </mxCell>
        <mxCell id="G3wEhJ9jmSjg3kxrGfmC-122" value="1..*" style="text;html=1;resizable=0;labelBackgroundColor=default;align=center;verticalAlign=middle;fontSize=13;" parent="G3wEhJ9jmSjg3kxrGfmC-119" vertex="1">
          <mxGeometry x="0.9281067332789912" relative="1" as="geometry">
            <mxPoint x="-13" y="13" as="offset" />
          </mxGeometry>
        </mxCell>
        <UserObject label="" lucidchartObjectId="R4lc5TQhlQKx" id="G3wEhJ9jmSjg3kxrGfmC-123">
          <mxCell style="html=1;jettySize=18;whiteSpace=wrap;fontSize=13;strokeColor=#333333;strokeOpacity=100;strokeWidth=0.8;rounded=1;arcSize=24;edgeStyle=orthogonalEdgeStyle;startArrow=none;endArrow=none;entryX=0.556;entryY=0.015;entryDx=0;entryDy=0;entryPerimeter=0;" parent="G3wEhJ9jmSjg3kxrGfmC-106" source="G3wEhJ9jmSjg3kxrGfmC-115" target="G3wEhJ9jmSjg3kxrGfmC-111" edge="1">
            <mxGeometry x="0.2637" y="-10" width="100" height="100" relative="1" as="geometry">
              <Array as="points" />
              <mxPoint x="1670" y="740" as="targetPoint" />
              <mxPoint as="offset" />
            </mxGeometry>
          </mxCell>
        </UserObject>
        <mxCell id="G3wEhJ9jmSjg3kxrGfmC-124" value="contient" style="text;html=1;resizable=0;labelBackgroundColor=default;align=center;verticalAlign=middle;fontColor=#333333;fontSize=13;" parent="G3wEhJ9jmSjg3kxrGfmC-123" vertex="1">
          <mxGeometry relative="1" as="geometry">
            <mxPoint y="3" as="offset" />
          </mxGeometry>
        </mxCell>
        <mxCell id="G3wEhJ9jmSjg3kxrGfmC-126" value="1..*" style="text;html=1;resizable=0;labelBackgroundColor=default;align=center;verticalAlign=middle;fontSize=13;" parent="G3wEhJ9jmSjg3kxrGfmC-123" vertex="1">
          <mxGeometry x="0.72704963356145" relative="1" as="geometry">
            <mxPoint x="21" y="-3" as="offset" />
          </mxGeometry>
        </mxCell>
        <mxCell id="G3wEhJ9jmSjg3kxrGfmC-128" parent="G3wEhJ9jmSjg3kxrGfmC-106" />
        <mxCell id="G3wEhJ9jmSjg3kxrGfmC-129" value="" style="group;dropTarget=0;pointerEvents=0;" parent="G3wEhJ9jmSjg3kxrGfmC-128" vertex="1">
          <mxGeometry x="1055" y="40" width="640" height="44" as="geometry" />
        </mxCell>
        <UserObject label="%filename%" placeholders="1" lucidchartObjectId="kWBYl.rsL5rs" id="G3wEhJ9jmSjg3kxrGfmC-130">
          <mxCell style="points=[[0.062,0.967,0],[0.946,0.967,0]];html=1;overflow=block;blockSpacing=1;whiteSpace=wrap;fontSize=19.7;fontColor=#a9afb8;fontStyle=1;align=center;spacingLeft=7;spacingRight=7;spacingTop=2;spacing=3;strokeOpacity=0;fillOpacity=0;rounded=1;absoluteArcSize=1;arcSize=12;fillColor=#ffffff;strokeWidth=1.5;" parent="G3wEhJ9jmSjg3kxrGfmC-129" vertex="1">
            <mxGeometry width="640" height="31" as="geometry" />
          </mxCell>
        </UserObject>
        <UserObject label="%creatorName%  |  %date{mmmm d, yyyy}%" placeholders="1" lucidchartObjectId="kWBYolvidEkw" id="G3wEhJ9jmSjg3kxrGfmC-131">
          <mxCell style="html=1;overflow=block;blockSpacing=1;whiteSpace=wrap;fontSize=11.5;fontColor=#a9afb8;align=center;spacingLeft=7;spacingRight=7;spacingTop=2;spacing=3;strokeOpacity=0;fillOpacity=0;rounded=1;absoluteArcSize=1;arcSize=12;fillColor=#ffffff;strokeWidth=1.5;" parent="G3wEhJ9jmSjg3kxrGfmC-129" vertex="1">
            <mxGeometry y="30" width="640" height="14" as="geometry" />
          </mxCell>
        </UserObject>
        <UserObject label="" lucidchartObjectId="TWlcJLq8VH~c" id="G3wEhJ9jmSjg3kxrGfmC-132">
          <mxCell style="html=1;jettySize=18;whiteSpace=wrap;fontSize=13;strokeColor=#333333;strokeOpacity=100;strokeWidth=0.8;rounded=1;arcSize=24;edgeStyle=orthogonalEdgeStyle;startArrow=diamond;startFill=1;startSize=16;endArrow=none;" parent="G3wEhJ9jmSjg3kxrGfmC-82" source="G3wEhJ9jmSjg3kxrGfmC-142" target="G3wEhJ9jmSjg3kxrGfmC-93" edge="1">
            <mxGeometry width="100" height="100" relative="1" as="geometry">
              <Array as="points" />
              <mxPoint x="960" y="292" as="targetPoint" />
              <mxPoint x="1140" y="360" as="sourcePoint" />
            </mxGeometry>
          </mxCell>
        </UserObject>
        <mxCell id="G3wEhJ9jmSjg3kxrGfmC-133" value="possède" style="text;html=1;resizable=0;labelBackgroundColor=default;align=center;verticalAlign=middle;fontColor=#333333;fontSize=13;" parent="G3wEhJ9jmSjg3kxrGfmC-132" vertex="1">
          <mxGeometry x="0.11853797826988632" relative="1" as="geometry">
            <mxPoint x="3" y="-12" as="offset" />
          </mxGeometry>
        </mxCell>
        <mxCell id="G3wEhJ9jmSjg3kxrGfmC-134" value="1..*" style="text;html=1;resizable=0;labelBackgroundColor=default;align=center;verticalAlign=middle;fontSize=13;" parent="G3wEhJ9jmSjg3kxrGfmC-132" vertex="1">
          <mxGeometry x="-1" relative="1" as="geometry">
            <mxPoint x="-22" y="17" as="offset" />
          </mxGeometry>
        </mxCell>
        <mxCell id="G3wEhJ9jmSjg3kxrGfmC-135" value="1" style="text;html=1;resizable=0;labelBackgroundColor=default;align=center;verticalAlign=middle;fontSize=13;" parent="G3wEhJ9jmSjg3kxrGfmC-132" vertex="1">
          <mxGeometry x="1" relative="1" as="geometry">
            <mxPoint x="10" y="18" as="offset" />
          </mxGeometry>
        </mxCell>
        <mxCell id="G3wEhJ9jmSjg3kxrGfmC-136" parent="G3wEhJ9jmSjg3kxrGfmC-82" />
        <mxCell id="G3wEhJ9jmSjg3kxrGfmC-137" parent="G3wEhJ9jmSjg3kxrGfmC-136" />
        <mxCell id="G3wEhJ9jmSjg3kxrGfmC-138" value="" style="group;dropTarget=0;pointerEvents=0;" parent="G3wEhJ9jmSjg3kxrGfmC-137" vertex="1">
          <mxGeometry x="1055" y="40" width="640" height="44" as="geometry" />
        </mxCell>
        <UserObject label="%filename%" placeholders="1" lucidchartObjectId="kWBYl.rsL5rs" id="G3wEhJ9jmSjg3kxrGfmC-139">
          <mxCell style="points=[[0.062,0.967,0],[0.946,0.967,0]];html=1;overflow=block;blockSpacing=1;whiteSpace=wrap;fontSize=19.7;fontColor=#a9afb8;fontStyle=1;align=center;spacingLeft=7;spacingRight=7;spacingTop=2;spacing=3;strokeOpacity=0;fillOpacity=0;rounded=1;absoluteArcSize=1;arcSize=12;fillColor=#ffffff;strokeWidth=1.5;" parent="G3wEhJ9jmSjg3kxrGfmC-138" vertex="1">
            <mxGeometry width="640" height="31" as="geometry" />
          </mxCell>
        </UserObject>
        <UserObject label="%creatorName%  |  %date{mmmm d, yyyy}%" placeholders="1" lucidchartObjectId="kWBYolvidEkw" id="G3wEhJ9jmSjg3kxrGfmC-140">
          <mxCell style="html=1;overflow=block;blockSpacing=1;whiteSpace=wrap;fontSize=11.5;fontColor=#a9afb8;align=center;spacingLeft=7;spacingRight=7;spacingTop=2;spacing=3;strokeOpacity=0;fillOpacity=0;rounded=1;absoluteArcSize=1;arcSize=12;fillColor=#ffffff;strokeWidth=1.5;" parent="G3wEhJ9jmSjg3kxrGfmC-138" vertex="1">
            <mxGeometry y="30" width="640" height="14" as="geometry" />
          </mxCell>
        </UserObject>
        <mxCell id="G3wEhJ9jmSjg3kxrGfmC-141" parent="G3wEhJ9jmSjg3kxrGfmC-82" />
        <mxCell id="G3wEhJ9jmSjg3kxrGfmC-142" value="Adresse" style="html=1;overflow=block;blockSpacing=1;swimlane;childLayout=stackLayout;horizontal=1;horizontalStack=0;resizeParent=1;resizeParentMax=0;resizeLast=0;collapsible=0;fontStyle=0;marginBottom=0;swimlaneFillColor=#ffffff;startSize=25;whiteSpace=wrap;fontSize=13;fontColor=#333333;align=center;spacing=0;strokeColor=#333333;strokeOpacity=100;fillOpacity=100;rounded=1;absoluteArcSize=1;arcSize=12;fillColor=#ffffff;strokeWidth=0.8;" parent="G3wEhJ9jmSjg3kxrGfmC-141" vertex="1">
          <mxGeometry x="1202.5" y="211.63" width="270" height="189" as="geometry" />
        </mxCell>
        <mxCell id="G3wEhJ9jmSjg3kxrGfmC-143" value="&lt;div style=&quot;display: flex; justify-content: center; text-align: center; align-items: baseline; line-height: 1.25; margin-top: -2px;&quot;&gt;+numéro: int&lt;br&gt;&lt;/div&gt;&lt;div style=&quot;display: flex; justify-content: center; text-align: center; align-items: baseline; font-size: 0; line-height: 1.25;margin-top: -2px;&quot;&gt;&lt;span&gt;&lt;span style=&quot;font-size:13px;color:#333333;&quot;&gt;+modificateur: varchar(4)&lt;br&gt;&lt;/span&gt;&lt;/span&gt;&lt;/div&gt;&lt;div style=&quot;display: flex; justify-content: center; text-align: center; align-items: baseline; font-size: 0; line-height: 1.25;margin-top: -2px;&quot;&gt;&lt;span&gt;&lt;span style=&quot;font-size:13px;color:#333333;&quot;&gt;+rue:string&lt;br&gt;&lt;/span&gt;&lt;/span&gt;&lt;/div&gt;&lt;div style=&quot;display: flex; justify-content: center; text-align: center; align-items: baseline; font-size: 0; line-height: 1.25;margin-top: -2px;&quot;&gt;&lt;span&gt;&lt;span style=&quot;font-size:13px;color:#333333;&quot;&gt;+ville: string&lt;br&gt;&lt;/span&gt;&lt;/span&gt;&lt;/div&gt;&lt;div style=&quot;display: flex; justify-content: center; text-align: center; align-items: baseline; font-size: 0; line-height: 1.25;margin-top: -2px;&quot;&gt;&lt;span&gt;&lt;span style=&quot;font-size:13px;color:#333333;&quot;&gt;+code postal: varchar(5)&lt;br&gt;&lt;/span&gt;&lt;/span&gt;&lt;/div&gt;&lt;div style=&quot;display: flex; justify-content: center; text-align: center; align-items: baseline; font-size: 0; line-height: 1.25;margin-top: -2px;&quot;&gt;&lt;span&gt;&lt;span style=&quot;font-size:13px;color:#333333;&quot;&gt;+longitude: float&lt;br&gt;&lt;/span&gt;&lt;/span&gt;&lt;/div&gt;&lt;div style=&quot;display: flex; justify-content: center; text-align: center; align-items: baseline; line-height: 1.25; margin-top: -2px;&quot;&gt;+latitude: float&lt;br&gt;&lt;/div&gt;&lt;div style=&quot;display: flex; justify-content: center; text-align: center; align-items: baseline; font-size: 0; line-height: 1.25;margin-top: -2px;&quot;&gt;&lt;span&gt;&lt;span style=&quot;font-size:13px;color:#333333;&quot;&gt;&lt;br&gt;&lt;/span&gt;&lt;/span&gt;&lt;/div&gt;&lt;div style=&quot;display: flex; justify-content: center; text-align: center; align-items: baseline; font-size: 0; line-height: 1.25;margin-top: -2px;&quot;&gt;&lt;span&gt;&lt;/span&gt;&lt;/div&gt;" style="part=1;html=1;resizeHeight=0;strokeColor=none;fillColor=none;verticalAlign=middle;spacingLeft=4;spacingRight=4;overflow=hidden;rotatable=0;points=[[0,0.5],[1,0.5]];portConstraint=eastwest;swimlaneFillColor=#ffffff;strokeOpacity=100;fillOpacity=100;whiteSpace=wrap;fontSize=13;fontColor=#333333;align=center;" parent="G3wEhJ9jmSjg3kxrGfmC-142" vertex="1">
          <mxGeometry y="25" width="270" height="115" as="geometry" />
        </mxCell>
        <mxCell id="G3wEhJ9jmSjg3kxrGfmC-144" value="" style="line;strokeWidth=1;fillColor=none;align=left;verticalAlign=middle;spacingTop=-1;spacingLeft=3;spacingRight=3;rotatable=0;labelPosition=right;points=[];portConstraint=eastwest;" parent="G3wEhJ9jmSjg3kxrGfmC-142" vertex="1">
          <mxGeometry y="140" width="270" height="8" as="geometry" />
        </mxCell>
        <mxCell id="G3wEhJ9jmSjg3kxrGfmC-145" value="+ positionAdresse():string" style="part=1;resizeHeight=0;strokeColor=none;fillColor=none;align=left;verticalAlign=middle;spacingLeft=4;spacingRight=4;rotatable=0;points=[[0,0.5],[1,0.5]];portConstraint=eastwest;swimlaneFillColor=#ffffff;strokeOpacity=100;fillOpacity=100;whiteSpace=wrap;overflow=block;blockSpacing=1;html=1;fontSize=13;" parent="G3wEhJ9jmSjg3kxrGfmC-142" vertex="1">
          <mxGeometry y="148" width="270" height="41" as="geometry" />
        </mxCell>
        <mxCell id="G3wEhJ9jmSjg3kxrGfmC-146" parent="G3wEhJ9jmSjg3kxrGfmC-141" />
        <mxCell id="G3wEhJ9jmSjg3kxrGfmC-151" value="" style="group;dropTarget=0;pointerEvents=0;" parent="G3wEhJ9jmSjg3kxrGfmC-146" vertex="1">
          <mxGeometry x="1055" y="40" width="640" height="44" as="geometry" />
        </mxCell>
        <UserObject label="%filename%" placeholders="1" lucidchartObjectId="kWBYl.rsL5rs" id="G3wEhJ9jmSjg3kxrGfmC-152">
          <mxCell style="points=[[0.062,0.967,0],[0.946,0.967,0]];html=1;overflow=block;blockSpacing=1;whiteSpace=wrap;fontSize=19.7;fontColor=#a9afb8;fontStyle=1;align=center;spacingLeft=7;spacingRight=7;spacingTop=2;spacing=3;strokeOpacity=0;fillOpacity=0;rounded=1;absoluteArcSize=1;arcSize=12;fillColor=#ffffff;strokeWidth=1.5;" parent="G3wEhJ9jmSjg3kxrGfmC-151" vertex="1">
            <mxGeometry width="640" height="31" as="geometry" />
          </mxCell>
        </UserObject>
        <UserObject label="%creatorName%  |  %date{mmmm d, yyyy}%" placeholders="1" lucidchartObjectId="kWBYolvidEkw" id="G3wEhJ9jmSjg3kxrGfmC-153">
          <mxCell style="html=1;overflow=block;blockSpacing=1;whiteSpace=wrap;fontSize=11.5;fontColor=#a9afb8;align=center;spacingLeft=7;spacingRight=7;spacingTop=2;spacing=3;strokeOpacity=0;fillOpacity=0;rounded=1;absoluteArcSize=1;arcSize=12;fillColor=#ffffff;strokeWidth=1.5;" parent="G3wEhJ9jmSjg3kxrGfmC-151" vertex="1">
            <mxGeometry y="30" width="640" height="14" as="geometry" />
          </mxCell>
        </UserObject>
        <UserObject label="" lucidchartObjectId="J2lc4CfqBbUZ" id="G3wEhJ9jmSjg3kxrGfmC-154">
          <mxCell style="html=1;jettySize=18;whiteSpace=wrap;fontSize=13;strokeColor=#333333;strokeOpacity=100;strokeWidth=0.8;rounded=1;arcSize=24;edgeStyle=orthogonalEdgeStyle;startArrow=none;endArrow=none;" parent="G3wEhJ9jmSjg3kxrGfmC-82" source="G3wEhJ9jmSjg3kxrGfmC-142" target="G3wEhJ9jmSjg3kxrGfmC-115" edge="1">
            <mxGeometry x="-1" y="-85" width="100" height="100" relative="1" as="geometry">
              <Array as="points" />
              <mxPoint x="1040" y="180" as="sourcePoint" />
              <mxPoint x="-85" y="85" as="offset" />
              <mxPoint x="1337.5" y="488" as="targetPoint" />
            </mxGeometry>
          </mxCell>
        </UserObject>
        <mxCell id="G3wEhJ9jmSjg3kxrGfmC-155" value="livré à" style="text;html=1;resizable=0;labelBackgroundColor=default;align=center;verticalAlign=middle;fontColor=#333333;fontSize=13;" parent="G3wEhJ9jmSjg3kxrGfmC-154" vertex="1">
          <mxGeometry x="-0.12219373984894766" relative="1" as="geometry" />
        </mxCell>
        <mxCell id="G3wEhJ9jmSjg3kxrGfmC-157" value="0..*" style="text;html=1;resizable=0;labelBackgroundColor=default;align=center;verticalAlign=middle;fontSize=13;" parent="G3wEhJ9jmSjg3kxrGfmC-154" vertex="1">
          <mxGeometry x="0.6027181532807833" relative="1" as="geometry">
            <mxPoint x="13" y="3" as="offset" />
          </mxGeometry>
        </mxCell>
        <mxCell id="G3wEhJ9jmSjg3kxrGfmC-158" style="edgeStyle=orthogonalEdgeStyle;rounded=0;orthogonalLoop=1;jettySize=auto;html=1;exitX=0;exitY=0;exitDx=0;exitDy=0;" parent="G3wEhJ9jmSjg3kxrGfmC-82" source="G3wEhJ9jmSjg3kxrGfmC-124" target="G3wEhJ9jmSjg3kxrGfmC-136" edge="1">
          <mxGeometry relative="1" as="geometry" />
        </mxCell>
        <UserObject label="" lucidchartObjectId="AlTd7m5eC5IK" id="G3wEhJ9jmSjg3kxrGfmC-127">
          <mxCell style="html=1;jettySize=18;whiteSpace=wrap;fontSize=13;strokeColor=#333333;strokeOpacity=100;strokeWidth=0.8;rounded=1;arcSize=24;edgeStyle=orthogonalEdgeStyle;startArrow=none;endArrow=none;entryX=-0.001;entryY=0.5;entryPerimeter=0;" parent="1" source="G3wEhJ9jmSjg3kxrGfmC-71" target="G3wEhJ9jmSjg3kxrGfmC-107" edge="1">
            <mxGeometry width="100" height="100" relative="1" as="geometry">
              <Array as="points" />
              <mxPoint x="410.27" y="498.875" as="sourcePoint" />
            </mxGeometry>
          </mxCell>
        </UserObject>
        <UserObject label="" lucidchartObjectId="FlTdkgDGYBUg" id="G3wEhJ9jmSjg3kxrGfmC-97">
          <mxCell style="html=1;jettySize=18;whiteSpace=wrap;fontSize=13;strokeColor=#333333;strokeOpacity=100;strokeWidth=0.8;rounded=1;arcSize=24;edgeStyle=orthogonalEdgeStyle;startArrow=none;endArrow=none;entryX=-0.001;entryY=0.5;entryPerimeter=0;" parent="1" source="G3wEhJ9jmSjg3kxrGfmC-71" target="G3wEhJ9jmSjg3kxrGfmC-93" edge="1">
            <mxGeometry width="100" height="100" relative="1" as="geometry">
              <Array as="points" />
              <mxPoint x="410.27" y="498.875" as="sourcePoint" />
            </mxGeometry>
          </mxCell>
        </UserObject>
        <UserObject label="" lucidchartObjectId="EmTddqZ1q9em" id="G3wEhJ9jmSjg3kxrGfmC-91">
          <mxCell style="html=1;jettySize=18;whiteSpace=wrap;fontSize=13;strokeColor=#333333;strokeOpacity=100;strokeWidth=0.8;rounded=1;arcSize=24;edgeStyle=orthogonalEdgeStyle;startArrow=block;startFill=0;startSize=12;endArrow=none;entryX=-0.001;entryY=0.5;entryPerimeter=0;" parent="1" source="G3wEhJ9jmSjg3kxrGfmC-71" target="G3wEhJ9jmSjg3kxrGfmC-83" edge="1">
            <mxGeometry width="100" height="100" relative="1" as="geometry">
              <Array as="points" />
              <mxPoint x="410.27" y="498.875" as="sourcePoint" />
            </mxGeometry>
          </mxCell>
        </UserObject>
        <mxCell id="G3wEhJ9jmSjg3kxrGfmC-161" value="&lt;font style=&quot;font-size: 18px;&quot;&gt;Diagramme de classe&lt;/font&gt;" style="text;html=1;strokeColor=none;fillColor=none;align=center;verticalAlign=middle;whiteSpace=wrap;rounded=0;" parent="1" vertex="1">
          <mxGeometry x="810" y="140" width="400" height="30" as="geometry" />
        </mxCell>
        <mxCell id="i-iwsNPe4vKRGVadVL79-1" parent="1" />
        <mxCell id="i-iwsNPe4vKRGVadVL79-2" value="Chef" style="html=1;overflow=block;blockSpacing=1;swimlane;childLayout=stackLayout;horizontal=1;horizontalStack=0;resizeParent=1;resizeParentMax=0;resizeLast=0;collapsible=0;fontStyle=0;marginBottom=0;swimlaneFillColor=#ffffff;startSize=25;whiteSpace=wrap;fontSize=13;fontColor=#333333;align=center;spacing=0;strokeColor=#333333;strokeOpacity=100;fillOpacity=100;rounded=1;absoluteArcSize=1;arcSize=12;fillColor=#ffffff;strokeWidth=0.8;" vertex="1" parent="i-iwsNPe4vKRGVadVL79-1">
          <mxGeometry x="680" y="820" width="270" height="96.25" as="geometry" />
        </mxCell>
        <mxCell id="i-iwsNPe4vKRGVadVL79-3" value="+ specialité: string" style="part=1;html=1;resizeHeight=0;strokeColor=none;fillColor=none;verticalAlign=middle;spacingLeft=4;spacingRight=4;overflow=hidden;rotatable=0;points=[[0,0.5],[1,0.5]];portConstraint=eastwest;swimlaneFillColor=#ffffff;strokeOpacity=100;fillOpacity=100;whiteSpace=wrap;fontSize=13;fontColor=#333333;align=center;" vertex="1" parent="i-iwsNPe4vKRGVadVL79-2">
          <mxGeometry y="25" width="270" height="46" as="geometry" />
        </mxCell>
        <mxCell id="i-iwsNPe4vKRGVadVL79-4" value="" style="line;strokeWidth=1;fillColor=none;align=left;verticalAlign=middle;spacingTop=-1;spacingLeft=3;spacingRight=3;rotatable=0;labelPosition=right;points=[];portConstraint=eastwest;" vertex="1" parent="i-iwsNPe4vKRGVadVL79-2">
          <mxGeometry y="71" width="270" height="8" as="geometry" />
        </mxCell>
        <mxCell id="i-iwsNPe4vKRGVadVL79-5" value="" style="part=1;html=1;resizeHeight=0;strokeColor=none;fillColor=none;verticalAlign=middle;spacingLeft=4;spacingRight=4;overflow=hidden;rotatable=0;points=[[0,0.5],[1,0.5]];portConstraint=eastwest;swimlaneFillColor=#ffffff;strokeOpacity=100;fillOpacity=100;whiteSpace=wrap;fontSize=13;align=center;" vertex="1" parent="i-iwsNPe4vKRGVadVL79-2">
          <mxGeometry y="79" width="270" height="17.25" as="geometry" />
        </mxCell>
        <UserObject label="" lucidchartObjectId="hbmcKppnz3ou" id="i-iwsNPe4vKRGVadVL79-6">
          <mxCell style="html=1;jettySize=18;whiteSpace=wrap;fontSize=13;strokeColor=#333333;strokeOpacity=100;strokeWidth=0.8;rounded=1;arcSize=24;edgeStyle=orthogonalEdgeStyle;startArrow=none;endArrow=none;" edge="1" parent="i-iwsNPe4vKRGVadVL79-1" source="i-iwsNPe4vKRGVadVL79-3" target="i-iwsNPe4vKRGVadVL79-28">
            <mxGeometry width="100" height="100" relative="1" as="geometry">
              <Array as="points">
                <mxPoint x="1310" y="868" />
                <mxPoint x="1310" y="870" />
              </Array>
              <mxPoint x="1330" y="910" as="targetPoint" />
              <mxPoint x="1010" y="820" as="sourcePoint" />
            </mxGeometry>
          </mxCell>
        </UserObject>
        <mxCell id="i-iwsNPe4vKRGVadVL79-7" value="Prépare" style="text;html=1;resizable=0;labelBackgroundColor=default;align=center;verticalAlign=middle;fontColor=#333333;fontSize=13;" vertex="1" parent="i-iwsNPe4vKRGVadVL79-6">
          <mxGeometry relative="1" as="geometry">
            <mxPoint y="-9" as="offset" />
          </mxGeometry>
        </mxCell>
        <mxCell id="i-iwsNPe4vKRGVadVL79-8" value="1..*" style="text;html=1;resizable=0;labelBackgroundColor=default;align=center;verticalAlign=middle;fontSize=13;" vertex="1" parent="i-iwsNPe4vKRGVadVL79-6">
          <mxGeometry x="0.6830807634235698" relative="1" as="geometry">
            <mxPoint x="20" y="-18" as="offset" />
          </mxGeometry>
        </mxCell>
        <mxCell id="i-iwsNPe4vKRGVadVL79-9" value="1" style="edgeLabel;html=1;align=center;verticalAlign=middle;resizable=0;points=[];" vertex="1" connectable="0" parent="i-iwsNPe4vKRGVadVL79-6">
          <mxGeometry x="-0.0861" y="3" relative="1" as="geometry">
            <mxPoint x="-100" y="14" as="offset" />
          </mxGeometry>
        </mxCell>
        <mxCell id="i-iwsNPe4vKRGVadVL79-10" parent="i-iwsNPe4vKRGVadVL79-1" />
        <mxCell id="i-iwsNPe4vKRGVadVL79-11" value="Client" style="html=1;overflow=block;blockSpacing=1;swimlane;childLayout=stackLayout;horizontal=1;horizontalStack=0;resizeParent=1;resizeParentMax=0;resizeLast=0;collapsible=0;fontStyle=0;marginBottom=0;swimlaneFillColor=#ffffff;startSize=25;whiteSpace=wrap;fontSize=13;fontColor=#333333;align=center;spacing=0;strokeColor=#333333;strokeOpacity=100;fillOpacity=100;rounded=1;absoluteArcSize=1;arcSize=12;fillColor=#ffffff;strokeWidth=0.8;" vertex="1" parent="i-iwsNPe4vKRGVadVL79-10">
          <mxGeometry x="680" y="270" width="270" height="72.25" as="geometry" />
        </mxCell>
        <mxCell id="i-iwsNPe4vKRGVadVL79-12" value="-bankInformations: string" style="part=1;html=1;resizeHeight=0;strokeColor=none;fillColor=none;verticalAlign=middle;spacingLeft=4;spacingRight=4;overflow=hidden;rotatable=0;points=[[0,0.5],[1,0.5]];portConstraint=eastwest;swimlaneFillColor=#ffffff;strokeOpacity=100;fillOpacity=100;whiteSpace=wrap;fontSize=13;align=center;" vertex="1" parent="i-iwsNPe4vKRGVadVL79-11">
          <mxGeometry y="25" width="270" height="25" as="geometry" />
        </mxCell>
        <mxCell id="i-iwsNPe4vKRGVadVL79-13" value="" style="line;strokeWidth=1;fillColor=none;align=left;verticalAlign=middle;spacingTop=-1;spacingLeft=3;spacingRight=3;rotatable=0;labelPosition=right;points=[];portConstraint=eastwest;" vertex="1" parent="i-iwsNPe4vKRGVadVL79-11">
          <mxGeometry y="50" width="270" height="8" as="geometry" />
        </mxCell>
        <mxCell id="i-iwsNPe4vKRGVadVL79-14" value="" style="part=1;html=1;resizeHeight=0;strokeColor=none;fillColor=none;verticalAlign=middle;spacingLeft=4;spacingRight=4;overflow=hidden;rotatable=0;points=[[0,0.5],[1,0.5]];portConstraint=eastwest;swimlaneFillColor=#ffffff;strokeOpacity=100;fillOpacity=100;whiteSpace=wrap;fontSize=13;align=center;" vertex="1" parent="i-iwsNPe4vKRGVadVL79-11">
          <mxGeometry y="58" width="270" height="14.25" as="geometry" />
        </mxCell>
        <mxCell id="i-iwsNPe4vKRGVadVL79-15" value="" style="group;dropTarget=0;pointerEvents=0;" vertex="1" parent="i-iwsNPe4vKRGVadVL79-10">
          <mxGeometry x="1055" y="40" width="640" height="44" as="geometry" />
        </mxCell>
        <UserObject label="%filename%" placeholders="1" lucidchartObjectId="kWBYl.rsL5rs" id="i-iwsNPe4vKRGVadVL79-16">
          <mxCell style="points=[[0.062,0.967,0],[0.946,0.967,0]];html=1;overflow=block;blockSpacing=1;whiteSpace=wrap;fontSize=19.7;fontColor=#a9afb8;fontStyle=1;align=center;spacingLeft=7;spacingRight=7;spacingTop=2;spacing=3;strokeOpacity=0;fillOpacity=0;rounded=1;absoluteArcSize=1;arcSize=12;fillColor=#ffffff;strokeWidth=1.5;" vertex="1" parent="i-iwsNPe4vKRGVadVL79-15">
            <mxGeometry width="640" height="31" as="geometry" />
          </mxCell>
        </UserObject>
        <UserObject label="%creatorName%  |  %date{mmmm d, yyyy}%" placeholders="1" lucidchartObjectId="kWBYolvidEkw" id="i-iwsNPe4vKRGVadVL79-17">
          <mxCell style="html=1;overflow=block;blockSpacing=1;whiteSpace=wrap;fontSize=11.5;fontColor=#a9afb8;align=center;spacingLeft=7;spacingRight=7;spacingTop=2;spacing=3;strokeOpacity=0;fillOpacity=0;rounded=1;absoluteArcSize=1;arcSize=12;fillColor=#ffffff;strokeWidth=1.5;" vertex="1" parent="i-iwsNPe4vKRGVadVL79-15">
            <mxGeometry y="30" width="640" height="14" as="geometry" />
          </mxCell>
        </UserObject>
        <mxCell id="i-iwsNPe4vKRGVadVL79-18" parent="i-iwsNPe4vKRGVadVL79-1" />
        <mxCell id="i-iwsNPe4vKRGVadVL79-19" parent="i-iwsNPe4vKRGVadVL79-18" />
        <mxCell id="i-iwsNPe4vKRGVadVL79-20" value="" style="group;dropTarget=0;pointerEvents=0;" vertex="1" parent="i-iwsNPe4vKRGVadVL79-19">
          <mxGeometry x="1055" y="40" width="640" height="44" as="geometry" />
        </mxCell>
        <UserObject label="%filename%" placeholders="1" lucidchartObjectId="kWBYl.rsL5rs" id="i-iwsNPe4vKRGVadVL79-21">
          <mxCell style="points=[[0.062,0.967,0],[0.946,0.967,0]];html=1;overflow=block;blockSpacing=1;whiteSpace=wrap;fontSize=19.7;fontColor=#a9afb8;fontStyle=1;align=center;spacingLeft=7;spacingRight=7;spacingTop=2;spacing=3;strokeOpacity=0;fillOpacity=0;rounded=1;absoluteArcSize=1;arcSize=12;fillColor=#ffffff;strokeWidth=1.5;" vertex="1" parent="i-iwsNPe4vKRGVadVL79-20">
            <mxGeometry width="640" height="31" as="geometry" />
          </mxCell>
        </UserObject>
        <UserObject label="%creatorName%  |  %date{mmmm d, yyyy}%" placeholders="1" lucidchartObjectId="kWBYolvidEkw" id="i-iwsNPe4vKRGVadVL79-22">
          <mxCell style="html=1;overflow=block;blockSpacing=1;whiteSpace=wrap;fontSize=11.5;fontColor=#a9afb8;align=center;spacingLeft=7;spacingRight=7;spacingTop=2;spacing=3;strokeOpacity=0;fillOpacity=0;rounded=1;absoluteArcSize=1;arcSize=12;fillColor=#ffffff;strokeWidth=1.5;" vertex="1" parent="i-iwsNPe4vKRGVadVL79-20">
            <mxGeometry y="30" width="640" height="14" as="geometry" />
          </mxCell>
        </UserObject>
        <mxCell id="i-iwsNPe4vKRGVadVL79-23" parent="i-iwsNPe4vKRGVadVL79-1" />
        <mxCell id="i-iwsNPe4vKRGVadVL79-24" value="Livreur" style="html=1;overflow=block;blockSpacing=1;swimlane;childLayout=stackLayout;horizontal=1;horizontalStack=0;resizeParent=1;resizeParentMax=0;resizeLast=0;collapsible=0;fontStyle=0;marginBottom=0;swimlaneFillColor=#ffffff;startSize=25;whiteSpace=wrap;fontSize=13;fontColor=#333333;align=center;spacing=0;strokeColor=#333333;strokeOpacity=100;fillOpacity=100;rounded=1;absoluteArcSize=1;arcSize=12;fillColor=#ffffff;strokeWidth=0.8;" vertex="1" parent="i-iwsNPe4vKRGVadVL79-23">
          <mxGeometry x="680" y="524" width="270" height="133.25" as="geometry" />
        </mxCell>
        <mxCell id="i-iwsNPe4vKRGVadVL79-25" value="&lt;div style=&quot;display: flex; justify-content: center; text-align: center; align-items: baseline; font-size: 0; line-height: 1.25;margin-top: -2px;&quot;&gt;&lt;span&gt;&lt;span style=&quot;font-size:13px;color:#333333;&quot;&gt;+statut :string&lt;br&gt;&lt;/span&gt;&lt;/span&gt;&lt;/div&gt;&lt;div style=&quot;display: flex; justify-content: center; text-align: center; align-items: baseline; line-height: 1.25; margin-top: -2px;&quot;&gt;+latitude: float&lt;br&gt;&lt;/div&gt;&lt;div style=&quot;display: flex; justify-content: center; text-align: center; align-items: baseline; font-size: 0; line-height: 1.25;margin-top: -2px;&quot;&gt;&lt;span&gt;&lt;span style=&quot;font-size:13px;color:#333333;&quot;&gt;+longitude: float&lt;/span&gt;&lt;/span&gt;&lt;/div&gt;" style="part=1;html=1;resizeHeight=0;strokeColor=none;fillColor=none;verticalAlign=middle;spacingLeft=4;spacingRight=4;overflow=hidden;rotatable=0;points=[[0,0.5],[1,0.5]];portConstraint=eastwest;swimlaneFillColor=#ffffff;strokeOpacity=100;fillOpacity=100;whiteSpace=wrap;fontSize=13;fontColor=#333333;align=center;" vertex="1" parent="i-iwsNPe4vKRGVadVL79-24">
          <mxGeometry y="25" width="270" height="65" as="geometry" />
        </mxCell>
        <mxCell id="i-iwsNPe4vKRGVadVL79-26" value="" style="line;strokeWidth=1;fillColor=none;align=left;verticalAlign=middle;spacingTop=-1;spacingLeft=3;spacingRight=3;rotatable=0;labelPosition=right;points=[];portConstraint=eastwest;" vertex="1" parent="i-iwsNPe4vKRGVadVL79-24">
          <mxGeometry y="90" width="270" height="8" as="geometry" />
        </mxCell>
        <mxCell id="i-iwsNPe4vKRGVadVL79-27" value="+positionLivreur():string" style="part=1;resizeHeight=0;strokeColor=none;fillColor=none;align=left;verticalAlign=middle;spacingLeft=4;spacingRight=4;rotatable=0;points=[[0,0.5],[1,0.5]];portConstraint=eastwest;swimlaneFillColor=#ffffff;strokeOpacity=100;fillOpacity=100;whiteSpace=wrap;overflow=block;blockSpacing=1;html=1;fontSize=13;" vertex="1" parent="i-iwsNPe4vKRGVadVL79-24">
          <mxGeometry y="98" width="270" height="35.25" as="geometry" />
        </mxCell>
        <mxCell id="i-iwsNPe4vKRGVadVL79-28" value="plat du jour" style="html=1;overflow=block;blockSpacing=1;swimlane;childLayout=stackLayout;horizontal=1;horizontalStack=0;resizeParent=1;resizeParentMax=0;resizeLast=0;collapsible=0;marginBottom=0;swimlaneFillColor=#ffffff;startSize=25;whiteSpace=wrap;fontSize=13;fontColor=#333333;fontStyle=2;align=center;spacing=0;strokeColor=#333333;strokeOpacity=100;fillOpacity=100;rounded=1;absoluteArcSize=1;arcSize=12;fillColor=#ffffff;strokeWidth=0.8;" vertex="1" parent="i-iwsNPe4vKRGVadVL79-23">
          <mxGeometry x="1190" y="800" width="270" height="137.25" as="geometry" />
        </mxCell>
        <mxCell id="i-iwsNPe4vKRGVadVL79-29" value="&lt;div style=&quot;display: flex; justify-content: center; text-align: center; align-items: baseline; font-size: 0; line-height: 1.25;margin-top: -2px;&quot;&gt;&lt;span&gt;&lt;span style=&quot;font-size:13px;color:#333333;&quot;&gt;+ nom : string&#xa;&lt;/span&gt;&lt;/span&gt;&lt;/div&gt;&lt;div style=&quot;display: flex; justify-content: center; text-align: center; align-items: baseline; font-size: 0; line-height: 1.25;margin-top: -2px;&quot;&gt;&lt;span&gt;&lt;span style=&quot;font-size:13px;color:#333333;&quot;&gt;+chef :string&#xa;&lt;/span&gt;&lt;/span&gt;&lt;/div&gt;&lt;div style=&quot;display: flex; justify-content: center; text-align: center; align-items: baseline; font-size: 0; line-height: 1.25;margin-top: -2px;&quot;&gt;&lt;span&gt;&lt;span style=&quot;font-size:13px;color:#333333;&quot;&gt;+ type : string&#xa;&lt;/span&gt;&lt;/span&gt;&lt;/div&gt;&lt;div style=&quot;display: flex; justify-content: center; text-align: center; align-items: baseline; font-size: 0; line-height: 1.25;margin-top: -2px;&quot;&gt;&lt;span&gt;&lt;span style=&quot;font-size:13px;color:#333333;&quot;&gt;+jour :date&#xa;&lt;/span&gt;&lt;/span&gt;&lt;/div&gt;&lt;div style=&quot;display: flex; justify-content: center; text-align: center; align-items: baseline; font-size: 0; line-height: 1.25;margin-top: -2px;&quot;&gt;&lt;span&gt;&lt;span style=&quot;font-size:13px;color:#333333;&quot;&gt;+prix :int&lt;/span&gt;&lt;/span&gt;&lt;/div&gt;" style="part=1;html=1;resizeHeight=0;strokeColor=none;fillColor=none;verticalAlign=middle;spacingLeft=4;spacingRight=4;overflow=hidden;rotatable=0;points=[[0,0.5],[1,0.5]];portConstraint=eastwest;swimlaneFillColor=#ffffff;strokeOpacity=100;fillOpacity=100;whiteSpace=wrap;fontSize=13;fontColor=#333333;align=center;" vertex="1" parent="i-iwsNPe4vKRGVadVL79-28">
          <mxGeometry y="25" width="270" height="87" as="geometry" />
        </mxCell>
        <mxCell id="i-iwsNPe4vKRGVadVL79-30" value="" style="line;strokeWidth=1;fillColor=none;align=left;verticalAlign=middle;spacingTop=-1;spacingLeft=3;spacingRight=3;rotatable=0;labelPosition=right;points=[];portConstraint=eastwest;" vertex="1" parent="i-iwsNPe4vKRGVadVL79-28">
          <mxGeometry y="112" width="270" height="8" as="geometry" />
        </mxCell>
        <mxCell id="i-iwsNPe4vKRGVadVL79-31" value="" style="part=1;resizeHeight=0;strokeColor=none;fillColor=none;align=left;verticalAlign=middle;spacingLeft=4;spacingRight=4;rotatable=0;points=[[0,0.5],[1,0.5]];portConstraint=eastwest;swimlaneFillColor=#ffffff;strokeOpacity=100;fillOpacity=100;whiteSpace=wrap;overflow=block;blockSpacing=1;html=1;fontSize=13;" vertex="1" parent="i-iwsNPe4vKRGVadVL79-28">
          <mxGeometry y="120" width="270" height="17.25" as="geometry" />
        </mxCell>
        <mxCell id="i-iwsNPe4vKRGVadVL79-32" value="Commande" style="html=1;overflow=block;blockSpacing=1;swimlane;childLayout=stackLayout;horizontal=1;horizontalStack=0;resizeParent=1;resizeParentMax=0;resizeLast=0;collapsible=0;fontStyle=0;marginBottom=0;swimlaneFillColor=#ffffff;startSize=25;whiteSpace=wrap;fontSize=13;fontColor=#333333;align=center;spacing=0;strokeColor=#333333;strokeOpacity=100;fillOpacity=100;rounded=1;absoluteArcSize=1;arcSize=12;fillColor=#ffffff;strokeWidth=0.8;" vertex="1" parent="i-iwsNPe4vKRGVadVL79-23">
          <mxGeometry x="1150" y="508" width="375" height="165.25" as="geometry" />
        </mxCell>
        <mxCell id="i-iwsNPe4vKRGVadVL79-33" value="&lt;div style=&quot;display: flex; justify-content: center; text-align: center; align-items: baseline; font-size: 0; line-height: 1.25;margin-top: -2px;&quot;&gt;&lt;span&gt;&lt;span style=&quot;font-size:13px;color:#333333;&quot;&gt;+dateCommande : date&lt;br&gt;&lt;/span&gt;&lt;/span&gt;&lt;/div&gt;&lt;div style=&quot;display: flex; justify-content: center; text-align: center; align-items: baseline; font-size: 0; line-height: 1.25;margin-top: -2px;&quot;&gt;&lt;span&gt;&lt;span style=&quot;font-size:13px;color:#333333;&quot;&gt;+livreur: string&lt;br&gt;&lt;/span&gt;&lt;/span&gt;&lt;/div&gt;&lt;div style=&quot;display: flex; justify-content: center; text-align: center; align-items: baseline; font-size: 0; line-height: 1.25;margin-top: -2px;&quot;&gt;&lt;span&gt;&lt;span style=&quot;font-size:13px;color:#333333;&quot;&gt;+status :string&amp;nbsp;&lt;br&gt;&lt;/span&gt;&lt;/span&gt;&lt;/div&gt;&lt;div style=&quot;display: flex; justify-content: center; text-align: center; align-items: baseline; font-size: 0; line-height: 1.25;margin-top: -2px;&quot;&gt;&lt;span&gt;&lt;span style=&quot;font-size:13px;color:#333333;&quot;&gt;+heureArrivé: int&lt;/span&gt;&lt;/span&gt;&lt;/div&gt;" style="part=1;html=1;resizeHeight=0;strokeColor=none;fillColor=none;verticalAlign=middle;spacingLeft=4;spacingRight=4;overflow=hidden;rotatable=0;points=[[0,0.5],[1,0.5]];portConstraint=eastwest;swimlaneFillColor=#ffffff;strokeOpacity=100;fillOpacity=100;whiteSpace=wrap;fontSize=13;fontColor=#333333;align=center;" vertex="1" parent="i-iwsNPe4vKRGVadVL79-32">
          <mxGeometry y="25" width="375" height="79" as="geometry" />
        </mxCell>
        <mxCell id="i-iwsNPe4vKRGVadVL79-34" value="" style="line;strokeWidth=1;fillColor=none;align=left;verticalAlign=middle;spacingTop=-1;spacingLeft=3;spacingRight=3;rotatable=0;labelPosition=right;points=[];portConstraint=eastwest;" vertex="1" parent="i-iwsNPe4vKRGVadVL79-32">
          <mxGeometry y="104" width="375" height="8" as="geometry" />
        </mxCell>
        <mxCell id="i-iwsNPe4vKRGVadVL79-35" value="&lt;div style=&quot;display: flex; justify-content: center; text-align: center; align-items: baseline; font-size: 0; line-height: 1.25;margin-top: -2px;&quot;&gt;&lt;span&gt;&lt;span style=&quot;font-size:13px;color:#333333;&quot;&gt;+ choixLivreur(positionAdresse,positionLivreur):string&#xa;&lt;/span&gt;&lt;/span&gt;&lt;/div&gt;&lt;div style=&quot;display: flex; justify-content: center; text-align: center; align-items: baseline; font-size: 0; line-height: 1.25;margin-top: -2px;&quot;&gt;&lt;span&gt;&lt;span style=&quot;font-size:13px;color:#333333;&quot;&gt;+ETA(positionAdresse,positionLivreur):date&lt;/span&gt;&lt;/span&gt;&lt;/div&gt;" style="part=1;resizeHeight=0;strokeColor=none;fillColor=none;align=left;verticalAlign=middle;spacingLeft=4;spacingRight=4;rotatable=0;points=[[0,0.5],[1,0.5]];portConstraint=eastwest;swimlaneFillColor=#ffffff;strokeOpacity=100;fillOpacity=100;whiteSpace=wrap;overflow=block;blockSpacing=1;html=1;fontSize=13;" vertex="1" parent="i-iwsNPe4vKRGVadVL79-32">
          <mxGeometry y="112" width="375" height="53.25" as="geometry" />
        </mxCell>
        <UserObject label="" lucidchartObjectId="a3lcvIBLx3UH" id="i-iwsNPe4vKRGVadVL79-36">
          <mxCell style="html=1;jettySize=18;whiteSpace=wrap;fontSize=13;strokeColor=#333333;strokeOpacity=100;strokeWidth=0.8;rounded=1;arcSize=24;edgeStyle=orthogonalEdgeStyle;startArrow=none;endArrow=none;" edge="1" parent="i-iwsNPe4vKRGVadVL79-23" source="i-iwsNPe4vKRGVadVL79-24" target="i-iwsNPe4vKRGVadVL79-32">
            <mxGeometry width="100" height="100" relative="1" as="geometry">
              <Array as="points" />
            </mxGeometry>
          </mxCell>
        </UserObject>
        <mxCell id="i-iwsNPe4vKRGVadVL79-37" value="livre" style="text;html=1;resizable=0;labelBackgroundColor=default;align=center;verticalAlign=middle;fontColor=#333333;fontSize=13;" vertex="1" parent="i-iwsNPe4vKRGVadVL79-36">
          <mxGeometry relative="1" as="geometry">
            <mxPoint x="13" y="-8" as="offset" />
          </mxGeometry>
        </mxCell>
        <mxCell id="i-iwsNPe4vKRGVadVL79-38" value="1" style="text;html=1;resizable=0;labelBackgroundColor=default;align=center;verticalAlign=middle;fontSize=13;" vertex="1" parent="i-iwsNPe4vKRGVadVL79-36">
          <mxGeometry x="-0.9151700829390368" relative="1" as="geometry">
            <mxPoint x="2" y="13" as="offset" />
          </mxGeometry>
        </mxCell>
        <mxCell id="i-iwsNPe4vKRGVadVL79-39" value="1..*" style="text;html=1;resizable=0;labelBackgroundColor=default;align=center;verticalAlign=middle;fontSize=13;" vertex="1" parent="i-iwsNPe4vKRGVadVL79-36">
          <mxGeometry x="0.9281067332789912" relative="1" as="geometry">
            <mxPoint x="-13" y="13" as="offset" />
          </mxGeometry>
        </mxCell>
        <UserObject label="" lucidchartObjectId="R4lc5TQhlQKx" id="i-iwsNPe4vKRGVadVL79-40">
          <mxCell style="html=1;jettySize=18;whiteSpace=wrap;fontSize=13;strokeColor=#333333;strokeOpacity=100;strokeWidth=0.8;rounded=1;arcSize=24;edgeStyle=orthogonalEdgeStyle;startArrow=none;endArrow=none;entryX=0.556;entryY=0.015;entryDx=0;entryDy=0;entryPerimeter=0;" edge="1" parent="i-iwsNPe4vKRGVadVL79-23" source="i-iwsNPe4vKRGVadVL79-32" target="i-iwsNPe4vKRGVadVL79-28">
            <mxGeometry x="0.2637" y="-10" width="100" height="100" relative="1" as="geometry">
              <Array as="points" />
              <mxPoint x="1670" y="740" as="targetPoint" />
              <mxPoint as="offset" />
            </mxGeometry>
          </mxCell>
        </UserObject>
        <mxCell id="i-iwsNPe4vKRGVadVL79-41" value="contient" style="text;html=1;resizable=0;labelBackgroundColor=default;align=center;verticalAlign=middle;fontColor=#333333;fontSize=13;" vertex="1" parent="i-iwsNPe4vKRGVadVL79-40">
          <mxGeometry relative="1" as="geometry">
            <mxPoint y="3" as="offset" />
          </mxGeometry>
        </mxCell>
        <mxCell id="i-iwsNPe4vKRGVadVL79-43" value="1..*" style="text;html=1;resizable=0;labelBackgroundColor=default;align=center;verticalAlign=middle;fontSize=13;" vertex="1" parent="i-iwsNPe4vKRGVadVL79-40">
          <mxGeometry x="0.72704963356145" relative="1" as="geometry">
            <mxPoint x="21" y="-3" as="offset" />
          </mxGeometry>
        </mxCell>
        <mxCell id="i-iwsNPe4vKRGVadVL79-44" parent="i-iwsNPe4vKRGVadVL79-23" />
        <mxCell id="i-iwsNPe4vKRGVadVL79-45" value="" style="group;dropTarget=0;pointerEvents=0;" vertex="1" parent="i-iwsNPe4vKRGVadVL79-44">
          <mxGeometry x="1055" y="40" width="640" height="44" as="geometry" />
        </mxCell>
        <UserObject label="%filename%" placeholders="1" lucidchartObjectId="kWBYl.rsL5rs" id="i-iwsNPe4vKRGVadVL79-46">
          <mxCell style="points=[[0.062,0.967,0],[0.946,0.967,0]];html=1;overflow=block;blockSpacing=1;whiteSpace=wrap;fontSize=19.7;fontColor=#a9afb8;fontStyle=1;align=center;spacingLeft=7;spacingRight=7;spacingTop=2;spacing=3;strokeOpacity=0;fillOpacity=0;rounded=1;absoluteArcSize=1;arcSize=12;fillColor=#ffffff;strokeWidth=1.5;" vertex="1" parent="i-iwsNPe4vKRGVadVL79-45">
            <mxGeometry width="640" height="31" as="geometry" />
          </mxCell>
        </UserObject>
        <UserObject label="%creatorName%  |  %date{mmmm d, yyyy}%" placeholders="1" lucidchartObjectId="kWBYolvidEkw" id="i-iwsNPe4vKRGVadVL79-47">
          <mxCell style="html=1;overflow=block;blockSpacing=1;whiteSpace=wrap;fontSize=11.5;fontColor=#a9afb8;align=center;spacingLeft=7;spacingRight=7;spacingTop=2;spacing=3;strokeOpacity=0;fillOpacity=0;rounded=1;absoluteArcSize=1;arcSize=12;fillColor=#ffffff;strokeWidth=1.5;" vertex="1" parent="i-iwsNPe4vKRGVadVL79-45">
            <mxGeometry y="30" width="640" height="14" as="geometry" />
          </mxCell>
        </UserObject>
        <UserObject label="" lucidchartObjectId="TWlcJLq8VH~c" id="i-iwsNPe4vKRGVadVL79-48">
          <mxCell style="html=1;jettySize=18;whiteSpace=wrap;fontSize=13;strokeColor=#333333;strokeOpacity=100;strokeWidth=0.8;rounded=1;arcSize=24;edgeStyle=orthogonalEdgeStyle;startArrow=diamond;startFill=1;startSize=16;endArrow=none;" edge="1" parent="i-iwsNPe4vKRGVadVL79-1" source="i-iwsNPe4vKRGVadVL79-58" target="i-iwsNPe4vKRGVadVL79-11">
            <mxGeometry width="100" height="100" relative="1" as="geometry">
              <Array as="points" />
              <mxPoint x="960" y="292" as="targetPoint" />
              <mxPoint x="1140" y="360" as="sourcePoint" />
            </mxGeometry>
          </mxCell>
        </UserObject>
        <mxCell id="i-iwsNPe4vKRGVadVL79-49" value="possède" style="text;html=1;resizable=0;labelBackgroundColor=default;align=center;verticalAlign=middle;fontColor=#333333;fontSize=13;" vertex="1" parent="i-iwsNPe4vKRGVadVL79-48">
          <mxGeometry x="0.11853797826988632" relative="1" as="geometry">
            <mxPoint x="3" y="-12" as="offset" />
          </mxGeometry>
        </mxCell>
        <mxCell id="i-iwsNPe4vKRGVadVL79-50" value="1..*" style="text;html=1;resizable=0;labelBackgroundColor=default;align=center;verticalAlign=middle;fontSize=13;" vertex="1" parent="i-iwsNPe4vKRGVadVL79-48">
          <mxGeometry x="-1" relative="1" as="geometry">
            <mxPoint x="-22" y="17" as="offset" />
          </mxGeometry>
        </mxCell>
        <mxCell id="i-iwsNPe4vKRGVadVL79-51" value="1" style="text;html=1;resizable=0;labelBackgroundColor=default;align=center;verticalAlign=middle;fontSize=13;" vertex="1" parent="i-iwsNPe4vKRGVadVL79-48">
          <mxGeometry x="1" relative="1" as="geometry">
            <mxPoint x="10" y="18" as="offset" />
          </mxGeometry>
        </mxCell>
        <mxCell id="i-iwsNPe4vKRGVadVL79-52" parent="i-iwsNPe4vKRGVadVL79-1" />
        <mxCell id="i-iwsNPe4vKRGVadVL79-53" parent="i-iwsNPe4vKRGVadVL79-52" />
        <mxCell id="i-iwsNPe4vKRGVadVL79-54" value="" style="group;dropTarget=0;pointerEvents=0;" vertex="1" parent="i-iwsNPe4vKRGVadVL79-53">
          <mxGeometry x="1055" y="40" width="640" height="44" as="geometry" />
        </mxCell>
        <UserObject label="%filename%" placeholders="1" lucidchartObjectId="kWBYl.rsL5rs" id="i-iwsNPe4vKRGVadVL79-55">
          <mxCell style="points=[[0.062,0.967,0],[0.946,0.967,0]];html=1;overflow=block;blockSpacing=1;whiteSpace=wrap;fontSize=19.7;fontColor=#a9afb8;fontStyle=1;align=center;spacingLeft=7;spacingRight=7;spacingTop=2;spacing=3;strokeOpacity=0;fillOpacity=0;rounded=1;absoluteArcSize=1;arcSize=12;fillColor=#ffffff;strokeWidth=1.5;" vertex="1" parent="i-iwsNPe4vKRGVadVL79-54">
            <mxGeometry width="640" height="31" as="geometry" />
          </mxCell>
        </UserObject>
        <UserObject label="%creatorName%  |  %date{mmmm d, yyyy}%" placeholders="1" lucidchartObjectId="kWBYolvidEkw" id="i-iwsNPe4vKRGVadVL79-56">
          <mxCell style="html=1;overflow=block;blockSpacing=1;whiteSpace=wrap;fontSize=11.5;fontColor=#a9afb8;align=center;spacingLeft=7;spacingRight=7;spacingTop=2;spacing=3;strokeOpacity=0;fillOpacity=0;rounded=1;absoluteArcSize=1;arcSize=12;fillColor=#ffffff;strokeWidth=1.5;" vertex="1" parent="i-iwsNPe4vKRGVadVL79-54">
            <mxGeometry y="30" width="640" height="14" as="geometry" />
          </mxCell>
        </UserObject>
        <mxCell id="i-iwsNPe4vKRGVadVL79-57" parent="i-iwsNPe4vKRGVadVL79-1" />
        <mxCell id="i-iwsNPe4vKRGVadVL79-58" value="Adresse" style="html=1;overflow=block;blockSpacing=1;swimlane;childLayout=stackLayout;horizontal=1;horizontalStack=0;resizeParent=1;resizeParentMax=0;resizeLast=0;collapsible=0;fontStyle=0;marginBottom=0;swimlaneFillColor=#ffffff;startSize=25;whiteSpace=wrap;fontSize=13;fontColor=#333333;align=center;spacing=0;strokeColor=#333333;strokeOpacity=100;fillOpacity=100;rounded=1;absoluteArcSize=1;arcSize=12;fillColor=#ffffff;strokeWidth=0.8;" vertex="1" parent="i-iwsNPe4vKRGVadVL79-57">
          <mxGeometry x="1202.5" y="211.63" width="270" height="189" as="geometry" />
        </mxCell>
        <mxCell id="i-iwsNPe4vKRGVadVL79-59" value="&lt;div style=&quot;display: flex; justify-content: center; text-align: center; align-items: baseline; line-height: 1.25; margin-top: -2px;&quot;&gt;+numéro: int&lt;br&gt;&lt;/div&gt;&lt;div style=&quot;display: flex; justify-content: center; text-align: center; align-items: baseline; font-size: 0; line-height: 1.25;margin-top: -2px;&quot;&gt;&lt;span&gt;&lt;span style=&quot;font-size:13px;color:#333333;&quot;&gt;+modificateur: varchar(4)&lt;br&gt;&lt;/span&gt;&lt;/span&gt;&lt;/div&gt;&lt;div style=&quot;display: flex; justify-content: center; text-align: center; align-items: baseline; font-size: 0; line-height: 1.25;margin-top: -2px;&quot;&gt;&lt;span&gt;&lt;span style=&quot;font-size:13px;color:#333333;&quot;&gt;+rue:string&lt;br&gt;&lt;/span&gt;&lt;/span&gt;&lt;/div&gt;&lt;div style=&quot;display: flex; justify-content: center; text-align: center; align-items: baseline; font-size: 0; line-height: 1.25;margin-top: -2px;&quot;&gt;&lt;span&gt;&lt;span style=&quot;font-size:13px;color:#333333;&quot;&gt;+ville: string&lt;br&gt;&lt;/span&gt;&lt;/span&gt;&lt;/div&gt;&lt;div style=&quot;display: flex; justify-content: center; text-align: center; align-items: baseline; font-size: 0; line-height: 1.25;margin-top: -2px;&quot;&gt;&lt;span&gt;&lt;span style=&quot;font-size:13px;color:#333333;&quot;&gt;+code postal: varchar(5)&lt;br&gt;&lt;/span&gt;&lt;/span&gt;&lt;/div&gt;&lt;div style=&quot;display: flex; justify-content: center; text-align: center; align-items: baseline; font-size: 0; line-height: 1.25;margin-top: -2px;&quot;&gt;&lt;span&gt;&lt;span style=&quot;font-size:13px;color:#333333;&quot;&gt;+longitude: float&lt;br&gt;&lt;/span&gt;&lt;/span&gt;&lt;/div&gt;&lt;div style=&quot;display: flex; justify-content: center; text-align: center; align-items: baseline; line-height: 1.25; margin-top: -2px;&quot;&gt;+latitude: float&lt;br&gt;&lt;/div&gt;&lt;div style=&quot;display: flex; justify-content: center; text-align: center; align-items: baseline; font-size: 0; line-height: 1.25;margin-top: -2px;&quot;&gt;&lt;span&gt;&lt;span style=&quot;font-size:13px;color:#333333;&quot;&gt;&lt;br&gt;&lt;/span&gt;&lt;/span&gt;&lt;/div&gt;&lt;div style=&quot;display: flex; justify-content: center; text-align: center; align-items: baseline; font-size: 0; line-height: 1.25;margin-top: -2px;&quot;&gt;&lt;span&gt;&lt;/span&gt;&lt;/div&gt;" style="part=1;html=1;resizeHeight=0;strokeColor=none;fillColor=none;verticalAlign=middle;spacingLeft=4;spacingRight=4;overflow=hidden;rotatable=0;points=[[0,0.5],[1,0.5]];portConstraint=eastwest;swimlaneFillColor=#ffffff;strokeOpacity=100;fillOpacity=100;whiteSpace=wrap;fontSize=13;fontColor=#333333;align=center;" vertex="1" parent="i-iwsNPe4vKRGVadVL79-58">
          <mxGeometry y="25" width="270" height="115" as="geometry" />
        </mxCell>
        <mxCell id="i-iwsNPe4vKRGVadVL79-60" value="" style="line;strokeWidth=1;fillColor=none;align=left;verticalAlign=middle;spacingTop=-1;spacingLeft=3;spacingRight=3;rotatable=0;labelPosition=right;points=[];portConstraint=eastwest;" vertex="1" parent="i-iwsNPe4vKRGVadVL79-58">
          <mxGeometry y="140" width="270" height="8" as="geometry" />
        </mxCell>
        <mxCell id="i-iwsNPe4vKRGVadVL79-61" value="+ positionAdresse():string" style="part=1;resizeHeight=0;strokeColor=none;fillColor=none;align=left;verticalAlign=middle;spacingLeft=4;spacingRight=4;rotatable=0;points=[[0,0.5],[1,0.5]];portConstraint=eastwest;swimlaneFillColor=#ffffff;strokeOpacity=100;fillOpacity=100;whiteSpace=wrap;overflow=block;blockSpacing=1;html=1;fontSize=13;" vertex="1" parent="i-iwsNPe4vKRGVadVL79-58">
          <mxGeometry y="148" width="270" height="41" as="geometry" />
        </mxCell>
        <mxCell id="i-iwsNPe4vKRGVadVL79-62" parent="i-iwsNPe4vKRGVadVL79-57" />
        <mxCell id="i-iwsNPe4vKRGVadVL79-63" value="" style="group;dropTarget=0;pointerEvents=0;" vertex="1" parent="i-iwsNPe4vKRGVadVL79-62">
          <mxGeometry x="1055" y="40" width="640" height="44" as="geometry" />
        </mxCell>
        <UserObject label="%filename%" placeholders="1" lucidchartObjectId="kWBYl.rsL5rs" id="i-iwsNPe4vKRGVadVL79-64">
          <mxCell style="points=[[0.062,0.967,0],[0.946,0.967,0]];html=1;overflow=block;blockSpacing=1;whiteSpace=wrap;fontSize=19.7;fontColor=#a9afb8;fontStyle=1;align=center;spacingLeft=7;spacingRight=7;spacingTop=2;spacing=3;strokeOpacity=0;fillOpacity=0;rounded=1;absoluteArcSize=1;arcSize=12;fillColor=#ffffff;strokeWidth=1.5;" vertex="1" parent="i-iwsNPe4vKRGVadVL79-63">
            <mxGeometry width="640" height="31" as="geometry" />
          </mxCell>
        </UserObject>
        <UserObject label="%creatorName%  |  %date{mmmm d, yyyy}%" placeholders="1" lucidchartObjectId="kWBYolvidEkw" id="i-iwsNPe4vKRGVadVL79-65">
          <mxCell style="html=1;overflow=block;blockSpacing=1;whiteSpace=wrap;fontSize=11.5;fontColor=#a9afb8;align=center;spacingLeft=7;spacingRight=7;spacingTop=2;spacing=3;strokeOpacity=0;fillOpacity=0;rounded=1;absoluteArcSize=1;arcSize=12;fillColor=#ffffff;strokeWidth=1.5;" vertex="1" parent="i-iwsNPe4vKRGVadVL79-63">
            <mxGeometry y="30" width="640" height="14" as="geometry" />
          </mxCell>
        </UserObject>
        <UserObject label="" lucidchartObjectId="J2lc4CfqBbUZ" id="i-iwsNPe4vKRGVadVL79-66">
          <mxCell style="html=1;jettySize=18;whiteSpace=wrap;fontSize=13;strokeColor=#333333;strokeOpacity=100;strokeWidth=0.8;rounded=1;arcSize=24;edgeStyle=orthogonalEdgeStyle;startArrow=none;endArrow=none;" edge="1" parent="i-iwsNPe4vKRGVadVL79-1" source="i-iwsNPe4vKRGVadVL79-58" target="i-iwsNPe4vKRGVadVL79-32">
            <mxGeometry x="-1" y="-85" width="100" height="100" relative="1" as="geometry">
              <Array as="points" />
              <mxPoint x="1040" y="180" as="sourcePoint" />
              <mxPoint x="-85" y="85" as="offset" />
              <mxPoint x="1337.5" y="488" as="targetPoint" />
            </mxGeometry>
          </mxCell>
        </UserObject>
        <mxCell id="i-iwsNPe4vKRGVadVL79-67" value="livré à" style="text;html=1;resizable=0;labelBackgroundColor=default;align=center;verticalAlign=middle;fontColor=#333333;fontSize=13;" vertex="1" parent="i-iwsNPe4vKRGVadVL79-66">
          <mxGeometry x="-0.12219373984894766" relative="1" as="geometry" />
        </mxCell>
        <mxCell id="i-iwsNPe4vKRGVadVL79-68" value="1" style="text;html=1;resizable=0;labelBackgroundColor=default;align=center;verticalAlign=middle;fontSize=13;" vertex="1" parent="i-iwsNPe4vKRGVadVL79-66">
          <mxGeometry x="-0.7500492574160841" relative="1" as="geometry">
            <mxPoint x="13" y="6" as="offset" />
          </mxGeometry>
        </mxCell>
        <mxCell id="i-iwsNPe4vKRGVadVL79-69" value="0..*" style="text;html=1;resizable=0;labelBackgroundColor=default;align=center;verticalAlign=middle;fontSize=13;" vertex="1" parent="i-iwsNPe4vKRGVadVL79-66">
          <mxGeometry x="0.6027181532807833" relative="1" as="geometry">
            <mxPoint x="13" y="3" as="offset" />
          </mxGeometry>
        </mxCell>
        <mxCell id="i-iwsNPe4vKRGVadVL79-70" style="edgeStyle=orthogonalEdgeStyle;rounded=0;orthogonalLoop=1;jettySize=auto;html=1;exitX=0;exitY=0;exitDx=0;exitDy=0;" edge="1" parent="i-iwsNPe4vKRGVadVL79-1" source="i-iwsNPe4vKRGVadVL79-41" target="i-iwsNPe4vKRGVadVL79-52">
          <mxGeometry relative="1" as="geometry" />
        </mxCell>
        <mxCell id="i-iwsNPe4vKRGVadVL79-72" parent="1" />
        <mxCell id="i-iwsNPe4vKRGVadVL79-73" value="Livreur" style="html=1;overflow=block;blockSpacing=1;swimlane;childLayout=stackLayout;horizontal=1;horizontalStack=0;resizeParent=1;resizeParentMax=0;resizeLast=0;collapsible=0;fontStyle=0;marginBottom=0;swimlaneFillColor=#ffffff;startSize=25;whiteSpace=wrap;fontSize=13;fontColor=#333333;align=center;spacing=0;strokeColor=#333333;strokeOpacity=100;fillOpacity=100;rounded=1;absoluteArcSize=1;arcSize=12;fillColor=#ffffff;strokeWidth=0.8;" vertex="1" parent="i-iwsNPe4vKRGVadVL79-72">
          <mxGeometry x="680" y="524" width="270" height="133.25" as="geometry" />
        </mxCell>
        <mxCell id="i-iwsNPe4vKRGVadVL79-74" value="&lt;div style=&quot;display: flex; justify-content: center; text-align: center; align-items: baseline; font-size: 0; line-height: 1.25;margin-top: -2px;&quot;&gt;&lt;span&gt;&lt;span style=&quot;font-size:13px;color:#333333;&quot;&gt;+statut :string&lt;br&gt;&lt;/span&gt;&lt;/span&gt;&lt;/div&gt;&lt;div style=&quot;display: flex; justify-content: center; text-align: center; align-items: baseline; line-height: 1.25; margin-top: -2px;&quot;&gt;+latitude: float&lt;br&gt;&lt;/div&gt;&lt;div style=&quot;display: flex; justify-content: center; text-align: center; align-items: baseline; font-size: 0; line-height: 1.25;margin-top: -2px;&quot;&gt;&lt;span&gt;&lt;span style=&quot;font-size:13px;color:#333333;&quot;&gt;+longitude: float&lt;/span&gt;&lt;/span&gt;&lt;/div&gt;" style="part=1;html=1;resizeHeight=0;strokeColor=none;fillColor=none;verticalAlign=middle;spacingLeft=4;spacingRight=4;overflow=hidden;rotatable=0;points=[[0,0.5],[1,0.5]];portConstraint=eastwest;swimlaneFillColor=#ffffff;strokeOpacity=100;fillOpacity=100;whiteSpace=wrap;fontSize=13;fontColor=#333333;align=center;" vertex="1" parent="i-iwsNPe4vKRGVadVL79-73">
          <mxGeometry y="25" width="270" height="65" as="geometry" />
        </mxCell>
        <mxCell id="i-iwsNPe4vKRGVadVL79-75" value="" style="line;strokeWidth=1;fillColor=none;align=left;verticalAlign=middle;spacingTop=-1;spacingLeft=3;spacingRight=3;rotatable=0;labelPosition=right;points=[];portConstraint=eastwest;" vertex="1" parent="i-iwsNPe4vKRGVadVL79-73">
          <mxGeometry y="90" width="270" height="8" as="geometry" />
        </mxCell>
        <mxCell id="i-iwsNPe4vKRGVadVL79-76" value="+positionLivreur():string" style="part=1;resizeHeight=0;strokeColor=none;fillColor=none;align=left;verticalAlign=middle;spacingLeft=4;spacingRight=4;rotatable=0;points=[[0,0.5],[1,0.5]];portConstraint=eastwest;swimlaneFillColor=#ffffff;strokeOpacity=100;fillOpacity=100;whiteSpace=wrap;overflow=block;blockSpacing=1;html=1;fontSize=13;" vertex="1" parent="i-iwsNPe4vKRGVadVL79-73">
          <mxGeometry y="98" width="270" height="35.25" as="geometry" />
        </mxCell>
        <mxCell id="i-iwsNPe4vKRGVadVL79-77" value="plat du jour" style="html=1;overflow=block;blockSpacing=1;swimlane;childLayout=stackLayout;horizontal=1;horizontalStack=0;resizeParent=1;resizeParentMax=0;resizeLast=0;collapsible=0;marginBottom=0;swimlaneFillColor=#ffffff;startSize=25;whiteSpace=wrap;fontSize=13;fontColor=#333333;fontStyle=2;align=center;spacing=0;strokeColor=#333333;strokeOpacity=100;fillOpacity=100;rounded=1;absoluteArcSize=1;arcSize=12;fillColor=#ffffff;strokeWidth=0.8;" vertex="1" parent="i-iwsNPe4vKRGVadVL79-72">
          <mxGeometry x="1190" y="800" width="270" height="137.25" as="geometry" />
        </mxCell>
        <mxCell id="i-iwsNPe4vKRGVadVL79-78" value="&lt;div style=&quot;display: flex; justify-content: center; text-align: center; align-items: baseline; font-size: 0; line-height: 1.25;margin-top: -2px;&quot;&gt;&lt;span&gt;&lt;span style=&quot;font-size:13px;color:#333333;&quot;&gt;+ nom : string&#xa;&lt;/span&gt;&lt;/span&gt;&lt;/div&gt;&lt;div style=&quot;display: flex; justify-content: center; text-align: center; align-items: baseline; font-size: 0; line-height: 1.25;margin-top: -2px;&quot;&gt;&lt;span&gt;&lt;span style=&quot;font-size:13px;color:#333333;&quot;&gt;+chef :string&#xa;&lt;/span&gt;&lt;/span&gt;&lt;/div&gt;&lt;div style=&quot;display: flex; justify-content: center; text-align: center; align-items: baseline; font-size: 0; line-height: 1.25;margin-top: -2px;&quot;&gt;&lt;span&gt;&lt;span style=&quot;font-size:13px;color:#333333;&quot;&gt;+ type : string&#xa;&lt;/span&gt;&lt;/span&gt;&lt;/div&gt;&lt;div style=&quot;display: flex; justify-content: center; text-align: center; align-items: baseline; font-size: 0; line-height: 1.25;margin-top: -2px;&quot;&gt;&lt;span&gt;&lt;span style=&quot;font-size:13px;color:#333333;&quot;&gt;+jour :date&#xa;&lt;/span&gt;&lt;/span&gt;&lt;/div&gt;&lt;div style=&quot;display: flex; justify-content: center; text-align: center; align-items: baseline; font-size: 0; line-height: 1.25;margin-top: -2px;&quot;&gt;&lt;span&gt;&lt;span style=&quot;font-size:13px;color:#333333;&quot;&gt;+prix :int&lt;/span&gt;&lt;/span&gt;&lt;/div&gt;" style="part=1;html=1;resizeHeight=0;strokeColor=none;fillColor=none;verticalAlign=middle;spacingLeft=4;spacingRight=4;overflow=hidden;rotatable=0;points=[[0,0.5],[1,0.5]];portConstraint=eastwest;swimlaneFillColor=#ffffff;strokeOpacity=100;fillOpacity=100;whiteSpace=wrap;fontSize=13;fontColor=#333333;align=center;" vertex="1" parent="i-iwsNPe4vKRGVadVL79-77">
          <mxGeometry y="25" width="270" height="87" as="geometry" />
        </mxCell>
        <mxCell id="i-iwsNPe4vKRGVadVL79-79" value="" style="line;strokeWidth=1;fillColor=none;align=left;verticalAlign=middle;spacingTop=-1;spacingLeft=3;spacingRight=3;rotatable=0;labelPosition=right;points=[];portConstraint=eastwest;" vertex="1" parent="i-iwsNPe4vKRGVadVL79-77">
          <mxGeometry y="112" width="270" height="8" as="geometry" />
        </mxCell>
        <mxCell id="i-iwsNPe4vKRGVadVL79-80" value="" style="part=1;resizeHeight=0;strokeColor=none;fillColor=none;align=left;verticalAlign=middle;spacingLeft=4;spacingRight=4;rotatable=0;points=[[0,0.5],[1,0.5]];portConstraint=eastwest;swimlaneFillColor=#ffffff;strokeOpacity=100;fillOpacity=100;whiteSpace=wrap;overflow=block;blockSpacing=1;html=1;fontSize=13;" vertex="1" parent="i-iwsNPe4vKRGVadVL79-77">
          <mxGeometry y="120" width="270" height="17.25" as="geometry" />
        </mxCell>
        <mxCell id="i-iwsNPe4vKRGVadVL79-81" value="Commande" style="html=1;overflow=block;blockSpacing=1;swimlane;childLayout=stackLayout;horizontal=1;horizontalStack=0;resizeParent=1;resizeParentMax=0;resizeLast=0;collapsible=0;fontStyle=0;marginBottom=0;swimlaneFillColor=#ffffff;startSize=25;whiteSpace=wrap;fontSize=13;fontColor=#333333;align=center;spacing=0;strokeColor=#333333;strokeOpacity=100;fillOpacity=100;rounded=1;absoluteArcSize=1;arcSize=12;fillColor=#ffffff;strokeWidth=0.8;" vertex="1" parent="i-iwsNPe4vKRGVadVL79-72">
          <mxGeometry x="1150" y="508" width="375" height="165.25" as="geometry" />
        </mxCell>
        <mxCell id="i-iwsNPe4vKRGVadVL79-82" value="&lt;div style=&quot;display: flex; justify-content: center; text-align: center; align-items: baseline; font-size: 0; line-height: 1.25;margin-top: -2px;&quot;&gt;&lt;span&gt;&lt;span style=&quot;font-size:13px;color:#333333;&quot;&gt;+dateCommande : date&lt;br&gt;&lt;/span&gt;&lt;/span&gt;&lt;/div&gt;&lt;div style=&quot;display: flex; justify-content: center; text-align: center; align-items: baseline; font-size: 0; line-height: 1.25;margin-top: -2px;&quot;&gt;&lt;span&gt;&lt;span style=&quot;font-size:13px;color:#333333;&quot;&gt;+livreur: string&lt;br&gt;&lt;/span&gt;&lt;/span&gt;&lt;/div&gt;&lt;div style=&quot;display: flex; justify-content: center; text-align: center; align-items: baseline; font-size: 0; line-height: 1.25;margin-top: -2px;&quot;&gt;&lt;span&gt;&lt;span style=&quot;font-size:13px;color:#333333;&quot;&gt;+status :string&amp;nbsp;&lt;br&gt;&lt;/span&gt;&lt;/span&gt;&lt;/div&gt;&lt;div style=&quot;display: flex; justify-content: center; text-align: center; align-items: baseline; font-size: 0; line-height: 1.25;margin-top: -2px;&quot;&gt;&lt;span&gt;&lt;span style=&quot;font-size:13px;color:#333333;&quot;&gt;+heureArrivé: int&lt;/span&gt;&lt;/span&gt;&lt;/div&gt;" style="part=1;html=1;resizeHeight=0;strokeColor=none;fillColor=none;verticalAlign=middle;spacingLeft=4;spacingRight=4;overflow=hidden;rotatable=0;points=[[0,0.5],[1,0.5]];portConstraint=eastwest;swimlaneFillColor=#ffffff;strokeOpacity=100;fillOpacity=100;whiteSpace=wrap;fontSize=13;fontColor=#333333;align=center;" vertex="1" parent="i-iwsNPe4vKRGVadVL79-81">
          <mxGeometry y="25" width="375" height="79" as="geometry" />
        </mxCell>
        <mxCell id="i-iwsNPe4vKRGVadVL79-83" value="" style="line;strokeWidth=1;fillColor=none;align=left;verticalAlign=middle;spacingTop=-1;spacingLeft=3;spacingRight=3;rotatable=0;labelPosition=right;points=[];portConstraint=eastwest;" vertex="1" parent="i-iwsNPe4vKRGVadVL79-81">
          <mxGeometry y="104" width="375" height="8" as="geometry" />
        </mxCell>
        <mxCell id="i-iwsNPe4vKRGVadVL79-84" value="&lt;div style=&quot;display: flex; justify-content: center; text-align: center; align-items: baseline; font-size: 0; line-height: 1.25;margin-top: -2px;&quot;&gt;&lt;span&gt;&lt;span style=&quot;font-size:13px;color:#333333;&quot;&gt;+ choixLivreur(positionAdresse,positionLivreur):string&#xa;&lt;/span&gt;&lt;/span&gt;&lt;/div&gt;&lt;div style=&quot;display: flex; justify-content: center; text-align: center; align-items: baseline; font-size: 0; line-height: 1.25;margin-top: -2px;&quot;&gt;&lt;span&gt;&lt;span style=&quot;font-size:13px;color:#333333;&quot;&gt;+ETA(positionAdresse,positionLivreur):date&lt;/span&gt;&lt;/span&gt;&lt;/div&gt;" style="part=1;resizeHeight=0;strokeColor=none;fillColor=none;align=left;verticalAlign=middle;spacingLeft=4;spacingRight=4;rotatable=0;points=[[0,0.5],[1,0.5]];portConstraint=eastwest;swimlaneFillColor=#ffffff;strokeOpacity=100;fillOpacity=100;whiteSpace=wrap;overflow=block;blockSpacing=1;html=1;fontSize=13;" vertex="1" parent="i-iwsNPe4vKRGVadVL79-81">
          <mxGeometry y="112" width="375" height="53.25" as="geometry" />
        </mxCell>
        <UserObject label="" lucidchartObjectId="a3lcvIBLx3UH" id="i-iwsNPe4vKRGVadVL79-85">
          <mxCell style="html=1;jettySize=18;whiteSpace=wrap;fontSize=13;strokeColor=#333333;strokeOpacity=100;strokeWidth=0.8;rounded=1;arcSize=24;edgeStyle=orthogonalEdgeStyle;startArrow=none;endArrow=none;" edge="1" parent="i-iwsNPe4vKRGVadVL79-72" source="i-iwsNPe4vKRGVadVL79-73" target="i-iwsNPe4vKRGVadVL79-81">
            <mxGeometry width="100" height="100" relative="1" as="geometry">
              <Array as="points" />
            </mxGeometry>
          </mxCell>
        </UserObject>
        <mxCell id="i-iwsNPe4vKRGVadVL79-86" value="livre" style="text;html=1;resizable=0;labelBackgroundColor=default;align=center;verticalAlign=middle;fontColor=#333333;fontSize=13;" vertex="1" parent="i-iwsNPe4vKRGVadVL79-85">
          <mxGeometry relative="1" as="geometry">
            <mxPoint x="13" y="-8" as="offset" />
          </mxGeometry>
        </mxCell>
        <mxCell id="i-iwsNPe4vKRGVadVL79-87" value="1" style="text;html=1;resizable=0;labelBackgroundColor=default;align=center;verticalAlign=middle;fontSize=13;" vertex="1" parent="i-iwsNPe4vKRGVadVL79-85">
          <mxGeometry x="-0.9151700829390368" relative="1" as="geometry">
            <mxPoint x="2" y="13" as="offset" />
          </mxGeometry>
        </mxCell>
        <mxCell id="i-iwsNPe4vKRGVadVL79-88" value="1..*" style="text;html=1;resizable=0;labelBackgroundColor=default;align=center;verticalAlign=middle;fontSize=13;" vertex="1" parent="i-iwsNPe4vKRGVadVL79-85">
          <mxGeometry x="0.9281067332789912" relative="1" as="geometry">
            <mxPoint x="-13" y="13" as="offset" />
          </mxGeometry>
        </mxCell>
        <UserObject label="" lucidchartObjectId="R4lc5TQhlQKx" id="i-iwsNPe4vKRGVadVL79-89">
          <mxCell style="html=1;jettySize=18;whiteSpace=wrap;fontSize=13;strokeColor=#333333;strokeOpacity=100;strokeWidth=0.8;rounded=1;arcSize=24;edgeStyle=orthogonalEdgeStyle;startArrow=none;endArrow=none;entryX=0.556;entryY=0.015;entryDx=0;entryDy=0;entryPerimeter=0;" edge="1" parent="i-iwsNPe4vKRGVadVL79-72" source="i-iwsNPe4vKRGVadVL79-81" target="i-iwsNPe4vKRGVadVL79-77">
            <mxGeometry x="0.2637" y="-10" width="100" height="100" relative="1" as="geometry">
              <Array as="points" />
              <mxPoint x="1670" y="740" as="targetPoint" />
              <mxPoint as="offset" />
            </mxGeometry>
          </mxCell>
        </UserObject>
        <mxCell id="i-iwsNPe4vKRGVadVL79-90" value="contient" style="text;html=1;resizable=0;labelBackgroundColor=default;align=center;verticalAlign=middle;fontColor=#333333;fontSize=13;" vertex="1" parent="i-iwsNPe4vKRGVadVL79-89">
          <mxGeometry relative="1" as="geometry">
            <mxPoint y="3" as="offset" />
          </mxGeometry>
        </mxCell>
        <mxCell id="i-iwsNPe4vKRGVadVL79-92" value="1..*" style="text;html=1;resizable=0;labelBackgroundColor=default;align=center;verticalAlign=middle;fontSize=13;" vertex="1" parent="i-iwsNPe4vKRGVadVL79-89">
          <mxGeometry x="0.72704963356145" relative="1" as="geometry">
            <mxPoint x="21" y="-3" as="offset" />
          </mxGeometry>
        </mxCell>
        <mxCell id="i-iwsNPe4vKRGVadVL79-93" parent="i-iwsNPe4vKRGVadVL79-72" />
        <mxCell id="i-iwsNPe4vKRGVadVL79-94" value="" style="group;dropTarget=0;pointerEvents=0;" vertex="1" parent="i-iwsNPe4vKRGVadVL79-93">
          <mxGeometry x="1055" y="40" width="640" height="44" as="geometry" />
        </mxCell>
        <UserObject label="%filename%" placeholders="1" lucidchartObjectId="kWBYl.rsL5rs" id="i-iwsNPe4vKRGVadVL79-95">
          <mxCell style="points=[[0.062,0.967,0],[0.946,0.967,0]];html=1;overflow=block;blockSpacing=1;whiteSpace=wrap;fontSize=19.7;fontColor=#a9afb8;fontStyle=1;align=center;spacingLeft=7;spacingRight=7;spacingTop=2;spacing=3;strokeOpacity=0;fillOpacity=0;rounded=1;absoluteArcSize=1;arcSize=12;fillColor=#ffffff;strokeWidth=1.5;" vertex="1" parent="i-iwsNPe4vKRGVadVL79-94">
            <mxGeometry width="640" height="31" as="geometry" />
          </mxCell>
        </UserObject>
        <UserObject label="%creatorName%  |  %date{mmmm d, yyyy}%" placeholders="1" lucidchartObjectId="kWBYolvidEkw" id="i-iwsNPe4vKRGVadVL79-96">
          <mxCell style="html=1;overflow=block;blockSpacing=1;whiteSpace=wrap;fontSize=11.5;fontColor=#a9afb8;align=center;spacingLeft=7;spacingRight=7;spacingTop=2;spacing=3;strokeOpacity=0;fillOpacity=0;rounded=1;absoluteArcSize=1;arcSize=12;fillColor=#ffffff;strokeWidth=1.5;" vertex="1" parent="i-iwsNPe4vKRGVadVL79-94">
            <mxGeometry y="30" width="640" height="14" as="geometry" />
          </mxCell>
        </UserObject>
        <mxCell id="i-iwsNPe4vKRGVadVL79-98" parent="1" />
        <mxCell id="i-iwsNPe4vKRGVadVL79-99" value="Livreur" style="html=1;overflow=block;blockSpacing=1;swimlane;childLayout=stackLayout;horizontal=1;horizontalStack=0;resizeParent=1;resizeParentMax=0;resizeLast=0;collapsible=0;fontStyle=0;marginBottom=0;swimlaneFillColor=#ffffff;startSize=25;whiteSpace=wrap;fontSize=13;fontColor=#333333;align=center;spacing=0;strokeColor=#333333;strokeOpacity=100;fillOpacity=100;rounded=1;absoluteArcSize=1;arcSize=12;fillColor=#ffffff;strokeWidth=0.8;" vertex="1" parent="i-iwsNPe4vKRGVadVL79-98">
          <mxGeometry x="680" y="524" width="270" height="133.25" as="geometry" />
        </mxCell>
        <mxCell id="i-iwsNPe4vKRGVadVL79-100" value="&lt;div style=&quot;display: flex; justify-content: center; text-align: center; align-items: baseline; font-size: 0; line-height: 1.25;margin-top: -2px;&quot;&gt;&lt;span&gt;&lt;span style=&quot;font-size:13px;color:#333333;&quot;&gt;+statut :string&lt;br&gt;&lt;/span&gt;&lt;/span&gt;&lt;/div&gt;&lt;div style=&quot;display: flex; justify-content: center; text-align: center; align-items: baseline; font-size: 0; line-height: 1.25;margin-top: -2px;&quot;&gt;&lt;span&gt;&lt;span style=&quot;font-size:13px;color:#333333;&quot;&gt;+lattitude: float&lt;br&gt;&lt;/span&gt;&lt;/span&gt;&lt;/div&gt;&lt;div style=&quot;display: flex; justify-content: center; text-align: center; align-items: baseline; font-size: 0; line-height: 1.25;margin-top: -2px;&quot;&gt;&lt;span&gt;&lt;span style=&quot;font-size:13px;color:#333333;&quot;&gt;+longitude:float&lt;/span&gt;&lt;/span&gt;&lt;/div&gt;" style="part=1;html=1;resizeHeight=0;strokeColor=none;fillColor=none;verticalAlign=middle;spacingLeft=4;spacingRight=4;overflow=hidden;rotatable=0;points=[[0,0.5],[1,0.5]];portConstraint=eastwest;swimlaneFillColor=#ffffff;strokeOpacity=100;fillOpacity=100;whiteSpace=wrap;fontSize=13;fontColor=#333333;align=center;" vertex="1" parent="i-iwsNPe4vKRGVadVL79-99">
          <mxGeometry y="25" width="270" height="65" as="geometry" />
        </mxCell>
        <mxCell id="i-iwsNPe4vKRGVadVL79-101" value="" style="line;strokeWidth=1;fillColor=none;align=left;verticalAlign=middle;spacingTop=-1;spacingLeft=3;spacingRight=3;rotatable=0;labelPosition=right;points=[];portConstraint=eastwest;" vertex="1" parent="i-iwsNPe4vKRGVadVL79-99">
          <mxGeometry y="90" width="270" height="8" as="geometry" />
        </mxCell>
        <mxCell id="i-iwsNPe4vKRGVadVL79-102" value="+positionLivreur():string" style="part=1;resizeHeight=0;strokeColor=none;fillColor=none;align=left;verticalAlign=middle;spacingLeft=4;spacingRight=4;rotatable=0;points=[[0,0.5],[1,0.5]];portConstraint=eastwest;swimlaneFillColor=#ffffff;strokeOpacity=100;fillOpacity=100;whiteSpace=wrap;overflow=block;blockSpacing=1;html=1;fontSize=13;" vertex="1" parent="i-iwsNPe4vKRGVadVL79-99">
          <mxGeometry y="98" width="270" height="35.25" as="geometry" />
        </mxCell>
        <mxCell id="i-iwsNPe4vKRGVadVL79-103" value="plat du jour" style="html=1;overflow=block;blockSpacing=1;swimlane;childLayout=stackLayout;horizontal=1;horizontalStack=0;resizeParent=1;resizeParentMax=0;resizeLast=0;collapsible=0;marginBottom=0;swimlaneFillColor=#ffffff;startSize=25;whiteSpace=wrap;fontSize=13;fontColor=#333333;fontStyle=2;align=center;spacing=0;strokeColor=#333333;strokeOpacity=100;fillOpacity=100;rounded=1;absoluteArcSize=1;arcSize=12;fillColor=#ffffff;strokeWidth=0.8;" vertex="1" parent="i-iwsNPe4vKRGVadVL79-98">
          <mxGeometry x="1190" y="800" width="270" height="137.25" as="geometry" />
        </mxCell>
        <mxCell id="i-iwsNPe4vKRGVadVL79-104" value="&lt;div style=&quot;display: flex; justify-content: center; text-align: center; align-items: baseline; font-size: 0; line-height: 1.25;margin-top: -2px;&quot;&gt;&lt;span&gt;&lt;span style=&quot;font-size:13px;color:#333333;&quot;&gt;+ nom : string&#xa;&lt;/span&gt;&lt;/span&gt;&lt;/div&gt;&lt;div style=&quot;display: flex; justify-content: center; text-align: center; align-items: baseline; font-size: 0; line-height: 1.25;margin-top: -2px;&quot;&gt;&lt;span&gt;&lt;span style=&quot;font-size:13px;color:#333333;&quot;&gt;+chef :string&#xa;&lt;/span&gt;&lt;/span&gt;&lt;/div&gt;&lt;div style=&quot;display: flex; justify-content: center; text-align: center; align-items: baseline; font-size: 0; line-height: 1.25;margin-top: -2px;&quot;&gt;&lt;span&gt;&lt;span style=&quot;font-size:13px;color:#333333;&quot;&gt;+ type : string&#xa;&lt;/span&gt;&lt;/span&gt;&lt;/div&gt;&lt;div style=&quot;display: flex; justify-content: center; text-align: center; align-items: baseline; font-size: 0; line-height: 1.25;margin-top: -2px;&quot;&gt;&lt;span&gt;&lt;span style=&quot;font-size:13px;color:#333333;&quot;&gt;+jour :date&#xa;&lt;/span&gt;&lt;/span&gt;&lt;/div&gt;&lt;div style=&quot;display: flex; justify-content: center; text-align: center; align-items: baseline; font-size: 0; line-height: 1.25;margin-top: -2px;&quot;&gt;&lt;span&gt;&lt;span style=&quot;font-size:13px;color:#333333;&quot;&gt;+prix :int&lt;/span&gt;&lt;/span&gt;&lt;/div&gt;" style="part=1;html=1;resizeHeight=0;strokeColor=none;fillColor=none;verticalAlign=middle;spacingLeft=4;spacingRight=4;overflow=hidden;rotatable=0;points=[[0,0.5],[1,0.5]];portConstraint=eastwest;swimlaneFillColor=#ffffff;strokeOpacity=100;fillOpacity=100;whiteSpace=wrap;fontSize=13;fontColor=#333333;align=center;" vertex="1" parent="i-iwsNPe4vKRGVadVL79-103">
          <mxGeometry y="25" width="270" height="87" as="geometry" />
        </mxCell>
        <mxCell id="i-iwsNPe4vKRGVadVL79-105" value="" style="line;strokeWidth=1;fillColor=none;align=left;verticalAlign=middle;spacingTop=-1;spacingLeft=3;spacingRight=3;rotatable=0;labelPosition=right;points=[];portConstraint=eastwest;" vertex="1" parent="i-iwsNPe4vKRGVadVL79-103">
          <mxGeometry y="112" width="270" height="8" as="geometry" />
        </mxCell>
        <mxCell id="i-iwsNPe4vKRGVadVL79-106" value="" style="part=1;resizeHeight=0;strokeColor=none;fillColor=none;align=left;verticalAlign=middle;spacingLeft=4;spacingRight=4;rotatable=0;points=[[0,0.5],[1,0.5]];portConstraint=eastwest;swimlaneFillColor=#ffffff;strokeOpacity=100;fillOpacity=100;whiteSpace=wrap;overflow=block;blockSpacing=1;html=1;fontSize=13;" vertex="1" parent="i-iwsNPe4vKRGVadVL79-103">
          <mxGeometry y="120" width="270" height="17.25" as="geometry" />
        </mxCell>
        <mxCell id="i-iwsNPe4vKRGVadVL79-107" value="Commande" style="html=1;overflow=block;blockSpacing=1;swimlane;childLayout=stackLayout;horizontal=1;horizontalStack=0;resizeParent=1;resizeParentMax=0;resizeLast=0;collapsible=0;fontStyle=0;marginBottom=0;swimlaneFillColor=#ffffff;startSize=25;whiteSpace=wrap;fontSize=13;fontColor=#333333;align=center;spacing=0;strokeColor=#333333;strokeOpacity=100;fillOpacity=100;rounded=1;absoluteArcSize=1;arcSize=12;fillColor=#ffffff;strokeWidth=0.8;" vertex="1" parent="i-iwsNPe4vKRGVadVL79-98">
          <mxGeometry x="1150" y="508" width="375" height="165.25" as="geometry" />
        </mxCell>
        <mxCell id="i-iwsNPe4vKRGVadVL79-108" value="&lt;div style=&quot;display: flex; justify-content: center; text-align: center; align-items: baseline; font-size: 0; line-height: 1.25;margin-top: -2px;&quot;&gt;&lt;span&gt;&lt;span style=&quot;font-size:13px;color:#333333;&quot;&gt;+dateCommande : date&lt;br&gt;&lt;/span&gt;&lt;/span&gt;&lt;/div&gt;&lt;div style=&quot;display: flex; justify-content: center; text-align: center; align-items: baseline; font-size: 0; line-height: 1.25;margin-top: -2px;&quot;&gt;&lt;span&gt;&lt;span style=&quot;font-size:13px;color:#333333;&quot;&gt;+livreur: string&lt;br&gt;&lt;/span&gt;&lt;/span&gt;&lt;/div&gt;&lt;div style=&quot;display: flex; justify-content: center; text-align: center; align-items: baseline; font-size: 0; line-height: 1.25;margin-top: -2px;&quot;&gt;&lt;span&gt;&lt;span style=&quot;font-size:13px;color:#333333;&quot;&gt;+status :string&amp;nbsp;&lt;br&gt;&lt;/span&gt;&lt;/span&gt;&lt;/div&gt;&lt;div style=&quot;display: flex; justify-content: center; text-align: center; align-items: baseline; font-size: 0; line-height: 1.25;margin-top: -2px;&quot;&gt;&lt;span&gt;&lt;span style=&quot;font-size:13px;color:#333333;&quot;&gt;+heureArrivé: int&lt;/span&gt;&lt;/span&gt;&lt;/div&gt;" style="part=1;html=1;resizeHeight=0;strokeColor=none;fillColor=none;verticalAlign=middle;spacingLeft=4;spacingRight=4;overflow=hidden;rotatable=0;points=[[0,0.5],[1,0.5]];portConstraint=eastwest;swimlaneFillColor=#ffffff;strokeOpacity=100;fillOpacity=100;whiteSpace=wrap;fontSize=13;fontColor=#333333;align=center;" vertex="1" parent="i-iwsNPe4vKRGVadVL79-107">
          <mxGeometry y="25" width="375" height="79" as="geometry" />
        </mxCell>
        <mxCell id="i-iwsNPe4vKRGVadVL79-109" value="" style="line;strokeWidth=1;fillColor=none;align=left;verticalAlign=middle;spacingTop=-1;spacingLeft=3;spacingRight=3;rotatable=0;labelPosition=right;points=[];portConstraint=eastwest;" vertex="1" parent="i-iwsNPe4vKRGVadVL79-107">
          <mxGeometry y="104" width="375" height="8" as="geometry" />
        </mxCell>
        <mxCell id="i-iwsNPe4vKRGVadVL79-110" value="&lt;div style=&quot;display: flex; justify-content: center; text-align: center; align-items: baseline; font-size: 0; line-height: 1.25;margin-top: -2px;&quot;&gt;&lt;span&gt;&lt;span style=&quot;font-size:13px;color:#333333;&quot;&gt;+ choixLivreur(positionAdresse,positionLivreur):string&#xa;&lt;/span&gt;&lt;/span&gt;&lt;/div&gt;&lt;div style=&quot;display: flex; justify-content: center; text-align: center; align-items: baseline; font-size: 0; line-height: 1.25;margin-top: -2px;&quot;&gt;&lt;span&gt;&lt;span style=&quot;font-size:13px;color:#333333;&quot;&gt;+ETA(positionAdresse,positionLivreur):date&lt;/span&gt;&lt;/span&gt;&lt;/div&gt;" style="part=1;resizeHeight=0;strokeColor=none;fillColor=none;align=left;verticalAlign=middle;spacingLeft=4;spacingRight=4;rotatable=0;points=[[0,0.5],[1,0.5]];portConstraint=eastwest;swimlaneFillColor=#ffffff;strokeOpacity=100;fillOpacity=100;whiteSpace=wrap;overflow=block;blockSpacing=1;html=1;fontSize=13;" vertex="1" parent="i-iwsNPe4vKRGVadVL79-107">
          <mxGeometry y="112" width="375" height="53.25" as="geometry" />
        </mxCell>
        <UserObject label="" lucidchartObjectId="a3lcvIBLx3UH" id="i-iwsNPe4vKRGVadVL79-111">
          <mxCell style="html=1;jettySize=18;whiteSpace=wrap;fontSize=13;strokeColor=#333333;strokeOpacity=100;strokeWidth=0.8;rounded=1;arcSize=24;edgeStyle=orthogonalEdgeStyle;startArrow=none;endArrow=none;" edge="1" parent="i-iwsNPe4vKRGVadVL79-98" source="i-iwsNPe4vKRGVadVL79-99" target="i-iwsNPe4vKRGVadVL79-107">
            <mxGeometry width="100" height="100" relative="1" as="geometry">
              <Array as="points" />
            </mxGeometry>
          </mxCell>
        </UserObject>
        <mxCell id="i-iwsNPe4vKRGVadVL79-112" value="livre" style="text;html=1;resizable=0;labelBackgroundColor=default;align=center;verticalAlign=middle;fontColor=#333333;fontSize=13;" vertex="1" parent="i-iwsNPe4vKRGVadVL79-111">
          <mxGeometry relative="1" as="geometry">
            <mxPoint x="13" y="-8" as="offset" />
          </mxGeometry>
        </mxCell>
        <mxCell id="i-iwsNPe4vKRGVadVL79-113" value="1" style="text;html=1;resizable=0;labelBackgroundColor=default;align=center;verticalAlign=middle;fontSize=13;" vertex="1" parent="i-iwsNPe4vKRGVadVL79-111">
          <mxGeometry x="-0.9151700829390368" relative="1" as="geometry">
            <mxPoint x="2" y="13" as="offset" />
          </mxGeometry>
        </mxCell>
        <mxCell id="i-iwsNPe4vKRGVadVL79-114" value="1..*" style="text;html=1;resizable=0;labelBackgroundColor=default;align=center;verticalAlign=middle;fontSize=13;" vertex="1" parent="i-iwsNPe4vKRGVadVL79-111">
          <mxGeometry x="0.9281067332789912" relative="1" as="geometry">
            <mxPoint x="-13" y="13" as="offset" />
          </mxGeometry>
        </mxCell>
        <mxCell id="i-iwsNPe4vKRGVadVL79-120" parent="i-iwsNPe4vKRGVadVL79-98" />
        <mxCell id="i-iwsNPe4vKRGVadVL79-121" value="" style="group;dropTarget=0;pointerEvents=0;" vertex="1" parent="i-iwsNPe4vKRGVadVL79-120">
          <mxGeometry x="1055" y="40" width="640" height="44" as="geometry" />
        </mxCell>
        <UserObject label="%filename%" placeholders="1" lucidchartObjectId="kWBYl.rsL5rs" id="i-iwsNPe4vKRGVadVL79-122">
          <mxCell style="points=[[0.062,0.967,0],[0.946,0.967,0]];html=1;overflow=block;blockSpacing=1;whiteSpace=wrap;fontSize=19.7;fontColor=#a9afb8;fontStyle=1;align=center;spacingLeft=7;spacingRight=7;spacingTop=2;spacing=3;strokeOpacity=0;fillOpacity=0;rounded=1;absoluteArcSize=1;arcSize=12;fillColor=#ffffff;strokeWidth=1.5;" vertex="1" parent="i-iwsNPe4vKRGVadVL79-121">
            <mxGeometry width="640" height="31" as="geometry" />
          </mxCell>
        </UserObject>
        <UserObject label="%creatorName%  |  %date{mmmm d, yyyy}%" placeholders="1" lucidchartObjectId="kWBYolvidEkw" id="i-iwsNPe4vKRGVadVL79-123">
          <mxCell style="html=1;overflow=block;blockSpacing=1;whiteSpace=wrap;fontSize=11.5;fontColor=#a9afb8;align=center;spacingLeft=7;spacingRight=7;spacingTop=2;spacing=3;strokeOpacity=0;fillOpacity=0;rounded=1;absoluteArcSize=1;arcSize=12;fillColor=#ffffff;strokeWidth=1.5;" vertex="1" parent="i-iwsNPe4vKRGVadVL79-121">
            <mxGeometry y="30" width="640" height="14" as="geometry" />
          </mxCell>
        </UserObject>
        <mxCell id="i-iwsNPe4vKRGVadVL79-125" parent="1" />
        <mxCell id="i-iwsNPe4vKRGVadVL79-126" value="Livreur" style="html=1;overflow=block;blockSpacing=1;swimlane;childLayout=stackLayout;horizontal=1;horizontalStack=0;resizeParent=1;resizeParentMax=0;resizeLast=0;collapsible=0;fontStyle=0;marginBottom=0;swimlaneFillColor=#ffffff;startSize=25;whiteSpace=wrap;fontSize=13;fontColor=#333333;align=center;spacing=0;strokeColor=#333333;strokeOpacity=100;fillOpacity=100;rounded=1;absoluteArcSize=1;arcSize=12;fillColor=#ffffff;strokeWidth=0.8;" vertex="1" parent="i-iwsNPe4vKRGVadVL79-125">
          <mxGeometry x="680" y="524" width="270" height="133.25" as="geometry" />
        </mxCell>
        <mxCell id="i-iwsNPe4vKRGVadVL79-127" value="&lt;div style=&quot;display: flex; justify-content: center; text-align: center; align-items: baseline; font-size: 0; line-height: 1.25;margin-top: -2px;&quot;&gt;&lt;span&gt;&lt;span style=&quot;font-size:13px;color:#333333;&quot;&gt;+statut :string&lt;br&gt;&lt;/span&gt;&lt;/span&gt;&lt;/div&gt;&lt;div style=&quot;display: flex; justify-content: center; text-align: center; align-items: baseline; font-size: 0; line-height: 1.25;margin-top: -2px;&quot;&gt;&lt;span&gt;&lt;span style=&quot;font-size:13px;color:#333333;&quot;&gt;+lattitude: float&lt;br&gt;&lt;/span&gt;&lt;/span&gt;&lt;/div&gt;&lt;div style=&quot;display: flex; justify-content: center; text-align: center; align-items: baseline; font-size: 0; line-height: 1.25;margin-top: -2px;&quot;&gt;&lt;span&gt;&lt;span style=&quot;font-size:13px;color:#333333;&quot;&gt;+longitude:float&lt;/span&gt;&lt;/span&gt;&lt;/div&gt;" style="part=1;html=1;resizeHeight=0;strokeColor=none;fillColor=none;verticalAlign=middle;spacingLeft=4;spacingRight=4;overflow=hidden;rotatable=0;points=[[0,0.5],[1,0.5]];portConstraint=eastwest;swimlaneFillColor=#ffffff;strokeOpacity=100;fillOpacity=100;whiteSpace=wrap;fontSize=13;fontColor=#333333;align=center;" vertex="1" parent="i-iwsNPe4vKRGVadVL79-126">
          <mxGeometry y="25" width="270" height="65" as="geometry" />
        </mxCell>
        <mxCell id="i-iwsNPe4vKRGVadVL79-128" value="" style="line;strokeWidth=1;fillColor=none;align=left;verticalAlign=middle;spacingTop=-1;spacingLeft=3;spacingRight=3;rotatable=0;labelPosition=right;points=[];portConstraint=eastwest;" vertex="1" parent="i-iwsNPe4vKRGVadVL79-126">
          <mxGeometry y="90" width="270" height="8" as="geometry" />
        </mxCell>
        <mxCell id="i-iwsNPe4vKRGVadVL79-129" value="+positionLivreur():string" style="part=1;resizeHeight=0;strokeColor=none;fillColor=none;align=left;verticalAlign=middle;spacingLeft=4;spacingRight=4;rotatable=0;points=[[0,0.5],[1,0.5]];portConstraint=eastwest;swimlaneFillColor=#ffffff;strokeOpacity=100;fillOpacity=100;whiteSpace=wrap;overflow=block;blockSpacing=1;html=1;fontSize=13;" vertex="1" parent="i-iwsNPe4vKRGVadVL79-126">
          <mxGeometry y="98" width="270" height="35.25" as="geometry" />
        </mxCell>
        <mxCell id="i-iwsNPe4vKRGVadVL79-130" value="plat du jour" style="html=1;overflow=block;blockSpacing=1;swimlane;childLayout=stackLayout;horizontal=1;horizontalStack=0;resizeParent=1;resizeParentMax=0;resizeLast=0;collapsible=0;marginBottom=0;swimlaneFillColor=#ffffff;startSize=25;whiteSpace=wrap;fontSize=13;fontColor=#333333;fontStyle=2;align=center;spacing=0;strokeColor=#333333;strokeOpacity=100;fillOpacity=100;rounded=1;absoluteArcSize=1;arcSize=12;fillColor=#ffffff;strokeWidth=0.8;" vertex="1" parent="i-iwsNPe4vKRGVadVL79-125">
          <mxGeometry x="1190" y="800" width="270" height="137.25" as="geometry" />
        </mxCell>
        <mxCell id="i-iwsNPe4vKRGVadVL79-131" value="&lt;div style=&quot;display: flex; justify-content: center; text-align: center; align-items: baseline; font-size: 0; line-height: 1.25;margin-top: -2px;&quot;&gt;&lt;span&gt;&lt;span style=&quot;font-size:13px;color:#333333;&quot;&gt;+ nom : string&#xa;&lt;/span&gt;&lt;/span&gt;&lt;/div&gt;&lt;div style=&quot;display: flex; justify-content: center; text-align: center; align-items: baseline; font-size: 0; line-height: 1.25;margin-top: -2px;&quot;&gt;&lt;span&gt;&lt;span style=&quot;font-size:13px;color:#333333;&quot;&gt;+chef :string&#xa;&lt;/span&gt;&lt;/span&gt;&lt;/div&gt;&lt;div style=&quot;display: flex; justify-content: center; text-align: center; align-items: baseline; font-size: 0; line-height: 1.25;margin-top: -2px;&quot;&gt;&lt;span&gt;&lt;span style=&quot;font-size:13px;color:#333333;&quot;&gt;+ type : string&#xa;&lt;/span&gt;&lt;/span&gt;&lt;/div&gt;&lt;div style=&quot;display: flex; justify-content: center; text-align: center; align-items: baseline; font-size: 0; line-height: 1.25;margin-top: -2px;&quot;&gt;&lt;span&gt;&lt;span style=&quot;font-size:13px;color:#333333;&quot;&gt;+jour :date&#xa;&lt;/span&gt;&lt;/span&gt;&lt;/div&gt;&lt;div style=&quot;display: flex; justify-content: center; text-align: center; align-items: baseline; font-size: 0; line-height: 1.25;margin-top: -2px;&quot;&gt;&lt;span&gt;&lt;span style=&quot;font-size:13px;color:#333333;&quot;&gt;+prix :int&lt;/span&gt;&lt;/span&gt;&lt;/div&gt;" style="part=1;html=1;resizeHeight=0;strokeColor=none;fillColor=none;verticalAlign=middle;spacingLeft=4;spacingRight=4;overflow=hidden;rotatable=0;points=[[0,0.5],[1,0.5]];portConstraint=eastwest;swimlaneFillColor=#ffffff;strokeOpacity=100;fillOpacity=100;whiteSpace=wrap;fontSize=13;fontColor=#333333;align=center;" vertex="1" parent="i-iwsNPe4vKRGVadVL79-130">
          <mxGeometry y="25" width="270" height="87" as="geometry" />
        </mxCell>
        <mxCell id="i-iwsNPe4vKRGVadVL79-132" value="" style="line;strokeWidth=1;fillColor=none;align=left;verticalAlign=middle;spacingTop=-1;spacingLeft=3;spacingRight=3;rotatable=0;labelPosition=right;points=[];portConstraint=eastwest;" vertex="1" parent="i-iwsNPe4vKRGVadVL79-130">
          <mxGeometry y="112" width="270" height="8" as="geometry" />
        </mxCell>
        <mxCell id="i-iwsNPe4vKRGVadVL79-133" value="" style="part=1;resizeHeight=0;strokeColor=none;fillColor=none;align=left;verticalAlign=middle;spacingLeft=4;spacingRight=4;rotatable=0;points=[[0,0.5],[1,0.5]];portConstraint=eastwest;swimlaneFillColor=#ffffff;strokeOpacity=100;fillOpacity=100;whiteSpace=wrap;overflow=block;blockSpacing=1;html=1;fontSize=13;" vertex="1" parent="i-iwsNPe4vKRGVadVL79-130">
          <mxGeometry y="120" width="270" height="17.25" as="geometry" />
        </mxCell>
        <mxCell id="i-iwsNPe4vKRGVadVL79-134" value="Commande" style="html=1;overflow=block;blockSpacing=1;swimlane;childLayout=stackLayout;horizontal=1;horizontalStack=0;resizeParent=1;resizeParentMax=0;resizeLast=0;collapsible=0;fontStyle=0;marginBottom=0;swimlaneFillColor=#ffffff;startSize=25;whiteSpace=wrap;fontSize=13;fontColor=#333333;align=center;spacing=0;strokeColor=#333333;strokeOpacity=100;fillOpacity=100;rounded=1;absoluteArcSize=1;arcSize=12;fillColor=#ffffff;strokeWidth=0.8;" vertex="1" parent="i-iwsNPe4vKRGVadVL79-125">
          <mxGeometry x="1150" y="508" width="375" height="165.25" as="geometry" />
        </mxCell>
        <mxCell id="i-iwsNPe4vKRGVadVL79-135" value="&lt;div style=&quot;display: flex; justify-content: center; text-align: center; align-items: baseline; font-size: 0; line-height: 1.25;margin-top: -2px;&quot;&gt;&lt;span&gt;&lt;span style=&quot;font-size:13px;color:#333333;&quot;&gt;+dateCommande : date&lt;br&gt;&lt;/span&gt;&lt;/span&gt;&lt;/div&gt;&lt;div style=&quot;display: flex; justify-content: center; text-align: center; align-items: baseline; font-size: 0; line-height: 1.25;margin-top: -2px;&quot;&gt;&lt;span&gt;&lt;span style=&quot;font-size:13px;color:#333333;&quot;&gt;+livreur: string&lt;br&gt;&lt;/span&gt;&lt;/span&gt;&lt;/div&gt;&lt;div style=&quot;display: flex; justify-content: center; text-align: center; align-items: baseline; font-size: 0; line-height: 1.25;margin-top: -2px;&quot;&gt;&lt;span&gt;&lt;span style=&quot;font-size:13px;color:#333333;&quot;&gt;+status :string&amp;nbsp;&lt;br&gt;&lt;/span&gt;&lt;/span&gt;&lt;/div&gt;&lt;div style=&quot;display: flex; justify-content: center; text-align: center; align-items: baseline; font-size: 0; line-height: 1.25;margin-top: -2px;&quot;&gt;&lt;span&gt;&lt;span style=&quot;font-size:13px;color:#333333;&quot;&gt;+heureArrivé: int&lt;/span&gt;&lt;/span&gt;&lt;/div&gt;" style="part=1;html=1;resizeHeight=0;strokeColor=none;fillColor=none;verticalAlign=middle;spacingLeft=4;spacingRight=4;overflow=hidden;rotatable=0;points=[[0,0.5],[1,0.5]];portConstraint=eastwest;swimlaneFillColor=#ffffff;strokeOpacity=100;fillOpacity=100;whiteSpace=wrap;fontSize=13;fontColor=#333333;align=center;" vertex="1" parent="i-iwsNPe4vKRGVadVL79-134">
          <mxGeometry y="25" width="375" height="79" as="geometry" />
        </mxCell>
        <mxCell id="i-iwsNPe4vKRGVadVL79-136" value="" style="line;strokeWidth=1;fillColor=none;align=left;verticalAlign=middle;spacingTop=-1;spacingLeft=3;spacingRight=3;rotatable=0;labelPosition=right;points=[];portConstraint=eastwest;" vertex="1" parent="i-iwsNPe4vKRGVadVL79-134">
          <mxGeometry y="104" width="375" height="8" as="geometry" />
        </mxCell>
        <mxCell id="i-iwsNPe4vKRGVadVL79-137" value="&lt;div style=&quot;display: flex; justify-content: center; text-align: center; align-items: baseline; font-size: 0; line-height: 1.25;margin-top: -2px;&quot;&gt;&lt;span&gt;&lt;span style=&quot;font-size:13px;color:#333333;&quot;&gt;+ choixLivreur(positionAdresse,positionLivreur):string&#xa;&lt;/span&gt;&lt;/span&gt;&lt;/div&gt;&lt;div style=&quot;display: flex; justify-content: center; text-align: center; align-items: baseline; font-size: 0; line-height: 1.25;margin-top: -2px;&quot;&gt;&lt;span&gt;&lt;span style=&quot;font-size:13px;color:#333333;&quot;&gt;+ETA(positionAdresse,positionLivreur):date&lt;/span&gt;&lt;/span&gt;&lt;/div&gt;" style="part=1;resizeHeight=0;strokeColor=none;fillColor=none;align=left;verticalAlign=middle;spacingLeft=4;spacingRight=4;rotatable=0;points=[[0,0.5],[1,0.5]];portConstraint=eastwest;swimlaneFillColor=#ffffff;strokeOpacity=100;fillOpacity=100;whiteSpace=wrap;overflow=block;blockSpacing=1;html=1;fontSize=13;" vertex="1" parent="i-iwsNPe4vKRGVadVL79-134">
          <mxGeometry y="112" width="375" height="53.25" as="geometry" />
        </mxCell>
        <UserObject label="" lucidchartObjectId="a3lcvIBLx3UH" id="i-iwsNPe4vKRGVadVL79-138">
          <mxCell style="html=1;jettySize=18;whiteSpace=wrap;fontSize=13;strokeColor=#333333;strokeOpacity=100;strokeWidth=0.8;rounded=1;arcSize=24;edgeStyle=orthogonalEdgeStyle;startArrow=none;endArrow=none;" edge="1" parent="i-iwsNPe4vKRGVadVL79-125" source="i-iwsNPe4vKRGVadVL79-126" target="i-iwsNPe4vKRGVadVL79-134">
            <mxGeometry width="100" height="100" relative="1" as="geometry">
              <Array as="points" />
            </mxGeometry>
          </mxCell>
        </UserObject>
        <mxCell id="i-iwsNPe4vKRGVadVL79-139" value="livre" style="text;html=1;resizable=0;labelBackgroundColor=default;align=center;verticalAlign=middle;fontColor=#333333;fontSize=13;" vertex="1" parent="i-iwsNPe4vKRGVadVL79-138">
          <mxGeometry relative="1" as="geometry">
            <mxPoint x="13" y="-8" as="offset" />
          </mxGeometry>
        </mxCell>
        <mxCell id="i-iwsNPe4vKRGVadVL79-140" value="1" style="text;html=1;resizable=0;labelBackgroundColor=default;align=center;verticalAlign=middle;fontSize=13;" vertex="1" parent="i-iwsNPe4vKRGVadVL79-138">
          <mxGeometry x="-0.9151700829390368" relative="1" as="geometry">
            <mxPoint x="2" y="13" as="offset" />
          </mxGeometry>
        </mxCell>
        <mxCell id="i-iwsNPe4vKRGVadVL79-141" value="1..*" style="text;html=1;resizable=0;labelBackgroundColor=default;align=center;verticalAlign=middle;fontSize=13;" vertex="1" parent="i-iwsNPe4vKRGVadVL79-138">
          <mxGeometry x="0.9281067332789912" relative="1" as="geometry">
            <mxPoint x="-13" y="13" as="offset" />
          </mxGeometry>
        </mxCell>
        <UserObject label="" lucidchartObjectId="R4lc5TQhlQKx" id="i-iwsNPe4vKRGVadVL79-142">
          <mxCell style="html=1;jettySize=18;whiteSpace=wrap;fontSize=13;strokeColor=#333333;strokeOpacity=100;strokeWidth=0.8;rounded=1;arcSize=24;edgeStyle=orthogonalEdgeStyle;startArrow=none;endArrow=none;entryX=0.556;entryY=0.015;entryDx=0;entryDy=0;entryPerimeter=0;" edge="1" parent="i-iwsNPe4vKRGVadVL79-125" source="i-iwsNPe4vKRGVadVL79-134" target="i-iwsNPe4vKRGVadVL79-130">
            <mxGeometry x="0.2637" y="-10" width="100" height="100" relative="1" as="geometry">
              <Array as="points" />
              <mxPoint x="1670" y="740" as="targetPoint" />
              <mxPoint as="offset" />
            </mxGeometry>
          </mxCell>
        </UserObject>
        <mxCell id="i-iwsNPe4vKRGVadVL79-143" value="contient" style="text;html=1;resizable=0;labelBackgroundColor=default;align=center;verticalAlign=middle;fontColor=#333333;fontSize=13;" vertex="1" parent="i-iwsNPe4vKRGVadVL79-142">
          <mxGeometry relative="1" as="geometry">
            <mxPoint y="3" as="offset" />
          </mxGeometry>
        </mxCell>
        <mxCell id="i-iwsNPe4vKRGVadVL79-144" value="0..*" style="text;html=1;resizable=0;labelBackgroundColor=default;align=center;verticalAlign=middle;fontSize=13;" vertex="1" parent="i-iwsNPe4vKRGVadVL79-142">
          <mxGeometry x="-0.7939050093280449" relative="1" as="geometry">
            <mxPoint x="-17" y="3" as="offset" />
          </mxGeometry>
        </mxCell>
        <mxCell id="i-iwsNPe4vKRGVadVL79-145" value="1..*" style="text;html=1;resizable=0;labelBackgroundColor=default;align=center;verticalAlign=middle;fontSize=13;" vertex="1" parent="i-iwsNPe4vKRGVadVL79-142">
          <mxGeometry x="0.72704963356145" relative="1" as="geometry">
            <mxPoint x="21" y="-3" as="offset" />
          </mxGeometry>
        </mxCell>
        <mxCell id="i-iwsNPe4vKRGVadVL79-146" parent="i-iwsNPe4vKRGVadVL79-125" />
        <mxCell id="i-iwsNPe4vKRGVadVL79-147" value="" style="group;dropTarget=0;pointerEvents=0;" vertex="1" parent="i-iwsNPe4vKRGVadVL79-146">
          <mxGeometry x="1055" y="40" width="640" height="44" as="geometry" />
        </mxCell>
        <UserObject label="%filename%" placeholders="1" lucidchartObjectId="kWBYl.rsL5rs" id="i-iwsNPe4vKRGVadVL79-148">
          <mxCell style="points=[[0.062,0.967,0],[0.946,0.967,0]];html=1;overflow=block;blockSpacing=1;whiteSpace=wrap;fontSize=19.7;fontColor=#a9afb8;fontStyle=1;align=center;spacingLeft=7;spacingRight=7;spacingTop=2;spacing=3;strokeOpacity=0;fillOpacity=0;rounded=1;absoluteArcSize=1;arcSize=12;fillColor=#ffffff;strokeWidth=1.5;" vertex="1" parent="i-iwsNPe4vKRGVadVL79-147">
            <mxGeometry width="640" height="31" as="geometry" />
          </mxCell>
        </UserObject>
        <UserObject label="%creatorName%  |  %date{mmmm d, yyyy}%" placeholders="1" lucidchartObjectId="kWBYolvidEkw" id="i-iwsNPe4vKRGVadVL79-149">
          <mxCell style="html=1;overflow=block;blockSpacing=1;whiteSpace=wrap;fontSize=11.5;fontColor=#a9afb8;align=center;spacingLeft=7;spacingRight=7;spacingTop=2;spacing=3;strokeOpacity=0;fillOpacity=0;rounded=1;absoluteArcSize=1;arcSize=12;fillColor=#ffffff;strokeWidth=1.5;" vertex="1" parent="i-iwsNPe4vKRGVadVL79-147">
            <mxGeometry y="30" width="640" height="14" as="geometry" />
          </mxCell>
        </UserObject>
      </root>
    </mxGraphModel>
  </diagram>
</mxfile>
